<svg width="159" height="62" viewBox="0 0 159 62" fill="none" xmlns="http://www.w3.org/2000/svg">
<g clip-path="url(#clip0_2248_4776)">
<path d="M159 56.3075V57.5649L141.851 52.2611C135.431 50.7065 128.186 46.1342 121.79 49.792C120.139 50.5007 118.534 51.5295 116.608 51.2552C115.691 50.958 115.21 50.4093 114.224 50.6836C109.89 51.6895 106.795 55.1187 102.783 56.9934C101.178 57.7249 99.1834 57.9993 97.5785 57.1305C96.0653 56.2161 94.5751 55.233 92.8097 55.0273C89.875 54.5929 87.4906 56.7419 84.7852 57.5192C87.4676 56.6962 89.7833 54.5015 92.8326 54.8673C94.598 55.073 96.18 56.0332 97.6932 56.9019C99.2522 57.7249 101.109 57.4277 102.645 56.719C106.566 54.8215 109.707 51.2552 114.132 50.2035C115.003 49.8606 116.012 50.4779 116.746 50.7293C117.479 50.9122 118.373 50.615 119.153 50.295C121.606 49.3805 123.853 47.5288 126.65 47.7116C128.484 47.6888 130.25 47.986 131.969 48.3975C141.048 50.9122 149.944 53.8385 159 56.3075Z" fill="#007B99"/>
<path d="M159 61.177V62H82.79C84.3032 62 85.6101 61.5199 86.8482 60.9027C86.9628 60.8341 87.1003 60.7883 87.215 60.7198C90.1038 59.2795 92.4653 57.885 97.0737 60.9027C99.0683 62.2058 101.086 61.8628 103.058 60.9027C103.333 60.7655 103.585 60.6283 103.86 60.4911C106.382 59.0509 108.835 56.8333 111.38 55.6903C118.442 52.2839 113.283 58.1822 122.89 53.0841C126.741 51.0037 133.528 53.3127 138.022 54.8215C140.108 55.5302 150.402 58.5937 158.106 60.9027C158.404 60.9941 158.702 61.0855 159 61.177Z" fill="#9BC724"/>
<path d="M82.7903 62H59.1523C60.2528 61.9771 61.0324 61.7714 62.1787 61.2684C66.0764 59.2795 72.9545 56.0103 76.0038 58.7994C78.7551 61.1998 80.9102 62 82.7903 62Z" fill="#9BC724"/>
<path d="M159 0V56.3075C149.944 53.8385 141.048 50.9122 131.969 48.3975C130.249 47.986 128.484 47.6888 126.65 47.7117C123.853 47.5288 121.606 49.3805 119.153 50.295C118.373 50.615 117.479 50.9122 116.745 50.7293C116.012 50.4779 115.003 49.8606 114.132 50.2035C109.707 51.2552 106.566 54.8215 102.645 56.719C101.109 57.4277 99.2518 57.7249 97.6927 56.9019C96.1795 56.0332 94.5976 55.073 92.8322 54.8673C89.7828 54.5015 87.4672 56.6962 84.7847 57.5192C87.4901 56.7419 89.8745 54.5929 92.8092 55.0273C94.5746 55.233 96.0649 56.2161 97.5781 57.1305C99.183 57.9993 101.178 57.7249 102.783 56.9934C106.795 55.1187 109.89 51.6895 114.223 50.6836C115.209 50.4093 115.691 50.958 116.608 51.2552C118.534 51.5295 120.138 50.5007 121.789 49.792C128.186 46.1342 135.431 50.7065 141.85 52.2611L159 57.5649V61.177C158.702 61.0855 158.404 60.9941 158.106 60.9026C150.402 58.5937 140.108 55.5302 138.022 54.8215C133.528 53.3127 126.741 51.0037 122.89 53.0841C113.283 58.1821 118.442 52.2839 111.38 55.6903C108.835 56.8333 106.382 59.0509 103.86 60.4911C103.585 60.6283 103.333 60.7655 103.058 60.9026C101.086 61.8628 99.0684 62.2057 97.0737 60.9026C92.4653 57.885 90.1038 59.2795 87.215 60.7198C87.1004 60.7883 86.9628 60.8341 86.8482 60.9026C85.6101 61.5199 84.3032 62 82.7901 62C80.91 62 78.7549 61.1998 76.0036 58.7994C72.9543 56.0103 66.0761 59.2795 62.1785 61.2684C61.0322 61.7714 60.2526 61.9771 59.1521 62H0V0H159Z" fill="#00313D"/>
<path opacity="0.8" d="M15.1779 46.34C15.4301 46.6143 15.7052 46.8429 16.0491 47.0258C16.3701 47.2087 16.7369 47.323 17.1267 47.4144C17.5164 47.5059 17.8833 47.5516 18.273 47.5516C18.6857 47.5516 19.0984 47.5059 19.5111 47.3916C19.9238 47.2773 20.2677 47.1401 20.5657 46.9344C20.8638 46.7286 21.116 46.4771 21.2994 46.1571C21.4828 45.837 21.5745 45.4712 21.5745 45.0597C21.5745 44.7397 21.5058 44.4653 21.3911 44.2139C21.2536 43.9852 21.0701 43.7566 20.7721 43.5737C20.497 43.3908 20.1301 43.208 19.6716 43.0708C19.213 42.9336 18.6628 42.7736 17.975 42.6364C17.4247 42.5221 16.8515 42.3849 16.2784 42.2249C15.7052 42.0649 15.1549 41.8363 14.6505 41.5391C14.1461 41.2419 13.7334 40.8532 13.4125 40.3503C13.0915 39.8702 12.931 39.2301 12.931 38.4757C12.931 37.8813 13.0686 37.3555 13.3666 36.8982C13.6647 36.4181 14.0544 36.0295 14.5359 35.7094C15.0174 35.3894 15.5676 35.1379 16.1867 34.9779C16.8057 34.8178 17.4247 34.7264 18.0667 34.7264C18.5482 34.7264 19.0526 34.7721 19.534 34.8864C20.0155 35.0007 20.474 35.1608 20.9097 35.3665C21.3453 35.5723 21.735 35.8466 22.0789 36.1895C22.4229 36.5096 22.7209 36.8982 22.9502 37.3555L21.1389 37.8813C20.8638 37.4012 20.4282 37.0125 19.8321 36.7611C19.236 36.5096 18.6169 36.3724 17.975 36.3724C17.5852 36.3724 17.2184 36.4181 16.8515 36.5096C16.4847 36.601 16.1637 36.7382 15.8657 36.9211C15.5676 37.104 15.3613 37.3326 15.1779 37.6069C14.9944 37.8813 14.9257 38.2013 14.9257 38.5671C14.9257 38.9557 15.0174 39.2758 15.2237 39.5273C15.4071 39.7788 15.6823 39.9845 16.0262 40.1674C16.3701 40.3503 16.7369 40.4646 17.1725 40.5789C17.6081 40.6932 18.0667 40.7847 18.5482 40.899C19.1672 41.0133 19.7633 41.1733 20.3823 41.3562C20.9784 41.5391 21.5287 41.7906 22.0102 42.0878C22.4916 42.3849 22.8814 42.7965 23.1794 43.2994C23.4775 43.8024 23.638 44.4196 23.638 45.174C23.638 45.8142 23.4775 46.3857 23.1794 46.9115C22.8814 47.4144 22.4687 47.8488 21.9414 48.1917C21.437 48.5347 20.8409 48.7861 20.176 48.969C19.5111 49.1519 18.8462 49.2434 18.1584 49.2434C17.5852 49.2434 17.012 49.1748 16.4389 49.0376C15.8657 48.9004 15.3384 48.6947 14.8569 48.4203C14.3754 48.146 13.9398 47.8031 13.5959 47.3916C13.252 46.9801 12.9539 46.4771 12.7705 45.9285L14.6047 45.3798C14.7422 45.7684 14.9257 46.0885 15.1549 46.3628L15.1779 46.34Z" fill="#FFFCF7"/>
<path opacity="0.8" d="M31.7999 40.5103C31.4102 40.0302 30.814 39.8016 29.9657 39.8016C29.3467 39.8016 28.8194 39.9388 28.4296 40.236C28.0399 40.5332 27.7647 40.9218 27.673 41.4248L25.9764 40.9218C26.2515 40.1217 26.7559 39.5044 27.4667 39.0701C28.1774 38.6357 29.0257 38.4071 29.9657 38.4071C31.4102 38.4071 32.4648 38.75 33.1068 39.413C33.7487 40.076 34.0926 41.1504 34.1156 42.6136V45.0369C34.1614 45.9056 34.1843 46.66 34.2531 47.2773C34.3219 47.8945 34.3907 48.4432 34.5053 48.9462H32.8775L32.4648 47.5288C32.1438 48.0546 31.7082 48.4661 31.135 48.7633C30.5848 49.0605 29.8282 49.1976 28.9111 49.1976C28.4296 49.1976 27.9481 49.1291 27.5125 48.9919C27.0769 48.8547 26.6872 48.6718 26.3662 48.3975C26.0452 48.1232 25.7701 47.826 25.5866 47.4602C25.4032 47.0944 25.3115 46.66 25.3115 46.2028C25.3115 45.5855 25.472 45.0826 25.8159 44.6482C26.1598 44.2139 26.6184 43.8938 27.2374 43.6195C27.8564 43.3451 28.5901 43.1394 29.4613 42.9793C30.3326 42.8193 31.2955 42.6822 32.3502 42.545C32.3731 41.6763 32.2126 40.9904 31.8228 40.5103H31.7999ZM27.7647 47.3459C28.1316 47.6431 28.613 47.8031 29.255 47.8031C29.6677 47.8031 30.0574 47.7574 30.4472 47.6431C30.837 47.5288 31.1809 47.3687 31.4789 47.1173C31.777 46.8658 32.0292 46.5457 32.2126 46.1342C32.396 45.7227 32.4877 45.2198 32.4877 44.6025V43.9624C31.6853 44.0538 30.9745 44.1453 30.3326 44.2367C29.6906 44.351 29.1404 44.4653 28.6818 44.6482C28.2233 44.8083 27.8794 45.014 27.6272 45.2655C27.375 45.517 27.2603 45.8142 27.2603 46.1799C27.2603 46.66 27.4438 47.0715 27.7877 47.3687L27.7647 47.3459Z" fill="#FFFCF7"/>
<path opacity="0.8" d="M38.7698 40.1445C39.0679 39.6644 39.4806 39.2529 40.0079 38.91C40.5352 38.5671 41.2459 38.4071 42.1401 38.4071C42.7591 38.4071 43.3094 38.4985 43.745 38.7043C44.1806 38.91 44.5475 39.1844 44.8226 39.5273C45.0977 39.8702 45.2811 40.3046 45.4187 40.7847C45.5563 41.2647 45.6021 41.8134 45.6021 42.4078V48.9919H43.8367V42.9336C43.8367 42.5221 43.8138 42.1563 43.7679 41.7906C43.7221 41.4248 43.6074 41.1276 43.447 40.8304C43.2865 40.556 43.0572 40.3274 42.7591 40.1674C42.4611 40.0074 42.0484 39.9159 41.544 39.9159C40.6957 39.9159 40.0079 40.2131 39.5264 40.7847C39.0449 41.3562 38.7927 42.2021 38.7927 43.3223V48.9462H37.0273V38.5671H38.3342L38.7927 40.1445H38.7698Z" fill="#FFFCF7"/>
<path opacity="0.8" d="M48.904 35.938H50.6694V38.5671H52.687V39.9616H50.6694V46.0656C50.6694 46.34 50.6694 46.5457 50.6694 46.7286C50.6694 46.9115 50.7382 47.0487 50.807 47.1401C50.8758 47.2316 50.9904 47.3001 51.128 47.3459C51.2655 47.3916 51.4719 47.4144 51.7241 47.4144H52.6641V48.969H51.3343C50.8299 48.969 50.4172 48.9233 50.0962 48.8547C49.7753 48.7861 49.5231 48.649 49.3396 48.4661C49.1562 48.2832 49.0416 48.0088 48.9728 47.6888C48.904 47.3459 48.8582 46.9115 48.8582 46.3628V39.9845H47.0928V38.59H48.8582V35.9609L48.904 35.938Z" fill="#FFFCF7"/>
<path opacity="0.8" d="M61.5824 38.8872C62.2014 39.2072 62.7287 39.6416 63.1414 40.1903C63.5541 40.7389 63.8522 41.3562 64.0356 42.0649C64.219 42.7736 64.2878 43.4823 64.2419 44.2367H56.2174C56.2403 44.8997 56.3779 45.4484 56.5842 45.8827C56.7906 46.3171 57.0657 46.66 57.3867 46.9344C57.7077 47.1858 58.0516 47.3687 58.3955 47.483C58.7623 47.5973 59.1062 47.6431 59.4272 47.6431C60.0233 47.6431 60.5048 47.5516 60.9175 47.3687C61.3072 47.1858 61.6282 46.9344 61.8804 46.6143L63.577 47.1173C63.1873 47.7345 62.6599 48.2375 61.9492 48.6261C61.2385 49.0147 60.4131 49.1976 59.4272 49.1976C58.6248 49.1976 57.8911 49.0605 57.2491 48.7861C56.6072 48.5118 56.0798 48.1232 55.6442 47.6431C55.2086 47.163 54.8876 46.5914 54.6584 45.9285C54.4291 45.2655 54.3145 44.5568 54.3145 43.8024C54.3145 42.9793 54.452 42.2249 54.7042 41.5619C54.9564 40.899 55.3232 40.3274 55.7818 39.8702C56.2403 39.413 56.7677 39.0472 57.3867 38.7957C58.0057 38.5442 58.6706 38.4071 59.3814 38.4071C60.2067 38.4071 60.9404 38.5671 61.5594 38.8872H61.5824ZM62.1555 41.7677C62.018 41.4019 61.8116 41.1047 61.5594 40.8304C61.3072 40.556 60.9863 40.3274 60.6194 40.1674C60.2526 40.0074 59.8399 39.9159 59.3814 39.9159C58.9916 39.9159 58.6018 39.9845 58.2579 40.076C57.8911 40.1903 57.5701 40.3503 57.295 40.5789C57.0199 40.8075 56.7906 41.1047 56.5842 41.4705C56.4008 41.8363 56.2862 42.2935 56.2403 42.8193H62.3619C62.3619 42.4535 62.2931 42.0878 62.1555 41.7448V41.7677ZM58.877 36.5553C59.0604 36.3267 59.2667 36.0524 59.4731 35.778C59.6794 35.5037 59.9087 35.2293 60.115 34.955C60.3214 34.6807 60.4589 34.4978 60.5736 34.4063C60.6424 34.3149 60.7341 34.2463 60.8258 34.2006C60.9175 34.1549 61.0321 34.132 61.1468 34.132C61.376 34.132 61.5594 34.2006 61.697 34.3378C61.8575 34.4749 61.9492 34.6807 61.9492 34.9321C61.9492 35.0236 61.9492 35.115 61.9033 35.2065C61.8804 35.2979 61.7887 35.3894 61.6741 35.5037C61.5824 35.5951 61.4677 35.7094 61.2843 35.8695C61.1238 36.0295 60.9404 36.1895 60.757 36.3496C60.5736 36.5096 60.4131 36.6468 60.2755 36.7611C60.138 36.8754 60.0462 36.944 60.0233 36.9897H58.556C58.556 36.9897 58.7165 36.7839 58.8999 36.5553H58.877Z" fill="#FFFCF7"/>
<path d="M12.7251 17.969C13.0919 17.0546 13.5963 16.2544 14.2612 15.6143C14.9261 14.9742 15.7056 14.4712 16.6227 14.1055C17.5398 13.7397 18.5486 13.5568 19.672 13.5568C20.7954 13.5568 21.8042 13.7397 22.7213 14.1055C23.6384 14.4712 24.4408 14.9742 25.1057 15.6143C25.7706 16.2544 26.2979 17.0546 26.6648 17.969C27.0316 18.8835 27.215 19.9122 27.215 21.0324C27.215 22.1527 27.0316 23.1814 26.6648 24.0959C26.2979 25.0103 25.7706 25.8105 25.1057 26.4506C24.4408 27.0907 23.6384 27.5937 22.7213 27.9594C21.8042 28.3252 20.7725 28.5081 19.672 28.5081C18.5715 28.5081 17.5398 28.3252 16.6227 27.9594C15.7056 27.5937 14.9261 27.0907 14.2612 26.4506C13.5963 25.8105 13.0919 25.0103 12.7251 24.0959C12.3582 23.1814 12.1748 22.1527 12.1748 21.0324C12.1748 19.9122 12.3582 18.8835 12.7251 17.969ZM16.1183 23.0442C16.3246 23.6386 16.5998 24.1187 16.9666 24.5074C17.3105 24.896 17.7232 25.1932 18.2047 25.399C18.6861 25.6047 19.1676 25.6962 19.6949 25.6962C20.2222 25.6962 20.7266 25.6047 21.2081 25.399C21.6667 25.1932 22.0793 24.896 22.4462 24.5074C22.7901 24.1187 23.0881 23.6386 23.2945 23.0442C23.5008 22.4499 23.6155 21.7869 23.6155 21.0324C23.6155 20.278 23.5008 19.5922 23.2945 19.0206C23.0881 18.4263 22.813 17.9462 22.4462 17.5575C22.0793 17.1689 21.6896 16.8717 21.2081 16.6659C20.7496 16.4602 20.2452 16.3687 19.6949 16.3687C19.1447 16.3687 18.6861 16.4602 18.2047 16.6659C17.7232 16.8717 17.3334 17.1689 16.9666 17.5575C16.6227 17.9462 16.3246 18.4263 16.1183 19.0206C15.9119 19.615 15.7973 20.278 15.7973 21.0324C15.7973 21.7869 15.9119 22.4727 16.1183 23.0442Z" fill="#FFFCF7"/>
<path d="M31.6853 17.5347V23.1586C31.6853 23.5472 31.6853 23.913 31.7082 24.2559C31.7082 24.5988 31.7999 24.896 31.8916 25.1475C32.0063 25.399 32.1668 25.6047 32.3731 25.7419C32.6024 25.9019 32.9004 25.9705 33.3131 25.9705C34.0009 25.9705 34.5053 25.7647 34.7805 25.3304C35.0785 24.896 35.2161 24.1873 35.2161 23.1814V17.5347H38.5405V28.2566H35.6746L35.2161 26.7478C34.8951 27.2736 34.5053 27.708 34.0468 28.028C33.5883 28.3481 32.9234 28.5081 32.098 28.5081C31.3872 28.5081 30.7911 28.4167 30.3097 28.2109C29.8282 28.0052 29.4384 27.708 29.1633 27.3422C28.8882 26.9535 28.6818 26.4963 28.5672 25.9248C28.4526 25.3532 28.3838 24.7131 28.3838 23.9816V17.5347H31.6853Z" fill="#FFFCF7"/>
<path d="M39.9854 20.5066C40.2835 19.8208 40.6962 19.2264 41.2235 18.7463C41.7508 18.2662 42.3698 17.8776 43.0577 17.6261C43.7684 17.3746 44.5021 17.2375 45.2816 17.2375C46.1528 17.2375 46.9553 17.3975 47.666 17.7175C48.3768 18.0376 48.9729 18.4948 49.4543 19.0664C49.9358 19.6379 50.2797 20.3237 50.5319 21.101C50.7612 21.9012 50.8529 22.7699 50.8071 23.7072H42.8513C42.8742 24.073 42.966 24.4159 43.1264 24.6903C43.2869 24.9646 43.4704 25.2161 43.6996 25.399C43.9289 25.5819 44.1811 25.719 44.4791 25.8105C44.7772 25.9019 45.0753 25.9476 45.3733 25.9476C45.8777 25.9476 46.3133 25.8791 46.6802 25.7419C47.047 25.6047 47.345 25.399 47.5285 25.1475L50.1422 26.1077C49.569 26.9307 48.8812 27.5251 48.0329 27.9137C47.1846 28.3024 46.3362 28.5081 45.4421 28.5081C44.5479 28.5081 43.7913 28.3709 43.0577 28.1195C42.324 27.868 41.705 27.4793 41.2006 26.9993C40.6732 26.5192 40.2835 25.9019 39.9854 25.2161C39.6874 24.5074 39.5498 23.7072 39.5498 22.8385C39.5498 21.9698 39.7103 21.2153 40.0084 20.5295L39.9854 20.5066ZM47.7577 21.764C47.7348 21.0782 47.4826 20.5524 47.047 20.1866C46.5885 19.8437 46.0611 19.6608 45.3962 19.6608C44.7313 19.6608 44.2269 19.8208 43.7455 20.1637C43.264 20.5066 42.966 21.0324 42.8742 21.764H47.7807H47.7577Z" fill="#FFFCF7"/>
<path d="M54.7957 25.7876C55.2543 25.9934 55.7816 26.1077 56.4006 26.1077C56.928 26.1077 57.4094 26.0162 57.8221 25.8562C58.2348 25.6962 58.4411 25.4447 58.4411 25.1018C58.4411 24.8732 58.3265 24.6903 58.0743 24.5302C57.8221 24.3702 57.3865 24.2559 56.7675 24.1416L54.8416 23.8215C53.8099 23.6386 52.9615 23.2957 52.2967 22.7699C51.6547 22.2441 51.3337 21.5354 51.3337 20.6209C51.3337 20.0494 51.4713 19.5693 51.7235 19.1349C51.9986 18.7006 52.3425 18.3577 52.8011 18.0833C53.2596 17.809 53.764 17.5804 54.3601 17.4432C54.9562 17.306 55.5982 17.2375 56.2631 17.2375C56.7904 17.2375 57.2948 17.2832 57.7763 17.3746C58.2577 17.4661 58.7163 17.6032 59.129 17.7861C59.5417 17.9919 59.9314 18.2205 60.2524 18.5406C60.5734 18.8378 60.8485 19.2035 61.0548 19.615L58.2807 20.6209C58.166 20.2323 57.9367 19.958 57.547 19.8208C57.1802 19.6836 56.7445 19.615 56.2631 19.615C55.0709 19.615 54.4747 19.9122 54.4747 20.4838C54.4747 20.6895 54.5665 20.8724 54.7728 21.0096C54.9791 21.1467 55.323 21.2611 55.7816 21.3525L57.7763 21.7183C59.0831 21.9469 60.046 22.2898 60.6651 22.7242C61.2841 23.1814 61.6051 23.8444 61.6051 24.736C61.6051 25.3761 61.4675 25.9248 61.1924 26.382C60.9173 26.8392 60.5275 27.2507 60.046 27.5479C59.5646 27.868 59.0143 28.0966 58.3724 28.2566C57.7304 28.4167 57.0655 28.4852 56.3318 28.4852C55.0708 28.4852 53.9703 28.2566 53.0533 27.7994C52.1362 27.3422 51.4713 26.6563 51.0586 25.7647L53.8557 24.7588C54.0162 25.2161 54.3143 25.559 54.7728 25.7647L54.7957 25.7876Z" fill="#FFFCF7"/>
<path d="M63.6004 17.5347V14.8599H66.9019V17.5347H69.2404V20.0494H66.9019V24.3702C66.9019 24.8732 66.9936 25.1932 67.1999 25.3532C67.3833 25.5133 67.7502 25.5819 68.3004 25.5819H69.2634V28.2566H67.177C66.5121 28.2566 65.9619 28.2109 65.5033 28.1423C65.0677 28.0737 64.7009 27.9137 64.4028 27.708C64.1277 27.5022 63.9213 27.1821 63.8067 26.7935C63.6921 26.4049 63.6233 25.8791 63.6233 25.2389V20.0494H61.835V17.5347H63.6233H63.6004Z" fill="#FFFCF7"/>
<path d="M69.9971 24.2788V21.4897H77.0586V24.2788H69.9971Z" fill="#FFFCF7"/>
<path d="M78.25 13.8083H81.6661V19.3178H87.6272V13.8083H91.0434V28.2338H87.6272V22.3127H81.6661V28.2338H78.25V13.8083Z" fill="#FFFCF7"/>
<path d="M92.3277 20.5066C92.6257 19.8208 93.0384 19.2264 93.5658 18.7463C94.0931 18.2662 94.7121 17.8776 95.3999 17.6261C96.1107 17.3746 96.8443 17.2375 97.6239 17.2375C98.4951 17.2375 99.2975 17.3975 100.008 17.7176C100.719 18.0376 101.315 18.4948 101.797 19.0664C102.278 19.6379 102.622 20.3237 102.874 21.101C103.103 21.9012 103.195 22.7699 103.149 23.7072H95.1936C95.2165 24.073 95.3082 24.4159 95.4687 24.6903C95.6292 24.9646 95.8126 25.2161 96.0419 25.399C96.2712 25.5819 96.5234 25.719 96.7985 25.8105C97.0965 25.9019 97.3946 25.9476 97.6926 25.9476C98.197 25.9476 98.6327 25.8791 98.9995 25.7419C99.3663 25.6047 99.6415 25.399 99.8478 25.1475L102.461 26.1077C101.888 26.9307 101.201 27.5251 100.352 27.9137C99.5039 28.3024 98.6327 28.5081 97.7614 28.5081C96.8902 28.5081 96.1107 28.3709 95.377 28.1195C94.6433 27.868 94.0243 27.4794 93.5199 26.9993C92.9926 26.5192 92.6028 25.9019 92.3048 25.2161C92.0067 24.5074 91.8691 23.7072 91.8691 22.8385C91.8691 21.9698 92.0296 21.2153 92.3277 20.5295V20.5066ZM100.1 21.764C100.077 21.0782 99.8249 20.5524 99.3893 20.1866C98.9307 19.8437 98.4034 19.6608 97.7385 19.6608C97.0736 19.6608 96.5692 19.8208 96.0877 20.1637C95.6063 20.5066 95.3082 21.0324 95.2165 21.764H100.123H100.1ZM99.0912 12.6881C99.2288 12.5966 99.4351 12.528 99.6873 12.528C100.031 12.528 100.329 12.6423 100.559 12.8709C100.788 13.0996 100.902 13.3968 100.902 13.7397C100.902 14.1055 100.765 14.4255 100.49 14.6541L98.8619 15.8429H96.3858L98.7932 12.9167C98.7932 12.9167 98.9307 12.7795 99.0683 12.6881H99.0912Z" fill="#FFFCF7"/>
<path d="M107.254 19.5007C107.575 18.632 108.033 18.0376 108.629 17.6947C109.203 17.3518 109.913 17.1917 110.739 17.2375V20.5295C110.555 20.5066 110.418 20.4838 110.28 20.4838C110.143 20.4838 110.005 20.4838 109.845 20.4838C109.042 20.4838 108.423 20.6667 108.01 21.0324C107.598 21.3982 107.391 22.0155 107.391 22.8842V28.2795H104.09V17.5575H106.681L107.254 19.5236V19.5007Z" fill="#FFFCF7"/>
<path d="M111.037 23.7072C111.403 23.25 111.885 22.8842 112.504 22.587C113.123 22.2898 113.88 22.0612 114.751 21.9012C115.622 21.7411 116.585 21.6268 117.617 21.5354V21.1239C117.617 20.5066 117.456 20.0723 117.158 19.8208C116.837 19.5693 116.402 19.4321 115.828 19.4321C115.37 19.4321 114.957 19.5465 114.636 19.7522C114.315 19.958 114.086 20.278 113.971 20.7124L111.197 19.7293C111.564 18.9978 112.16 18.4034 112.985 17.9462C113.834 17.4661 114.865 17.2375 116.103 17.2375C116.86 17.2375 117.548 17.306 118.144 17.4661C118.74 17.6261 119.245 17.8776 119.634 18.2434C120.047 18.6091 120.345 19.0664 120.551 19.6379C120.758 20.2094 120.872 20.8953 120.872 21.6954V24.0501C120.872 24.3931 120.872 24.7588 120.895 25.1703C120.895 25.559 120.941 25.9476 120.964 26.3363C120.987 26.7021 121.033 27.0678 121.079 27.4108C121.125 27.7537 121.17 28.028 121.239 28.2566H118.19L117.8 26.9535C117.387 27.5251 116.883 27.9137 116.287 28.1423C115.691 28.3709 114.98 28.5081 114.201 28.5081C113.696 28.5081 113.215 28.4395 112.779 28.3024C112.321 28.1652 111.931 27.9594 111.587 27.6851C111.243 27.4108 110.991 27.0907 110.784 26.7021C110.601 26.3134 110.486 25.8791 110.486 25.3761C110.486 24.736 110.67 24.1873 111.014 23.7301L111.037 23.7072ZM116.333 26.1534C116.608 26.0848 116.837 25.9476 117.044 25.7647C117.25 25.5819 117.41 25.3304 117.525 24.9875C117.64 24.6674 117.708 24.2559 117.708 23.7758V23.5243C117.135 23.5701 116.631 23.6158 116.149 23.7072C115.691 23.7758 115.278 23.8673 114.957 24.0044C114.636 24.1187 114.361 24.2788 114.178 24.4616C113.994 24.6445 113.902 24.8732 113.902 25.1703C113.902 25.5133 114.04 25.7876 114.338 25.9934C114.636 26.1991 114.98 26.3134 115.416 26.3134C115.737 26.3134 116.058 26.2677 116.333 26.1991V26.1534Z" fill="#FFFCF7"/>
<path d="M125.71 17.5347V23.1586C125.71 23.5472 125.71 23.913 125.733 24.2559C125.733 24.5988 125.824 24.896 125.916 25.1475C126.031 25.399 126.191 25.6047 126.398 25.7419C126.604 25.9019 126.925 25.9705 127.338 25.9705C128.025 25.9705 128.53 25.7647 128.805 25.3304C129.103 24.896 129.241 24.1873 129.241 23.1814V17.5347H132.565V28.2566H129.699L129.241 26.7478C128.92 27.2736 128.53 27.708 128.071 28.028C127.613 28.3481 126.948 28.5081 126.122 28.5081C125.412 28.5081 124.816 28.4167 124.334 28.2109C123.853 28.0052 123.463 27.708 123.188 27.3422C122.913 26.9535 122.706 26.4963 122.592 25.9248C122.477 25.3532 122.408 24.7131 122.408 23.9816V17.5347H125.71Z" fill="#FFFCF7"/>
<path d="M137.403 24.3702C137.403 24.8732 137.495 25.1932 137.701 25.3532C137.907 25.5133 138.274 25.5819 138.825 25.5819H139.765V28.2566H137.655C136.99 28.2566 136.44 28.2109 135.982 28.1423C135.523 28.0737 135.179 27.9137 134.881 27.708C134.606 27.5022 134.4 27.1822 134.285 26.7935C134.17 26.4049 134.102 25.8791 134.102 25.2389V13.8311H137.403V24.3702Z" fill="#FFFCF7"/>
<path d="M141.231 17.5347V14.8599H144.533V17.5347H146.871V20.0494H144.533V24.3702C144.533 24.8732 144.624 25.1932 144.831 25.3532C145.014 25.5133 145.381 25.5819 145.931 25.5819H146.894V28.2566H144.808C144.143 28.2566 143.593 28.2109 143.134 28.1423C142.676 28.0737 142.332 27.9137 142.034 27.708C141.759 27.5022 141.552 27.1821 141.438 26.7935C141.323 26.4049 141.254 25.8791 141.254 25.2389V20.0494H139.466V17.5347H141.254H141.231Z" fill="#FFFCF7"/>
</g>
<defs>
<clipPath id="clip0_2248_4776">
<rect width="159" height="62" fill="white"/>
</clipPath>
</defs>
</svg>
