<svg width="1600" height="523" viewBox="0 0 1600 523" fill="none" xmlns="http://www.w3.org/2000/svg">
<g clip-path="url(#clip0_662_4898)">
<g clip-path="url(#clip1_662_4898)">
<path d="M1891.18 875.924C1894.92 932.37 1898.66 1033.35 1898.22 1091.12C1898.22 1104.57 1890.74 1116.7 1877.31 1116.7H-171.648C-184.195 1116.7 -194.101 1105.89 -193 1093.33C-165.925 813.526 -216.334 415.322 62.7889 223.275C121.343 182.926 238.011 130.67 297.006 200.785C417.416 340.576 490.278 303.974 556.977 260.097C624.557 216.22 678.268 173.224 785.911 264.727C838.742 310.369 890.692 291.186 941.982 253.703C1001.2 209.825 1057.77 142.135 1117.2 105.754C1281.42 2.56522 1161.89 182.485 1383.56 26.3781C1438.37 -11.7666 1513.88 -2.28555 1574.19 15.7946C1881.49 108.621 1883.91 765.68 1891.18 876.145V875.924Z" fill="#EAF3D2"/>
</g>
</g>
<defs>
<clipPath id="clip0_662_4898">
<rect width="1600" height="523" fill="white"/>
</clipPath>
<clipPath id="clip1_662_4898">
<rect width="2093" height="523" fill="white" transform="translate(-194)"/>
</clipPath>
</defs>
</svg>
