<svg xmlns="http://www.w3.org/2000/svg" width="448" height="127" fill="none"><path fill="#9BC724" d="M194 67.097c.119-18.086 4.849-35.843 10.75-52.84 1.429-3.758 2.894-7.978 4.408-11.68a2.06 2.06 0 0 1 1.787-1.3c9.642-.6 19.306-.991 28.962-1.145 9.65-.16 19.292-.133 28.914-.126.799 0 1.492.454 1.829 1.125 16.117 31.597 18.388 64.388 6.86 97.884l-1.527-2.06c3.118 0 6.25.118 9.376.433 9.334.83 18.339 4.086 26.986 7.286l-1.611 1.704c-.785-1.893-1.017-3.961-.813-5.931.609-5.847 4.828-11.428 10.693-12.777 7.435-1.627 14.716 1.677 21.829 3.277.007 0 42.088 11.198 42.095 11.198.147.042.252.16.267.307L388 127l-3.931-24.443c2.586 1.257-43.02-10.325-42.06-9.906-9.391-1.963-22.558-7.796-28.241 3.29-1.528 2.941-1.941 6.525-.673 9.431.463.978-.61 2.117-1.612 1.705-11.499-4.178-23.153-7.482-35.472-6.965a1.577 1.577 0 0 1-1.605-1.544c10.666-33.797 8.689-63.898-7.407-95.62l1.829 1.124c-19.236-.028-38.409.175-57.603 1.341l1.808-1.3c-1.801 4.381-4.261 10.864-5.95 15.37C201.365 34.956 196.53 50.758 194 67.096"/></svg>