<svg width="448" height="97" viewBox="0 0 448 97" fill="none" xmlns="http://www.w3.org/2000/svg">
<g clip-path="url(#clip0_678_8719)">
<path d="M25 96.51C93.03 71.58 167.22 72.86 238.42 79.05C253.53 80.18 269.52 80.74 282.72 72.58C300.03 61.66 306.94 41.37 320.96 26.97C334.32 12.36 352.8 9.78 371.49 9.38C389.15 8.81 408.07 9.84 423.55 0C397.16 18.79 360.71 4.48 333.64 21.24C313.59 34.45 307.39 60.43 288.2 74.69C273.93 85.34 254.88 85.4 238.04 84.03C167.01 77.66 94.01 75.51 25 96.51Z" fill="#F4D06F"/>
</g>
<defs>
<clipPath id="clip0_678_8719">
<rect width="448" height="96.51" fill="white"/>
</clipPath>
</defs>
</svg>
