<svg xmlns="http://www.w3.org/2000/svg" width="448" height="54" fill="none"><g clip-path="url(#a)"><path fill="#E47200" d="M34.44 49.208c-.2-12.24-.36-30.93-.44-43.11v-1.17c.02-1.64 1.56-3.07 3.16-3.03l2.27-.1 4.53-.2c10.8-.43 28.92-1.18 39.67-1.57 1.93-.24 3.9 1.1 4.3 3.05 2.85 15.79 3.99 31.89 3.19 47.94l-2.53-2.25 40.78-7.42c45.04-7.95 93.06-16.74 138.02-23.98 2.77-.23 5.57.07 8.28.63 1.98.35 5.71 1.06 7.64 1.41 6.76 1.26 23.65 4.46 30.55 5.75l10.18 1.92c2.13.32 7.54 1.72 9.84 1.53 7.86-.83 17.78-2.16 25.66-3.01 3.6-.38 7.19.51 10.57 1.66 14.83 4.6 29.74 9.15 44.53 13.88-16.69-4.19-33.27-9.11-49.98-13.16-2.74-.55-7.18.3-9.96.72l-10.25 1.51c-2.01.28-5.83.87-7.69 1.13-2.6.54-5.6.47-8.2-.1-9.03-1.47-26.53-4.44-35.77-5.98l-20.34-3.43c-2.37-.29-4.72-.21-7.07.24-57.13 10.47-118.62 21.23-176.06 30.96-1.34.25-2.61-.89-2.51-2.25.9-14.94.32-30-1.93-44.82l-.33-2.15a.47.47 0 0 0-.3-.36c-3.33-.08-18.56.22-22.08.22l-18.15.18-4.54.03-2.27.01c-.76-.05-1.27.46-1.35 1.14-.47 12.62-.87 31.51-1.42 44.18"/></g><defs><clipPath id="a"><path fill="#fff" d="M0 0h448v53.6H0z"/></clipPath></defs></svg>