<svg width="81" height="43" viewBox="0 0 81 43" fill="none" xmlns="http://www.w3.org/2000/svg">
<g clip-path="url(#clip0_669_8722)">
<path d="M2.78047 26.11H1.96047V28.96H0.980469V21.96H2.83047C3.82047 21.96 4.80047 22.55 4.80047 24C4.80047 25.45 3.84047 26.11 2.78047 26.11ZM2.76047 22.92H1.96047V25.16H2.79047C3.36047 25.16 3.79047 24.79 3.79047 24.03C3.79047 23.27 3.32047 22.92 2.76047 22.92Z" fill="#037793"/>
<path d="M7.88109 28.9601V28.6001C7.61109 28.9101 7.27109 29.0701 6.80109 29.0701C6.03109 29.0701 5.37109 28.4901 5.37109 27.3101C5.37109 26.1301 6.08109 25.5901 7.08109 25.5901C7.40109 25.5901 7.67109 25.6601 7.88109 25.7601V25.2501C7.88109 24.7401 7.71109 24.5001 7.20109 24.5001C6.87109 24.5001 6.57109 24.5901 6.17109 24.8301L5.76109 24.1001C6.24109 23.7801 6.79109 23.6001 7.27109 23.6001C8.40109 23.6001 8.84109 24.0001 8.84109 25.1701V28.9601H7.88109ZM7.88109 26.6601C7.65109 26.5201 7.45109 26.4601 7.09109 26.4601C6.64109 26.4601 6.33109 26.7201 6.33109 27.2901C6.33109 27.9101 6.58109 28.2001 6.99109 28.2001C7.40109 28.2001 7.70109 28.0201 7.88109 27.7101V26.6601Z" fill="#037793"/>
<path d="M11.1894 30.81H10.2494L10.8194 28.96L9.35938 23.71H10.3794L10.9894 26.2C11.0894 26.6 11.2494 27.36 11.2994 27.63C11.3494 27.36 11.5194 26.59 11.6194 26.19L12.2394 23.71H13.2594L11.1894 30.81Z" fill="#037793"/>
<path d="M45.8119 4.39014V4.51014H45.7019V4.63014H45.5819C45.5219 4.71014 45.4619 4.78014 45.4119 4.86014H45.3519V4.98014C45.3519 4.98014 45.2719 5.02014 45.2319 5.04014V5.16014H45.1719C45.0919 5.26014 45.0419 5.30014 45.0019 5.45014H44.8819C44.8119 5.76014 44.5119 5.96014 44.3019 6.15014C44.2819 6.19014 44.2619 6.23014 44.2419 6.27014H44.1219V6.39014C44.0619 6.41014 44.0019 6.43014 43.9519 6.45014V6.51014C43.8919 6.53014 43.8319 6.55014 43.7719 6.57014C43.7519 6.61014 43.7319 6.65014 43.7119 6.69014H43.5919C43.5519 6.75014 43.5119 6.81014 43.4819 6.86014H43.3119C43.3119 6.86014 43.2719 6.94014 43.2519 6.98014H43.0719C43.0719 6.98014 43.0319 7.06014 43.0119 7.10014C42.9119 7.12014 42.8219 7.14014 42.7219 7.16014C42.7019 7.20014 42.6819 7.24014 42.6619 7.28014C42.5619 7.30014 42.4719 7.32014 42.3719 7.34014V7.40014H42.2619V7.46014H42.0319V7.52014H41.9119V7.58014C41.7419 7.62014 41.5619 7.66014 41.3919 7.70014V7.76014C41.2719 7.80014 41.1619 7.84014 41.0419 7.87014V7.93014H40.8119V7.99014H40.6919V8.05014H40.4619V8.11014H40.2919V8.17014H39.9419V8.23014H39.7719V8.29014H39.3619V8.35014H39.0119V8.41014H38.0219V8.47014H37.1519V8.53014H36.3419V8.47014H35.9919V8.41014H35.5819V8.35014H35.4619V8.29014H35.1119V8.23014H34.9919V8.17014H34.8219V8.11014C34.7419 8.09014 34.6719 8.07014 34.5919 8.05014V7.99014C34.5119 7.97014 34.4419 7.95014 34.3619 7.93014V7.87014C34.3019 7.85014 34.2519 7.83014 34.1919 7.81014C34.1719 7.77014 34.1519 7.73014 34.1319 7.69014C34.0119 7.65014 33.9019 7.61014 33.7819 7.57014V7.51014C33.7219 7.49014 33.6619 7.47014 33.6119 7.45014C33.5919 7.41014 33.5719 7.37014 33.5519 7.33014H33.4319C33.3719 7.25014 33.3119 7.17014 33.2619 7.10014H33.1419C33.1419 7.10014 33.1019 7.02014 33.0819 6.98014H32.9619C32.9619 6.98014 32.9219 6.90014 32.9019 6.86014C32.8219 6.84014 32.7519 6.82014 32.6719 6.80014V6.74014C32.5019 6.76014 32.3219 6.78014 32.1519 6.80014C32.0619 6.94014 31.9219 6.93014 31.8019 7.03014C31.6719 7.18014 31.5319 7.34014 31.3919 7.49014H31.2719C31.2719 7.49014 31.2319 7.57014 31.2119 7.61014H31.0919C31.0519 7.67014 31.0119 7.73014 30.9719 7.79014H30.8519V7.85014C30.7519 7.87014 30.6619 7.89014 30.5619 7.91014V8.03014C30.4319 8.05014 30.4119 8.03014 30.3319 8.09014V8.15014H30.1619C30.1619 8.15014 30.1219 8.23014 30.1019 8.27014H29.9319C29.9319 8.27014 29.8919 8.35014 29.8719 8.39014H29.6419C29.6419 8.39014 29.6019 8.47014 29.5819 8.51014H29.4119V8.57014H29.2919V8.63014H29.0619C29.0619 8.63014 29.0219 8.71014 29.0019 8.75014H28.8319C28.8319 8.75014 28.7919 8.83014 28.7719 8.87014C28.6019 8.91014 28.4219 8.95014 28.2519 8.99014C28.2319 9.03014 28.2119 9.07014 28.1919 9.11014H27.9619V9.17014H27.8419V9.23014H27.4919C27.3019 9.28014 26.5519 9.36014 26.2719 9.29014V9.23014H25.6319V9.17014H25.4019V9.11014H25.0519C25.0519 9.11014 25.0119 9.03014 24.9919 8.99014C24.8119 8.95014 24.6419 8.91014 24.4719 8.87014C24.4519 8.83014 24.4319 8.79014 24.4119 8.75014H24.2919V8.69014H24.1719L24.0519 8.57014H23.9319C23.8919 8.51014 23.8519 8.45014 23.8219 8.40014H23.6419C23.6419 8.40014 23.6019 8.32014 23.5819 8.28014H23.4619C23.4619 8.28014 23.4219 8.20014 23.4019 8.16014H23.2919C23.2319 8.08014 23.1719 8.01014 23.1119 7.93014H22.9919C22.9919 7.93014 22.9519 7.85014 22.9319 7.81014C22.8719 7.77014 22.8219 7.73014 22.7619 7.69014V7.63014H22.6419C22.4919 7.52014 22.5419 7.41014 22.2919 7.34014V7.22014C21.9319 7.12014 22.0419 6.88014 21.4819 6.87014V6.93014C21.3819 6.95014 21.2919 6.97014 21.1919 6.99014C21.1719 7.03014 21.1519 7.07014 21.1319 7.11014H20.9019V7.17014H20.7819V7.23014H20.6119C20.6119 7.23014 20.5719 7.31014 20.5519 7.35014H20.3219C20.3219 7.35014 20.2819 7.43014 20.2619 7.47014C20.0819 7.51014 19.9119 7.55014 19.7419 7.59014C19.7219 7.63014 19.7019 7.67014 19.6819 7.71014H19.3919C19.3919 7.71014 19.3519 7.79014 19.3319 7.83014H19.1619C19.1619 7.83014 19.1219 7.91014 19.1019 7.95014H18.8719V8.01014H18.7519V8.07014H18.4619C18.4619 8.07014 18.4219 8.15014 18.4019 8.19014H18.2319V8.25014H18.1119V8.31014C18.0119 8.33014 17.9219 8.35014 17.8219 8.37014V8.43014C17.6519 8.47014 17.4719 8.51014 17.3019 8.55014C17.2819 8.59014 17.2619 8.63014 17.2419 8.67014H17.0119C17.0119 8.67014 16.9719 8.75014 16.9519 8.79014H16.7219V8.85014H16.6119V8.91014H16.3819V8.97014H16.2619V9.03014H16.0319V9.09014H15.9119V9.15014H15.6819V9.21014H15.5619V9.27014C15.4619 9.29014 15.3719 9.31014 15.2719 9.33014V9.39014H15.0419V9.45014H14.9219V9.51014H14.6919V9.57014H14.5719V9.63014H14.3419V9.69014H14.2219V9.75014H13.9919V9.81014H13.8819V9.87014H13.6519V9.93014H13.5319V9.99014H13.3019V10.0501H13.1819V10.1101H12.9519V10.1701C12.8519 10.1901 12.7619 10.2101 12.6619 10.2301V10.2901H12.5419V10.3501H12.3119C12.3119 10.3501 12.2719 10.4301 12.2519 10.4601H11.9619C11.9619 10.4601 11.9219 10.5401 11.9019 10.5801H11.7319V10.6401H11.6119V10.7001H11.3819V10.7601H11.2619V10.8201H11.0319C11.0319 10.8201 10.9919 10.9001 10.9719 10.9401C10.7819 10.9801 10.5819 11.0201 10.3919 11.0601V11.1201H10.2819V11.1801C10.0519 11.2201 9.82187 11.2601 9.58187 11.3001V11.3601H9.46187V11.4201H9.17188C9.17188 11.4201 9.13187 11.5001 9.11187 11.5401H8.88188V11.6001H8.76188V11.6601H8.53187V11.7201H8.41187V11.7801H8.18188V11.8401H8.07187V11.9001H7.84188V11.9601H7.67188V12.0201C7.51188 12.0401 7.36187 12.0601 7.20187 12.0801V12.1401H6.85187V12.2001H6.73187V12.2601H6.44187C6.44187 12.2601 6.40188 12.3401 6.38188 12.3801H6.15188V12.4401H6.03188V12.5001H5.80188V12.5601H5.63188V12.6201H5.46187V12.6801H5.29187V12.7401H5.00187V12.8001H4.88188V12.8601H4.53188V12.9201H4.41187V12.9801H4.06187V13.0401H3.83187V13.1001H3.60187V13.1601C3.39187 13.1801 3.17188 13.2001 2.96188 13.2201V13.2801H2.67188V13.3401C2.50188 13.3601 2.32188 13.3801 2.15188 13.4001V13.4601H1.69188C1.69188 13.4601 1.64188 13.5501 1.52188 13.5201V13.4601C1.41188 13.4201 1.37188 13.4301 1.29188 13.4001C1.22188 13.2401 1.18187 13.1501 1.17188 12.8801C1.23187 12.8501 1.27188 12.7701 1.29188 12.7601C1.42188 12.6901 1.62188 12.7101 1.75188 12.6401V12.5801H1.87188V12.5201H2.04188V12.4601H2.16188V12.4001H2.33187V12.3401H2.45188V12.2801H2.68188C2.68188 12.2801 2.72188 12.2001 2.74188 12.1601H2.91188V12.1001H3.03188V12.0401C3.20188 12.0001 3.38188 11.9601 3.55188 11.9201C3.57188 11.8801 3.59188 11.8401 3.61188 11.8101H3.78188C3.78188 11.8101 3.82188 11.7301 3.84188 11.6901H4.01188V11.6301H4.13188V11.5701C4.21188 11.5501 4.28188 11.5301 4.36188 11.5101V11.4501H4.53188C4.53188 11.4501 4.57188 11.3701 4.59188 11.3301H4.76188V11.2701H4.88188V11.2101C4.96188 11.1901 5.03188 11.1701 5.11188 11.1501V11.0901H5.28188V11.0301H5.40188V10.9701H5.57188V10.9101H5.69187V10.8501C5.77187 10.8301 5.84188 10.8101 5.92188 10.7901V10.7301H6.09188V10.6701H6.21187V10.6101C6.31187 10.5901 6.40187 10.5701 6.50187 10.5501V10.4901H6.67188V10.4301H6.79187V10.3701H6.96187V10.3101H7.07188V10.2501H7.24187V10.1901H7.36188V10.1301C7.46188 10.1101 7.55188 10.0901 7.65188 10.0701V10.0101H7.82188V9.95014H7.94187V9.89014H8.17188C8.17188 9.89014 8.21187 9.81014 8.23187 9.77014H8.40187V9.71014H8.52188V9.65014C8.60188 9.63014 8.67187 9.61014 8.75187 9.59014V9.53014C9.10187 9.41014 9.45187 9.30014 9.79187 9.18014C9.81187 9.14014 9.83188 9.10014 9.85188 9.06014H10.0819C10.0819 9.06014 10.1219 8.98014 10.1419 8.94014H10.3119V8.88014H10.4319V8.82014H10.6019C10.6019 8.82014 10.6419 8.74014 10.6619 8.70014H10.8419V8.64014C10.9419 8.62014 11.0319 8.60014 11.1319 8.58014V8.52014H11.2519V8.46014H11.4319C11.4319 8.46014 11.4719 8.38014 11.4919 8.34014H11.6719V8.28014H11.7919V8.22014H11.9619V8.16014C12.0419 8.14014 12.1219 8.12014 12.1919 8.10014V8.04014H12.3119V7.98014H12.4819V7.92014H12.6019V7.86014H12.7219V7.80014H12.8319V7.74014H13.0619C13.0619 7.74014 13.1019 7.66014 13.1219 7.62014H13.2919V7.56014H13.4119V7.50014H13.5819V7.44014H13.7019V7.38014H13.8219V7.32014H13.9419V7.26014H14.1219V7.20014C14.2219 7.18014 14.3119 7.16014 14.4119 7.14014V7.08014C14.5319 7.06014 14.6419 7.04014 14.7619 7.02014V6.90014C14.9319 6.84014 15.1119 6.78014 15.2819 6.73014V6.67014H15.4519V6.61014H15.5719V6.55014C15.6519 6.53014 15.7219 6.51014 15.8019 6.49014V6.43014H15.9719V6.37014C16.0919 6.33014 16.2019 6.29014 16.3219 6.25014V6.19014H16.5519C16.5519 6.19014 16.5919 6.11014 16.6119 6.07014H16.7819C16.7819 6.07014 16.8219 5.99014 16.8419 5.95014C17.1919 5.83014 17.5419 5.72014 17.8819 5.60014V5.54014H18.0019V5.48014H18.1719C18.1719 5.48014 18.2119 5.40014 18.2319 5.36014H18.4619C18.4619 5.36014 18.5019 5.28014 18.5219 5.24014H18.6419V5.18014H18.7619V5.12014H18.9319V5.06014H19.0419V5.00014H19.2219C19.2219 5.00014 19.2619 4.92014 19.2819 4.88014H19.5119V4.82014H19.6319V4.76014C19.7119 4.74014 19.7919 4.72014 19.8619 4.70014V4.64014H20.0919V4.58014H20.2119V4.52014H20.5019V4.46014C20.6619 4.41014 21.4919 4.32014 21.7219 4.40014V4.46014H21.8419V4.52014C22.0419 4.56014 22.2319 4.60014 22.4219 4.64014C22.4419 4.68014 22.4619 4.72014 22.4819 4.75014C22.6019 4.79014 22.7119 4.83014 22.8319 4.87014C22.8519 4.91014 22.8719 4.95014 22.8919 4.99014H23.0619C23.0619 4.99014 23.1019 5.07014 23.1219 5.11014H23.2419C23.2419 5.11014 23.2819 5.19014 23.3019 5.23014H23.4119C23.5119 5.35014 23.6019 5.46014 23.7019 5.58014H23.8219C23.9219 5.70014 24.0119 5.81014 24.1119 5.93014H24.2319C24.3119 6.03014 24.3919 6.12014 24.4619 6.22014H24.5819C24.6419 6.30014 24.7019 6.37014 24.7519 6.45014C24.8319 6.47014 24.9019 6.49014 24.9819 6.51014C25.0019 6.55014 25.0219 6.59014 25.0419 6.63014H25.2119V6.69014H25.3319V6.75014H25.6819V6.81014H25.8019V6.87014C26.2119 6.89014 26.6119 6.91014 27.0219 6.93014V6.87014H28.0719V6.81014H28.3019V6.75014H28.5319V6.69014C28.6519 6.65014 28.7619 6.61014 28.8819 6.57014V6.51014H29.0019V6.45014C29.1019 6.43014 29.1919 6.41014 29.2919 6.39014C29.3119 6.35014 29.3319 6.31014 29.3519 6.27014H29.5219V6.21014H29.6419C29.6419 6.21014 29.6819 6.13014 29.7019 6.09014C29.8019 6.07014 29.8919 6.05014 29.9919 6.03014C30.0119 5.99014 30.0319 5.95014 30.0519 5.91014H30.2219V5.85014H30.3419V5.79014H30.5119C30.5119 5.79014 30.5519 5.71014 30.5719 5.67014H30.7419V5.61014H30.8619V5.55014H31.0319V5.49014C31.1119 5.47014 31.1919 5.45014 31.2619 5.43014V5.37014C31.3819 5.35014 31.4919 5.33014 31.6119 5.31014V5.25014H31.7319V5.19014H32.0219V5.13014H32.1919V5.07014H33.0019V5.13014H33.2319V5.19014H33.5219C33.5219 5.19014 33.5619 5.27014 33.5819 5.31014H33.7519C33.7519 5.31014 33.7919 5.39014 33.8119 5.43014H33.9319C34.0719 5.51014 34.1619 5.62014 34.3319 5.66014V5.78014C34.4819 5.82014 34.6419 5.92014 34.7419 6.01014C34.7619 6.05014 34.7819 6.09014 34.8019 6.13014H34.9219C34.9219 6.13014 34.9619 6.21014 34.9819 6.25014H35.1019C35.1019 6.25014 35.1419 6.33014 35.1619 6.37014C35.2419 6.39014 35.3219 6.41014 35.3919 6.43014V6.49014C35.4719 6.51014 35.5519 6.53014 35.6219 6.55014V6.61014C35.8019 6.65014 35.9719 6.69014 36.1419 6.73014V6.79014C36.3919 6.81014 36.6419 6.83014 36.8919 6.85014V6.91014C37.1619 6.98014 38.0219 6.81014 38.1719 6.74014C38.1919 6.70014 38.2119 6.66014 38.2319 6.62014H38.4119V6.56014H38.5319V6.50014H38.6519V6.44014H38.7719V6.38014H38.8919V6.32014H39.0119V6.26014C39.1319 6.22014 39.2419 6.18014 39.3619 6.14014C39.3819 6.10014 39.4019 6.06014 39.4219 6.02014H39.5419C39.5419 6.02014 39.5819 5.94014 39.6019 5.90014H39.7219C39.7219 5.90014 39.7619 5.82014 39.7819 5.78014H39.9019C39.9019 5.78014 39.9419 5.70014 39.9619 5.66014H40.0819C40.0819 5.66014 40.1219 5.58014 40.1419 5.54014H40.2619V5.48014C40.3219 5.46014 40.3819 5.44014 40.4419 5.42014C40.4619 5.38014 40.4819 5.34014 40.5019 5.30014H40.6219C40.6219 5.30014 40.6619 5.22014 40.6819 5.18014H40.8019C40.8019 5.18014 40.8419 5.10014 40.8619 5.06014H40.9819C40.9819 5.06014 41.0219 4.98014 41.0419 4.94014H41.1619C41.1619 4.94014 41.2019 4.86014 41.2219 4.82014C41.3019 4.80014 41.3819 4.78014 41.4519 4.76014C41.4719 4.72014 41.4919 4.68014 41.5119 4.64014H41.6219L41.7419 4.52014H41.8619V4.46014H41.9719C41.9719 4.46014 42.0119 4.38014 42.0319 4.34014H42.2019C42.2019 4.34014 42.2419 4.26014 42.2619 4.22014H42.3819C42.3819 4.22014 42.4219 4.14014 42.4419 4.10014H42.5619C42.5619 4.10014 42.6019 4.02014 42.6219 3.98014H42.7419C42.7419 3.98014 42.7819 3.90014 42.8019 3.86014C42.9219 3.82014 43.0319 3.78014 43.1519 3.75014V3.69014C43.2119 3.67014 43.2719 3.65014 43.3319 3.63014C43.3519 3.59014 43.3719 3.55014 43.3919 3.51014C43.5119 3.47014 43.6219 3.43014 43.7419 3.40014C43.7619 3.36014 43.7819 3.32014 43.8019 3.28014C43.9219 3.24014 44.0319 3.20014 44.1519 3.16014C44.1719 3.12014 44.1919 3.08014 44.2119 3.04014H44.3819C44.3819 3.04014 44.4219 2.96014 44.4419 2.92014H44.5619V2.86014H44.6819V2.80014H44.8519C44.8519 2.80014 44.8919 2.72014 44.9119 2.68014C45.2019 2.58014 45.4919 2.48014 45.7819 2.39014C45.9519 2.34014 46.2219 2.42014 46.3019 2.45014H46.6519V2.51014H46.7719V2.57014H46.9419C46.9419 2.57014 46.9819 2.65014 47.0019 2.69014H47.1219C47.1619 2.75014 47.2019 2.81014 47.2419 2.86014H47.3619C47.4019 2.92014 47.4419 2.97014 47.4819 3.03014C47.6519 3.14014 47.8419 3.14014 48.1219 3.15014V3.09014C48.2519 3.07014 48.3919 3.05014 48.5319 3.03014V2.97014H48.6519C48.6519 2.97014 48.6919 2.89014 48.7119 2.86014H48.8319C48.8319 2.86014 48.8719 2.78014 48.8919 2.74014H49.0119C49.0119 2.74014 49.0519 2.66014 49.0719 2.62014C49.1319 2.60014 49.1919 2.58014 49.2419 2.56014C49.3219 2.46014 49.3919 2.37014 49.4719 2.27014H49.5919C49.5919 2.27014 49.6319 2.19014 49.6519 2.15014C49.7319 2.13014 49.8119 2.11014 49.8819 2.09014C49.9019 2.05014 49.9219 2.01014 49.9419 1.97014C50.0519 1.93014 50.1719 1.89014 50.2919 1.86014V1.80014C50.4119 1.76014 50.5219 1.72014 50.6419 1.68014V1.62014H50.8719C50.8719 1.62014 50.9119 1.54014 50.9319 1.50014H51.1619V1.44014H51.3319V1.38014H51.6819C52.5819 1.11014 54.4019 1.15014 55.3919 1.32014V1.38014H55.3319C55.1619 1.57014 54.9819 1.77014 54.8119 1.96014H54.6419V2.02014H54.5219V2.08014H54.2319V2.14014H54.0619V2.20014H53.8919V2.26014H53.7219V2.32014H53.5519V2.38014C53.4119 2.40014 53.2819 2.42014 53.1419 2.44014C53.1219 2.48014 53.1019 2.52014 53.0819 2.56014H52.9019C52.9019 2.56014 52.8619 2.64014 52.8419 2.68014H52.7219V2.74014H52.5519V2.80014H52.4319V2.86014H52.3119C52.2719 2.92014 52.2319 2.97014 52.1919 3.03014C52.1119 3.05014 52.0319 3.07014 51.9619 3.09014C51.9419 3.13014 51.9219 3.17014 51.9019 3.21014C51.8019 3.23014 51.7119 3.25014 51.6119 3.27014C51.5919 3.31014 51.5719 3.35014 51.5519 3.39014H51.3819C51.3819 3.39014 51.3419 3.47014 51.3219 3.50014H51.1519C51.1519 3.50014 51.1119 3.58014 51.0919 3.62014H50.9119C50.9119 3.62014 50.8719 3.70014 50.8519 3.74014C50.7319 3.78014 50.6219 3.82014 50.5019 3.85014C50.4419 3.93014 50.3819 4.01014 50.3319 4.08014H50.2119C50.2119 4.08014 50.1719 4.16014 50.1519 4.20014C50.0919 4.22014 50.0319 4.24014 49.9819 4.26014V4.32014H49.8619C49.8619 4.32014 49.8219 4.40014 49.8019 4.44014H49.6919C49.6919 4.44014 49.6519 4.52014 49.6319 4.56014C49.5519 4.58014 49.4819 4.60014 49.4019 4.62014V4.68014C49.3219 4.70014 49.2519 4.72014 49.1719 4.74014V4.80014H48.9419V4.86014H48.8219V4.92014C48.6819 4.94014 48.5519 4.96014 48.4119 4.98014V5.04014C48.0119 5.16014 47.2819 4.92014 47.0719 4.81014C47.0519 4.77014 47.0319 4.73014 47.0119 4.69014C46.8919 4.65014 46.7819 4.61014 46.6619 4.58014C46.6419 4.54014 46.6219 4.50014 46.6019 4.46014H46.4819C46.3119 4.34014 46.4519 4.27014 46.1319 4.23014C46.0619 4.31014 46.0319 4.32014 45.9019 4.35014" fill="#037793"/>
<path d="M78.8225 8.3302V8.4502H78.6425V8.5102C78.6925 8.5502 78.8025 8.5602 78.7625 8.6802H78.7025C78.5925 8.8002 78.2725 8.8402 78.0125 8.8002V8.7402H77.9525V8.8002H77.5425C77.3425 8.7402 77.1925 8.6802 76.9025 8.6802C76.1525 8.6802 75.4225 8.6802 74.8125 8.5702C74.7225 8.5502 74.3225 8.6902 74.1125 8.6302V8.5702H73.5925V8.5102H73.3025V8.4502H72.7225C72.6025 8.4302 72.4925 8.4102 72.3725 8.3902V8.3302H71.9625V8.2702C71.9025 8.2902 71.8425 8.3102 71.7925 8.3302V8.2702H71.5025V8.2102H71.2125V8.1502H71.0925V8.0902H70.7425V8.0302H70.6225V7.97019C70.4525 7.95019 70.2725 7.9302 70.1025 7.9102V7.85019H69.8725V7.7902C69.7325 7.7702 69.6025 7.7502 69.4625 7.7302V7.6702C69.3325 7.6502 69.1925 7.6302 69.0625 7.6102V7.5502H68.8825V7.4902H68.6525V7.43019H68.5325V7.3702H68.3025V7.31019H68.1825V7.2502H67.8925V7.1902H67.7725V7.1302C67.6025 7.0902 67.4225 7.0502 67.2525 7.0102V6.9502H67.1325V6.89019H66.9625V6.8302H66.8425V6.7702H66.6725V6.7102C66.5725 6.6902 66.4825 6.6702 66.3825 6.6502V6.5902H66.2625V6.5302H66.0825V6.47019C66.0025 6.45019 65.9325 6.4302 65.8525 6.4102V6.35019H65.6825V6.2902C65.6025 6.2702 65.5325 6.2502 65.4525 6.2302V6.1702H65.2825V6.1102C65.2025 6.0902 65.1325 6.0702 65.0525 6.0502V5.9902H64.9325V5.93019H64.7525V5.8702H64.6325V5.81019H64.4625C64.4625 5.81019 64.4225 5.7302 64.4025 5.7002H64.1725C64.1725 5.7002 64.1325 5.6202 64.1125 5.5802H63.9425V5.5202H63.8225V5.4602H63.6525C63.5925 5.3802 63.5325 5.3002 63.4825 5.2302H63.3625V5.1702H63.2425V5.1102H63.0625C63.0625 5.1102 63.0225 5.0302 63.0025 4.9902H62.7725V4.9302H62.6525V4.8702C62.5525 4.8502 62.4625 4.8302 62.3625 4.8102V4.7502H62.1325V4.6902H61.9525V4.6302H61.7825V4.5702H61.6125V4.5102H61.4425V4.4502H61.3225V4.3902C61.1525 4.3502 60.9725 4.3102 60.8025 4.2702V4.2102H60.6925V4.1502H60.4625V4.0902H60.3425V4.0302H60.1125V3.9702C59.9925 3.9502 59.8825 3.9302 59.7625 3.9102V3.8502H59.6425V3.7902H59.4125C59.4125 3.7902 59.3725 3.7102 59.3525 3.6702H59.1225V3.6102C59.0225 3.5902 58.9325 3.5702 58.8325 3.5502V3.4902H58.7125V3.4302H58.5325V3.3702C58.4525 3.3502 58.3825 3.3302 58.3025 3.3102V3.2502H58.1925V3.1902H58.0225V3.1302C57.9425 3.1102 57.8625 3.0902 57.7925 3.0702V3.0102C57.7125 2.9902 57.6425 2.9702 57.5625 2.9502C57.5425 2.9102 57.5225 2.8702 57.5025 2.8302H57.3325C57.3325 2.8302 57.2925 2.7502 57.2725 2.7102H57.1025V2.6502C57.0425 2.6302 56.9825 2.6102 56.9325 2.5902C56.9125 2.5502 56.8925 2.5102 56.8725 2.4802C56.7925 2.4602 56.7225 2.4402 56.6425 2.4202C56.6025 2.3602 56.5625 2.3002 56.5225 2.2502H56.4025V2.1902H56.2825C56.2425 2.1302 56.2025 2.0702 56.1625 2.0202H56.0425V1.9602C55.9825 1.9202 55.9225 1.8802 55.8725 1.8402V1.7202H55.8125C55.8725 1.6402 55.9325 1.5602 55.9825 1.4902C55.8725 1.4202 55.8825 1.4302 55.8625 1.2602C55.9925 1.2102 56.1825 1.2002 56.3825 1.2002C56.5625 1.3502 56.9825 1.2202 57.1925 1.3202C57.2125 1.3602 57.2325 1.4002 57.2525 1.4402H57.4225C57.4225 1.4402 57.4625 1.5202 57.4825 1.5602H57.6625V1.6202H57.7825V1.6802C57.8825 1.7002 57.9725 1.7202 58.0725 1.7402V1.8002H58.2525C58.2525 1.8002 58.2925 1.8802 58.3125 1.9202H58.5425V1.9802H58.6625V2.0402C58.8325 2.0802 59.0125 2.1202 59.1825 2.1602V2.2202H59.3525V2.2802H59.5225V2.3402H59.6925V2.4002H59.8625V2.4602H60.0425V2.5202H60.2725V2.5802H60.3925V2.6402H60.6225V2.7002H60.7425V2.7602H61.0325V2.8202H61.2025V2.8802H61.4325V2.9402H61.5525V3.0002H61.7825V3.0602H61.9025V3.1202H62.1325V3.1802H62.3025V3.2402H62.5325V3.3002H62.6525V3.3602H63.0025V3.4202H63.1225V3.4802H63.3525V3.5402H63.4725V3.6002H63.7625C63.7625 3.6002 63.8025 3.6802 63.8225 3.7202H64.0525V3.7802H64.1725V3.8402H64.4025V3.9002H64.5225V3.9602H64.7525V4.0202H64.9325V4.0802H65.1025V4.1402H65.2725V4.2002H65.4425V4.2602H65.5625V4.3202H65.7925C65.7925 4.3202 65.8325 4.4002 65.8525 4.4402H66.1425V4.5002H66.2625V4.5602H66.4925V4.6202H66.6125V4.6802C66.7325 4.7002 66.8425 4.7202 66.9625 4.7402V4.8002H67.1925V4.8602H67.3125V4.9202C67.6425 5.0002 67.9725 5.0802 68.3025 5.1502V5.2102H68.4225V5.2702H68.6525V5.3302H68.8325V5.39019H69.0025V5.4502C69.1925 5.4902 69.3925 5.5302 69.5825 5.5702V5.6302H69.8125V5.6902H69.9325V5.7502H70.2225V5.81019H70.3425V5.8702H70.6325V5.93019H70.7525V5.9902H70.9825V6.0502H71.1525V6.1102C71.2925 6.1302 71.4225 6.1502 71.5625 6.1702V6.2302H71.7925V6.2902H71.9125V6.35019C72.1425 6.39019 72.3825 6.4302 72.6125 6.4602V6.5202H72.7325V6.5802H73.0225V6.64019H73.1425V6.7002H73.3725V6.7602H73.5425V6.8202H73.7725V6.8802H73.9425V6.9402C74.0825 6.9602 74.2125 6.9802 74.3525 7.0002V7.06019C74.4825 7.08019 74.6225 7.1002 74.7625 7.1202V7.18019H75.0525V7.2402H75.1725V7.3002H75.4625V7.3602H75.5825V7.4202H75.9325V7.4802H76.1125V7.5402H76.3425V7.60019H76.5725V7.6602H76.8625V7.72019H77.0325V7.7802H77.2625V7.8402C77.4025 7.8602 77.5325 7.8802 77.6725 7.9002V7.9602H77.7925V8.0202H77.9625C77.9625 8.0202 78.0025 8.1002 78.0225 8.1402H78.3725V8.2002C78.5325 8.2702 78.6625 8.3402 78.8325 8.3802" fill="#037793"/>
<path d="M64.4428 9.09018C64.6628 9.12018 64.8028 9.20018 64.8528 9.38018C65.1228 9.42018 65.2128 9.51018 65.5528 9.52018V9.61018H65.6728V9.71018H65.5528C65.6128 9.93018 65.6728 10.1602 65.7228 10.3802H65.6028C65.5628 10.4402 65.5028 10.4502 65.4828 10.4802V10.5802H65.4228V10.6702C65.3628 10.7002 65.3128 10.7402 65.2528 10.7702C65.2328 10.8302 65.2128 10.9002 65.1928 10.9602C65.1528 10.9802 65.1128 10.9902 65.0728 11.0102V11.1102C65.0128 11.1402 64.9528 11.1702 64.8928 11.2102V11.2602H64.7228V11.3502H64.5528C64.4828 11.5702 64.2728 11.6202 64.2028 11.8302H64.0928C64.0528 11.9302 64.0128 12.0202 63.9728 12.1202H63.8628C63.8228 12.2102 63.7828 12.3102 63.7428 12.4102H63.6328V12.5102H63.5128C63.4628 12.6802 63.3328 12.7002 63.2828 12.8902H63.1628C63.0828 13.1402 62.8628 13.0702 62.8128 13.3702H62.6928V13.4602H62.5728V13.5602H62.4628C62.4128 13.7502 62.2828 13.7702 62.2328 13.9402H62.1128V14.0402H62.0028V14.1402H61.8828C61.8628 14.2002 61.8428 14.2702 61.8228 14.3302H61.7028C61.6428 14.5202 61.5328 14.4902 61.4128 14.6102H61.3528V14.7102H61.1828V14.8102C61.0128 14.8402 60.9928 14.8602 60.9528 15.0002C60.7328 15.0502 60.7728 15.1402 60.5428 15.1902V15.2802H60.3728C60.3528 15.3402 60.3328 15.4102 60.3128 15.4702C60.0928 15.5202 60.1328 15.6102 59.9028 15.6602V15.7602H59.7928V15.8502H59.6728V15.9502C59.5128 15.9802 59.5428 16.0102 59.3828 16.0402V16.1402H59.2628C59.1628 16.2702 59.0328 16.2502 58.9728 16.4302H58.8528V16.5202H58.7328V16.6202C58.5728 16.6502 58.6028 16.6802 58.4428 16.7102C58.4128 16.8302 58.4128 16.7902 58.3228 16.8502V16.9002H58.2028V16.9502C58.1428 16.9702 58.0828 16.9802 58.0328 17.0002V17.1002H57.9128V17.2002H57.7428V17.3002C57.4928 17.3502 57.4328 17.5202 57.1628 17.5802V17.6802C57.0028 17.7102 57.0328 17.7402 56.8728 17.7802V17.8702H56.7528V17.9702H56.6328V18.0702C56.3828 18.1202 56.3328 18.3002 56.0528 18.3602V18.4502H55.9428V18.5502C55.7828 18.5802 55.8128 18.6102 55.6528 18.6402V18.7402C55.4928 18.7702 55.5228 18.8002 55.3628 18.8302V18.9302H55.2428V19.0302C55.0528 19.0702 55.1228 19.1002 54.8928 19.1202V19.2202H54.7728V19.3202H54.6528V19.4102C54.5928 19.4302 54.5328 19.4402 54.4828 19.4602V19.5102H54.3628C54.3628 19.5102 54.3228 19.5702 54.3028 19.6102C54.1528 19.6302 53.9928 19.6402 53.8428 19.6602V19.4702C53.4328 19.5402 53.3028 19.9102 52.9128 20.0002V20.0902C52.7128 20.1402 52.8028 20.1502 52.6828 20.2302V20.2802H52.5128V20.3802H52.3928V20.4702H52.2228V20.5602C51.9828 20.6102 51.9228 20.7202 51.6428 20.7502V20.8502H51.5228V20.9502H51.4028C51.3428 21.1502 51.1828 21.1902 50.8828 21.1902C50.9128 20.9802 50.9828 20.9602 51.1128 20.8602C51.1328 20.8302 51.1528 20.8002 51.1728 20.7602C51.2328 20.7402 51.2928 20.7302 51.3428 20.7102C51.3628 20.6602 51.3828 20.6202 51.4028 20.5702C51.5828 20.4602 51.6728 20.5102 51.7528 20.2802C51.9128 20.2502 51.8828 20.2202 52.0428 20.1802V20.0902C52.1028 20.0602 52.1528 20.0302 52.2128 20.0002C52.2328 19.9502 52.2528 19.9002 52.2728 19.8602H52.3928C52.4528 19.8002 52.5128 19.7302 52.5628 19.6702C52.6028 19.6502 52.6428 19.6402 52.6828 19.6202C52.8128 19.4802 52.7928 19.3802 53.0328 19.3302C53.0728 19.1702 53.1928 19.0802 53.3828 19.0402V18.9402H53.5028C53.6128 18.8302 53.7928 18.8002 53.9128 18.7002C53.9328 18.6502 53.9528 18.6002 53.9728 18.5602C54.0528 18.5302 54.1228 18.4902 54.2028 18.4602C54.4228 18.2902 54.4928 18.0602 54.8428 17.9802C54.9028 17.7902 55.2428 17.5502 55.4828 17.5002C55.5228 17.3502 55.6428 17.2502 55.8328 17.2202V17.1202H55.9528C56.0328 16.9902 56.2828 16.7802 56.4728 16.7402V16.6502H56.5928C56.6928 16.5502 56.7828 16.4602 56.8828 16.3602H57.0028V16.3102C57.0928 16.2402 57.0828 16.2902 57.1228 16.1702C57.2928 16.1402 57.3128 16.1202 57.3528 15.9802H57.4728C57.5628 15.8402 57.9128 15.5402 58.1128 15.5002C58.1328 15.4402 58.1528 15.3702 58.1728 15.3102H58.2928C58.3528 15.2502 58.4128 15.1802 58.4628 15.1202H58.5828C58.7228 14.9902 58.8528 14.8702 58.9928 14.7402H59.1128C59.1128 14.7402 59.1528 14.6402 59.1728 14.6002H59.2328C59.3328 14.5002 59.3428 14.4502 59.5228 14.4102C59.5728 14.2502 59.9028 13.9702 60.1028 13.9302C60.1728 13.7002 60.3728 13.7302 60.4528 13.5002H60.5728V13.4102H60.6928C60.7428 13.2402 60.9128 13.0902 61.0428 12.9802C61.0828 12.9602 61.1228 12.9502 61.1628 12.9302V12.8302C61.2628 12.7702 61.3528 12.7002 61.4528 12.6402V12.5402C61.4528 12.5402 61.5328 12.5102 61.5628 12.4902V12.4002C61.6428 12.3502 61.7228 12.3002 61.7928 12.2602C61.8128 12.2002 61.8328 12.1302 61.8528 12.0702C61.9328 12.0202 62.0128 11.9702 62.0828 11.9302C62.1028 11.8802 62.1228 11.8402 62.1428 11.7902C62.1828 11.7702 62.2228 11.7602 62.2628 11.7402C62.2828 11.6902 62.3028 11.6402 62.3228 11.6002H62.3828C62.4528 11.5302 62.4628 11.5102 62.5028 11.4102H62.6128C62.6428 11.2802 62.7028 11.2102 62.7828 11.1202H62.8428C62.8628 11.0602 62.8828 10.9902 62.9028 10.9302C62.9628 10.9002 63.0228 10.8702 63.0728 10.8402V10.7402C63.0728 10.7402 63.1528 10.7102 63.1928 10.6902C63.2328 10.5802 63.2728 10.4702 63.3128 10.3602C63.3528 10.3402 63.3928 10.3302 63.4328 10.3102V10.0702C63.4328 9.66018 63.3328 9.16018 63.7228 9.07018C63.8328 8.97018 64.1228 8.93018 64.3628 8.93018C64.3828 8.98018 64.4028 9.03018 64.4228 9.07018C64.4928 9.13018 64.4428 9.07018 64.4828 9.17018" fill="#98C355"/>
<path d="M69.3112 12.48H69.1913C69.1713 12.94 68.7313 13.21 68.6113 13.63H68.4912C68.4612 13.85 68.3213 13.9 68.2613 14.11H68.1413V14.3H68.0212V14.39H67.9013C67.8513 14.59 67.7212 14.67 67.6712 14.87H67.5513V14.96H67.4313C67.3913 15.06 67.3512 15.15 67.3112 15.25H67.1913C67.1513 15.42 67.0913 15.5 66.9013 15.54C66.8813 15.6 66.8612 15.67 66.8412 15.73H66.6712V15.78C66.6112 15.76 66.5513 15.75 66.5013 15.73V15.78C66.3613 15.85 66.2912 15.98 66.2712 16.16H66.1513C66.0813 16.26 66.0213 16.26 65.9813 16.4H65.8613V16.49H65.7513C65.7013 16.65 65.6313 16.61 65.5813 16.78H65.4613V16.88H65.3412C65.2812 17.09 65.0612 17.15 64.9912 17.36C64.8212 17.39 64.8013 17.41 64.7613 17.55H64.6413V17.65H64.5212C64.4712 17.82 64.3413 17.86 64.2913 18.03H64.1712V18.13H64.0612C64.0612 18.13 63.9512 18.22 63.9412 18.22C63.9212 18.25 63.9013 18.38 63.8813 18.41H63.7013V18.51C63.5313 18.54 63.5113 18.56 63.4713 18.7C63.2613 18.74 63.2412 18.85 63.0112 18.89V18.99C62.9312 19.01 62.8513 19.02 62.7812 19.04V18.85C62.8813 18.8 62.9713 18.76 63.0713 18.71V18.52H63.1313V18.42H63.1912V18.33C63.2512 18.3 63.3113 18.27 63.3613 18.23C63.4013 18.14 63.4413 18.04 63.4813 17.94C63.5413 17.91 63.6013 17.88 63.6513 17.84V17.75C63.7113 17.72 63.7713 17.69 63.8213 17.65V17.55C63.8213 17.55 63.9012 17.52 63.9412 17.5C63.9612 17.45 63.9813 17.4 64.0013 17.36H64.0612C64.1312 17.29 64.1412 17.28 64.1712 17.17H64.2913C64.3213 16.98 64.4113 16.97 64.4613 16.79H64.5813C64.6213 16.63 64.7113 16.57 64.7513 16.41H64.8713C64.8913 16.35 64.9113 16.28 64.9313 16.22H65.0513C65.0913 16.12 65.1312 16.03 65.1712 15.93C65.2312 15.9 65.2912 15.87 65.3412 15.83V15.74C65.3412 15.74 65.4213 15.71 65.4613 15.69V15.59C65.4613 15.59 65.5413 15.56 65.5813 15.54C65.6013 15.48 65.6213 15.41 65.6413 15.35C65.7013 15.32 65.7612 15.29 65.8112 15.25C65.8512 15.16 65.8913 15.06 65.9313 14.96C65.9713 14.95 66.0113 14.93 66.0513 14.91V14.81C66.0513 14.81 66.1312 14.78 66.1712 14.76V14.66C66.1712 14.66 66.2513 14.63 66.2913 14.61V14.51C66.2913 14.51 66.3713 14.48 66.4113 14.46V14.37H66.4713V14.28L66.5912 14.18V14.08C66.6512 14.05 66.7113 14.02 66.7613 13.98V13.88L66.8812 13.78V13.69H66.9413V13.59C66.9413 13.59 67.0212 13.56 67.0612 13.54C67.0812 13.48 67.1013 13.41 67.1213 13.35C67.1613 13.33 67.2012 13.32 67.2412 13.3V13.16C67.2412 13.16 67.3213 13.13 67.3613 13.11C67.4013 13.02 67.4413 12.92 67.4813 12.82C67.6113 12.63 67.7813 12.52 67.8313 12.25H67.9512C67.9512 12.25 67.9113 12.18 67.8913 12.15H67.9512C67.9512 12.15 67.9913 12.06 68.0113 12.01H68.0713V11.91H68.1312V11.81H68.1913V11.67C68.1913 11.67 68.2712 11.64 68.3112 11.62C68.3312 11.54 68.3513 11.46 68.3713 11.38C68.4113 11.36 68.4512 11.35 68.4912 11.33C68.5112 11.25 68.5313 11.17 68.5513 11.09H68.6113C68.6513 10.99 68.6913 10.9 68.7313 10.8H68.7913C68.8113 10.72 68.8312 10.64 68.8512 10.56C68.8912 10.54 68.9313 10.53 68.9713 10.51V10.37H69.0312C69.0512 10.31 69.0712 10.24 69.0912 10.18H69.1513C69.1713 10.09 69.1913 9.98998 69.2113 9.88998H69.2712V9.74998H69.3313C69.3813 9.65998 69.5613 9.24998 69.6213 9.22998H69.9113C69.9113 9.22998 69.9513 9.31998 69.9713 9.36998C70.2013 9.55998 70.0913 10.03 70.0813 10.37C70.0613 10.53 70.0412 10.69 70.0212 10.85H69.9613V10.94H69.9013C69.8813 11.12 69.8612 11.29 69.8412 11.47H69.7812C69.7613 11.53 69.7413 11.6 69.7213 11.66H69.6613V11.8H69.6012V11.9H69.5413V12.14H69.4813C69.4413 12.24 69.4013 12.33 69.3613 12.43" fill="#98C355"/>
<path d="M55.6216 8.61037V8.71037C55.7016 8.72037 55.7816 8.74037 55.8516 8.76037V8.81037H56.2016V8.86037C56.2616 8.89037 56.3216 8.92037 56.3716 8.96037C56.3916 9.01037 56.4116 9.06037 56.4316 9.10037H56.7216C56.7216 9.10037 56.7616 9.16037 56.7816 9.19037C56.8916 9.27037 56.9916 9.33037 57.1316 9.38037V9.76037H57.1916C57.2316 9.86037 57.2716 9.95037 57.3116 10.0504H57.3716V10.1404H57.4316V10.2304H57.4916V10.4204C57.5616 10.5604 57.8016 10.6904 57.7216 10.9404H57.6616C57.6016 11.1304 57.7416 11.2304 57.6616 11.3204C57.6416 11.3704 57.6216 11.4104 57.6016 11.4604H57.5416V11.5604C57.5416 11.5604 57.4616 11.5904 57.4216 11.6104V11.7004C57.4216 11.7004 57.3416 11.7304 57.3016 11.7504C57.2416 11.9104 57.1816 12.0704 57.1316 12.2304H57.0116C56.9916 12.2904 56.9716 12.3604 56.9516 12.4204H56.8316C56.7816 12.5804 56.7116 12.5404 56.6516 12.7104H56.5316V12.8104H56.4216C56.3416 12.8904 56.2616 12.9704 56.1916 13.0504H56.1316C56.0816 13.1204 56.1616 13.2004 56.0716 13.2404H55.7816V13.2904C55.6016 13.4204 55.7116 13.5404 55.3716 13.5804V13.6704C55.2116 13.7004 55.2416 13.7304 55.0816 13.7604C55.0616 13.8104 55.0416 13.8604 55.0216 13.9004C54.9016 13.8704 54.9716 13.9004 54.9116 13.8504C54.8416 13.8004 54.8916 13.8504 54.8516 13.7504H54.5016C54.4516 13.8404 54.4216 13.8304 54.3916 13.9404H54.2216V14.0404H54.0516V14.1304H53.9316V14.2804H53.8716V14.3304H53.6416V14.3804H53.5316V14.4304H53.3516C53.3516 14.4304 53.3116 14.4904 53.2916 14.5304H53.1716V14.5804C53.1116 14.6004 53.0516 14.6104 53.0016 14.6304V14.7304C52.8416 14.7604 52.8716 14.7904 52.7116 14.8304V14.9304H52.5916V15.0304H52.4216C52.3716 15.1804 52.3516 15.1704 52.1316 15.1704C52.0516 15.0504 52.0116 15.0304 51.7816 15.0304V15.1304H51.6616V15.2204C51.4716 15.2604 51.5416 15.2904 51.3116 15.3204V15.4104H51.1916V15.5104C51.0216 15.5404 51.0016 15.5604 50.9616 15.7004H50.7916C50.6916 15.8304 50.5616 15.8104 50.5016 15.9804H50.3816V16.0804H50.2116C50.1516 16.1704 50.1316 16.1504 50.0916 16.2704H49.9216V16.3704C49.5916 16.4004 49.7316 16.4904 49.5716 16.5604H49.4516V16.6604H49.3316V16.7604C49.2516 16.7804 49.1716 16.7904 49.1016 16.8104V16.8604C49.0016 16.8404 48.9116 16.8304 48.8116 16.8104V16.7604C48.5616 16.6904 48.4416 16.8204 48.2916 16.8504V16.9504H48.1816V17.0504H48.0016V17.1504C47.7716 17.2004 47.7516 17.3104 47.4816 17.3404V17.4304H47.3116V17.5304H47.1416C47.1416 17.5304 47.1016 17.6204 47.0816 17.6704H46.9116C46.8616 17.8304 46.8016 17.8204 46.5616 17.8104V17.9004H46.2716C46.2516 17.9604 46.2316 18.0304 46.2116 18.0904H46.0916V18.1804H45.8616V18.2804H45.6316V18.3804H45.5116V18.4804H45.3916V18.5804C45.1916 18.6204 45.0716 18.7304 44.8716 18.7704V18.8604C44.6916 18.9004 44.6616 18.9704 44.4616 19.0004V18.7604C44.2616 18.7804 44.2816 18.8204 44.1116 18.8504C44.0716 19.0004 44.0316 19.0204 43.8216 19.0404V19.1404C43.6616 19.1704 43.6916 19.2004 43.5316 19.2404V19.3304H43.3016V19.4304H43.1816V19.5304H43.0616V19.2904H42.8316C42.7316 19.4304 42.1716 19.7704 41.9616 19.8104V19.9104H41.8516C41.7216 20.0904 41.5816 20.0804 41.3916 20.1904C41.3716 20.2204 41.3516 20.2604 41.3316 20.2904C41.2116 20.3804 41.0716 20.4604 40.8716 20.4804V20.5804C40.6916 20.6204 40.6116 20.6904 40.4116 20.7204C40.4116 20.5504 40.3816 20.4604 40.3516 20.3404C40.5116 20.3004 40.4816 20.3304 40.5216 20.1904H40.5816V20.0504C40.7116 20.0304 40.8516 20.0204 40.9916 20.0004V19.9104H41.1116V19.8104H41.2316C41.3416 19.6304 41.5416 19.4804 41.8116 19.4304V19.3304C42.0816 19.2804 42.1816 19.1004 42.4516 19.0404V18.9404H42.5716C42.6716 18.8304 42.7616 18.7204 42.8616 18.6104H42.9816V18.5604C43.0816 18.5404 43.1716 18.5304 43.2716 18.5104V18.4604H43.3916V18.4104C43.4516 18.4004 43.5116 18.3804 43.5616 18.3604V18.1704H43.7316C43.7816 18.0104 43.8816 17.9704 44.0816 17.9304V17.7904C44.2016 17.7304 44.3116 17.6604 44.4316 17.6004C44.4516 17.5704 44.4716 17.5404 44.4916 17.5104H44.6116C44.6116 17.5104 44.6516 17.4504 44.6716 17.4104C44.8516 17.2704 45.0416 17.0904 45.3116 17.0304V16.9304H45.4316C45.5016 16.7404 45.4516 16.8704 45.6016 16.7904V16.7404H45.7216C45.7216 16.7404 45.7616 16.6804 45.7816 16.6404H45.9016C45.9016 16.6404 45.9816 16.5404 46.0216 16.5004H46.0816V16.4104C46.1416 16.3904 46.2016 16.3804 46.2616 16.3604C46.2816 16.3304 46.3016 16.3004 46.3216 16.2604H46.4416L46.5616 16.1604V16.0704L46.6816 15.9704H46.8016C46.8016 15.9704 46.8416 15.9104 46.8616 15.8804C47.0116 15.7604 47.1416 15.6404 47.3816 15.5904V15.5004H47.5016V15.4004C47.6716 15.3704 47.6916 15.3504 47.7316 15.2104C47.8116 15.1904 47.8816 15.1804 47.9616 15.1604C47.9816 15.1104 48.0016 15.0604 48.0216 15.0204H48.1316C48.2716 14.7604 48.5416 14.6804 48.7716 14.4904C48.8516 14.4104 48.9316 14.3304 49.0016 14.2504H49.1716V14.1504C49.2716 14.0904 49.3616 14.0204 49.4616 13.9604C49.6416 13.8004 49.8116 13.6404 49.9816 13.4804H50.1016V13.4304C50.1816 13.3604 50.1716 13.4004 50.2216 13.2904C50.3816 13.2604 50.3516 13.2304 50.5116 13.1904C50.5516 13.0504 50.5816 13.0304 50.7416 13.0004V12.9004H50.8616V12.8104H50.9816C51.0216 12.6704 51.0516 12.6504 51.2116 12.6204V12.5304H51.3316C51.4416 12.3804 51.6216 12.3404 51.6816 12.1504C51.9616 12.0904 51.9216 11.9304 52.2016 11.8604C52.2316 11.7504 52.2516 11.7404 52.3216 11.6704H52.3816V11.5804C52.5616 11.4504 52.7316 11.3304 52.9016 11.2004V11.1004C53.0116 10.9804 53.1216 11.0204 53.1916 10.8104H53.3116C53.4316 10.6804 53.5416 10.5604 53.6616 10.4304H53.8316C53.8316 10.4304 53.7916 10.3704 53.7716 10.3304H53.8316V10.2304C53.8916 10.2004 53.9516 10.1704 54.0016 10.1404V10.0504C54.0816 10.0004 54.1516 9.95037 54.2316 9.91037V9.81037C54.2316 9.81037 54.3116 9.78037 54.3416 9.76037V9.71037C54.3416 9.71037 54.4216 9.68037 54.4616 9.66037V9.56037C54.4616 9.56037 54.5416 9.53037 54.5716 9.51037V9.41037C54.6516 9.36037 54.7316 9.32037 54.8016 9.27037V9.13037C54.8616 9.10037 54.9216 9.07037 54.9816 9.03037C55.0616 8.93037 55.1216 8.83037 55.1516 8.69037H55.2716V8.59037C55.4916 8.56037 55.4616 8.56037 55.6816 8.59037" fill="#98C355"/>
<path d="M52.6908 6.71014C52.6908 6.71014 52.7308 6.81014 52.7508 6.85014H52.8108V6.99014H52.8708C52.8908 7.05014 52.9108 7.12014 52.9308 7.18014H52.9908C53.1108 7.44014 52.9208 7.98014 52.8808 8.13014C52.6308 8.18014 52.7108 8.29014 52.4208 8.32014V8.42014H52.3008V8.52014H52.1808V8.62014C51.9108 8.68014 51.9408 8.84014 51.6608 8.91014V9.01014C51.5008 9.04014 51.5308 9.07014 51.3708 9.11014V9.21014H51.2008V9.31014C51.0408 9.34014 51.0708 9.37014 50.9108 9.40014V9.50014H50.7908V9.60014C50.5608 9.65014 50.5408 9.76014 50.2708 9.79014V9.89014C50.0608 9.91014 50.0908 9.95014 49.9208 9.99014V10.0801H49.8008V10.1801H49.6308V10.2801H49.4608V10.3801H49.2908V10.4701H49.1208V10.5701C48.9908 10.5801 48.9708 10.5701 48.8908 10.6201V10.6701H48.7708C48.7708 10.6701 48.7308 10.7301 48.7108 10.7601H48.6008C48.6008 10.7601 48.5608 10.8201 48.5408 10.8601H48.3708C48.3708 10.8601 48.3308 10.9201 48.3108 10.9601H48.1408V11.0101H48.0308V11.0601H47.8508C47.8508 11.0601 47.8108 11.1201 47.7908 11.1501H47.5608C47.5608 11.1501 47.5208 11.2101 47.5008 11.2501C47.4408 11.2701 47.3808 11.2801 47.3308 11.3001V11.3501H47.1608C47.1608 11.3501 47.1208 11.4101 47.1008 11.4501H46.8708C46.8708 11.4501 46.8308 11.5101 46.8108 11.5401H46.6408C46.6408 11.5401 46.6008 11.6101 46.5808 11.6401H46.4608C46.4608 11.6401 46.4208 11.7001 46.4008 11.7301H46.2308V11.7801C46.1708 11.8001 46.1108 11.8101 46.0608 11.8301V11.9201C45.7608 11.9301 45.8608 11.9901 45.5908 12.0201V12.1101C45.4608 12.1201 45.4408 12.1101 45.3608 12.1601V12.2101H45.0708C45.0708 12.2101 45.0308 12.2701 45.0108 12.3101H44.8408V12.3601H44.7308V12.4101H44.5508C44.5508 12.4101 44.5108 12.4701 44.4908 12.5101H44.2608C44.2608 12.5101 44.2208 12.5701 44.2008 12.6101H44.0308V12.6601C43.9508 12.7001 43.9308 12.6901 43.8008 12.7101V12.8101C43.5708 12.8301 43.5908 12.8901 43.3408 12.9001V12.9901C43.1008 13.0101 43.0708 13.0801 42.7608 13.0901V13.1801C42.7008 13.2001 42.6408 13.2101 42.5908 13.2301V13.2801H42.4208C42.4208 13.2801 42.3808 13.3401 42.3608 13.3701H42.1308C42.1308 13.3701 42.0908 13.4301 42.0708 13.4701H41.8408C41.8408 13.4701 41.8008 13.5301 41.7808 13.5701H41.6108C41.6108 13.5701 41.5708 13.6301 41.5508 13.6601H41.2608V13.7601C41.1308 13.7701 41.1108 13.7601 41.0308 13.8101V13.8601H40.8608C40.8608 13.8601 40.8208 13.9201 40.8008 13.9501H40.5708C40.5708 13.9501 40.5308 14.0101 40.5108 14.0501H40.3408V14.1001C40.2608 14.1401 40.2408 14.1301 40.1108 14.1501V14.2501H39.8208C39.8208 14.2501 39.7808 14.3101 39.7608 14.3501H39.5908V14.4001H39.4208C39.4208 14.4001 39.3408 14.4901 39.3008 14.5401H39.0108V14.5901C38.9108 14.6101 38.8208 14.6201 38.7208 14.6401V14.7301C38.5708 14.7301 38.5208 14.7301 38.4308 14.7801V14.8301H37.6208V14.8801H37.5008V14.9301H37.2708V14.9801C37.1808 15.0201 37.1308 15.0201 36.9808 15.0301V15.1201C36.4708 15.1201 36.3208 15.2901 35.9408 15.3601C35.9208 15.4101 35.9008 15.4601 35.8808 15.5001H35.4208C35.4208 15.5001 35.3808 15.5601 35.3608 15.6001C35.2508 15.6201 35.1308 15.6301 35.0108 15.6501C34.9908 15.6801 34.9708 15.7101 34.9508 15.7501C34.8508 15.7701 34.7608 15.7801 34.6608 15.8001V15.9001C34.4308 15.9001 34.3408 15.9201 34.2008 15.9901C34.1808 16.0201 34.1608 16.0501 34.1408 16.0901H33.9708C33.9708 16.0901 33.9308 16.1501 33.9108 16.1801H33.6208V16.2301H33.5008V16.2801H33.3808C33.3808 16.2801 33.3408 16.3401 33.3208 16.3701H33.1508V16.4201C33.0308 16.4701 32.9208 16.4601 32.7408 16.4701V16.5601C32.5908 16.5601 32.5408 16.5601 32.4508 16.6101V16.6601H32.0408C32.0408 16.6601 32.0008 16.7201 31.9808 16.7501C31.8408 16.8201 31.7208 16.8301 31.5208 16.8501V16.9401C31.4408 16.9601 31.3608 16.9701 31.2908 16.9901V17.0401H31.0608C31.0608 17.0401 31.0208 17.1001 31.0008 17.1401H30.7708C30.7708 17.1401 30.7308 17.2001 30.7108 17.2301H30.5408C30.5408 17.2301 30.5008 17.2901 30.4808 17.3301C30.3108 17.3601 30.1308 17.4001 29.9608 17.4301C29.9408 17.4601 29.9208 17.4901 29.9008 17.5201H29.6708C29.6708 17.5201 29.6308 17.5801 29.6108 17.6201H29.3208V17.6701H29.2008V17.7201H29.0808C29.0808 17.7201 29.0408 17.7801 29.0208 17.8201H28.7908V17.8701C28.6708 17.9001 28.5608 17.9301 28.4408 17.9601V18.0101H28.2708C28.2708 18.0101 28.2308 18.0701 28.2108 18.1001H27.9208C27.9208 18.1001 27.8808 18.1601 27.8608 18.2001C27.6908 18.2301 27.5108 18.2601 27.3408 18.2901C27.3208 18.3201 27.3008 18.3601 27.2808 18.3901H27.0508C27.0508 18.3901 27.0108 18.4501 26.9908 18.4901H26.8208V18.5401C26.7408 18.5801 26.7208 18.5701 26.5908 18.5901V18.6901C26.3008 18.6901 26.2608 18.7601 26.0108 18.7901V18.8801H25.7208C25.7208 18.8801 25.6808 18.9501 25.6608 18.9801C25.5408 19.0001 25.4308 19.0101 25.3108 19.0301C25.2908 18.9801 25.2708 18.9301 25.2508 18.8801H24.8408V18.9301H24.7208V18.9801H24.4908C24.4908 18.9801 24.4508 19.0401 24.4308 19.0701H24.3108C24.3108 19.0701 24.2708 19.1301 24.2508 19.1701H23.7908V19.3101C23.6708 19.3401 23.5608 19.3701 23.4408 19.4101V19.4601H23.0908V19.5101H22.9708V19.5601H22.7408V19.6101C22.6808 19.6301 22.6208 19.6401 22.5608 19.6601C22.5408 19.6901 22.5208 19.7201 22.5008 19.7501C22.3108 19.7701 22.1108 19.7801 21.9208 19.8001V19.8501H21.8108C21.8108 19.8501 21.7708 19.9101 21.7508 19.9501H21.5708V20.0001C21.4008 20.0301 21.2208 20.0601 21.0508 20.1001V19.9601C21.2108 19.9301 21.1808 19.9001 21.3408 19.8601V19.7601C21.4408 19.7401 21.5308 19.7301 21.6308 19.7101V19.6601H21.7508C21.7508 19.6601 21.7908 19.5901 21.8108 19.5601H21.9208V19.5101H22.0408V19.4601H22.2108V19.4101C22.2908 19.3901 22.3708 19.3801 22.4408 19.3601C22.4608 19.3301 22.4808 19.3001 22.5008 19.2601H22.6208V19.2101C22.6808 19.1901 22.7408 19.1801 22.7908 19.1601V19.0601C22.9608 19.0101 23.1408 18.9701 23.3108 18.9201V18.8701H23.4308C23.4308 18.8701 23.4708 18.8101 23.4908 18.7801H23.6608C23.6608 18.7801 23.7008 18.7201 23.7208 18.6801H23.8908V18.6301H24.0108V18.5801H24.1308V18.5301H24.2508V18.4801H24.3708V18.4301H24.4908V18.3801H24.7208C24.7208 18.3801 24.7608 18.3201 24.7808 18.2801H24.9508V18.2301H25.0708V18.1801H25.2508C25.2508 18.1801 25.2908 18.1201 25.3108 18.0801H25.4908V18.0301C25.5708 18.0101 25.6408 18.0001 25.7208 17.9801V17.9301H25.8308V17.8801H26.0008C26.0008 17.8801 26.0408 17.8201 26.0608 17.7801H26.2408C26.2408 17.7801 26.2808 17.7201 26.3008 17.6801H26.4208V17.6301C26.5408 17.6201 26.6508 17.6001 26.7708 17.5801C26.7908 17.5501 26.8108 17.5201 26.8308 17.4801H27.0008V17.4301C27.0608 17.4101 27.1208 17.4001 27.1708 17.3801C27.1908 17.3501 27.2108 17.3201 27.2308 17.2801H27.4608V17.2301C27.5808 17.2001 27.6908 17.1701 27.8108 17.1401V17.0901H27.9308V17.0401H28.0508V16.9901H28.2208V16.9401H28.3408V16.8901H28.4608C28.4608 16.8901 28.5008 16.8301 28.5208 16.8001H28.6908C28.6908 16.8001 28.7308 16.7301 28.7508 16.7001H28.9208C28.9208 16.7001 28.9608 16.6401 28.9808 16.6101H29.1608V16.5601C29.2408 16.5401 29.3108 16.5301 29.3908 16.5101V16.4601H29.5608V16.4101H29.6808C29.6808 16.4101 29.7208 16.3401 29.7408 16.3101H29.9108C29.9108 16.3101 29.9508 16.2501 29.9708 16.2201H30.1408V16.1701H30.2608V16.1201H30.3808V16.0701C30.5008 16.0401 30.6108 16.0101 30.7308 15.9701V15.9201H30.9008C30.9008 15.9201 30.9408 15.8601 30.9608 15.8301H31.1908C31.1908 15.8301 31.2308 15.7701 31.2508 15.7301C31.3608 15.7001 31.4808 15.6701 31.6008 15.6401C31.6208 15.6101 31.6408 15.5701 31.6608 15.5501H31.8308V15.5001H31.9508V15.4501C32.0708 15.4301 32.1808 15.4201 32.3008 15.4001C32.3208 15.3701 32.3408 15.3401 32.3608 15.3001C32.4408 15.2801 32.5108 15.2701 32.5908 15.2501V15.2001C32.6708 15.1801 32.7408 15.1701 32.8208 15.1501V15.1001C32.9208 15.0801 33.0108 15.0701 33.1108 15.0501C33.1308 15.0201 33.1508 14.9901 33.1708 14.9601C33.2908 14.9301 33.4008 14.9001 33.5208 14.8601C33.5408 14.8301 33.5608 14.8001 33.5808 14.7701H33.7508V14.7201H33.8708V14.6701H34.0408V14.6201H34.1608V14.5701H34.2808C34.2808 14.5701 34.3208 14.5101 34.3408 14.4701H34.5108V14.4201H34.6308V14.3701C34.7108 14.3501 34.7808 14.3401 34.8608 14.3201V14.2701H35.0308C35.0308 14.2701 35.0708 14.2101 35.0908 14.1701H35.2608V14.1201H35.3708V14.0701H35.4908V14.0201H35.6108V13.9701H35.7208V13.9201C35.8008 13.9001 35.8708 13.8901 35.9508 13.8701V13.8201H36.1208C36.1208 13.8201 36.1608 13.7601 36.1808 13.7301H36.3008V13.6801H36.4708C36.4708 13.6801 36.5108 13.6101 36.5308 13.5801H36.7608V13.5301C36.8408 13.5101 36.9108 13.5001 36.9908 13.4801C37.0108 13.4501 37.0308 13.4201 37.0508 13.3801H37.1708V13.3301H37.2908V13.2801H37.4608V13.2301H37.5708V13.1801H37.6908C37.6908 13.1801 37.7308 13.1201 37.7508 13.0801H37.9808C37.9808 13.0801 38.0208 13.0201 38.0408 12.9901H38.1608V12.9401H38.2808V12.8901H38.4508V12.8401C38.5708 12.8101 38.6808 12.7801 38.8008 12.7401V12.6901H38.9208V12.6401H39.0408V12.5901H39.1608V12.5401H39.2808V12.4901H39.4008V12.4401H39.5208V12.3901H39.6408V12.3401C39.7208 12.3201 39.7908 12.3101 39.8708 12.2901C39.8908 12.2601 39.9108 12.2301 39.9308 12.2001H40.1008V12.1501C40.1808 12.1301 40.2608 12.1201 40.3308 12.1001V12.0501H40.5108C40.5108 12.0501 40.5508 11.9901 40.5708 11.9501H40.6908V11.9001H40.8608C40.8608 11.9001 40.9008 11.8401 40.9208 11.8001H41.0908C41.0908 11.8001 41.1308 11.7401 41.1508 11.7101H41.2708L41.3908 11.6101H41.5108V11.5601H41.6308V11.5101H41.7408V11.4601C41.8208 11.4401 41.9008 11.4301 41.9708 11.4101C41.9908 11.3801 42.0108 11.3501 42.0308 11.3201H42.2108V11.2701H42.3208V11.2201H42.4408C42.4408 11.2201 42.4808 11.1601 42.5008 11.1201H42.6708C42.6708 11.1201 42.7108 11.0501 42.7308 11.0201H42.8508V10.9701H42.9708V10.9201H43.1408C43.1408 10.9201 43.1808 10.8501 43.2008 10.8201H43.3208C43.3208 10.8201 43.3608 10.7601 43.3808 10.7201H43.5508V10.6701C43.7508 10.5801 43.7408 10.5501 44.0108 10.5301V10.4401C44.1908 10.4101 44.4008 10.3201 44.5308 10.2501C44.5508 10.2201 44.5708 10.1801 44.5908 10.1501H44.7008C44.7008 10.1501 44.7408 10.0901 44.7608 10.0501H44.8808V10.0001H45.0008L45.1208 9.91014H45.2408C45.2408 9.91014 45.2808 9.84014 45.3008 9.81014H45.4208C45.4208 9.81014 45.5008 9.72014 45.5408 9.67014H45.7108C45.8708 9.60014 45.8808 9.53014 46.1208 9.48014V9.38014C46.5408 9.31014 46.6508 9.03014 47.1108 9.00014C47.1508 8.86014 47.1708 8.84014 47.3408 8.81014V8.71014C47.5008 8.68014 47.4708 8.65014 47.6308 8.61014V8.52014H47.7508C47.8508 8.39014 47.9808 8.41014 48.0408 8.23014H48.2108C48.2708 8.17014 48.3308 8.10014 48.3808 8.04014H48.5008C48.6008 7.95014 48.6908 7.85014 48.7908 7.75014H48.9108C48.9108 7.75014 48.9908 7.65014 49.0308 7.61014H49.1508C49.1508 7.61014 49.1908 7.55014 49.2108 7.51014C49.2708 7.49014 49.3308 7.48014 49.3808 7.46014V7.41014C49.4808 7.34014 49.5208 7.30014 49.6708 7.27014V7.17014C49.8808 7.13014 50.0508 6.99014 50.1908 6.89014C50.2108 6.86014 50.2308 6.82014 50.2508 6.79014C50.5608 6.76014 50.8708 6.73014 51.1808 6.69014V6.64014H51.2908V6.59014H51.5208V6.54014C51.6808 6.52014 51.8308 6.51014 51.9808 6.49014V6.44014H52.1008V6.39014H52.6208C52.6808 6.51014 52.6908 6.54014 52.8508 6.58014" fill="#98C355"/>
<path d="M15.2506 29.0701C14.6906 29.0701 14.1006 28.8501 13.6406 28.5101L14.0106 27.7101C14.4906 28.0101 14.8806 28.1601 15.2306 28.1601C15.6606 28.1601 15.9206 27.9301 15.9206 27.5901C15.9206 27.2201 15.6406 27.0301 14.9106 26.6101C14.2606 26.2301 13.8206 25.8901 13.8206 25.0601C13.8206 24.1501 14.3706 23.6001 15.3206 23.6001C15.8506 23.6001 16.3606 23.7901 16.7506 24.0901L16.3606 24.9001C16.0206 24.6601 15.6306 24.5101 15.3006 24.5101C14.9406 24.5101 14.7806 24.7101 14.7806 24.9701C14.7806 25.2901 14.9306 25.4501 15.6406 25.8601C16.4306 26.3201 16.8806 26.6601 16.8806 27.5201C16.8806 28.5201 16.2706 29.0701 15.2506 29.0701Z" fill="#037793"/>
<path d="M23.1002 28.96V25.72H21.1402V28.96H20.1602V21.96H21.1402V24.76H23.1002V21.96H24.0802V28.96H23.1002Z" fill="#037793"/>
<path d="M27.5998 28.9601V28.6001C27.3298 28.9101 26.9898 29.0701 26.5198 29.0701C25.7498 29.0701 25.0898 28.4901 25.0898 27.3101C25.0898 26.1301 25.7998 25.5901 26.7998 25.5901C27.1198 25.5901 27.3898 25.6601 27.5998 25.7601V25.2501C27.5998 24.7401 27.4298 24.5001 26.9198 24.5001C26.5898 24.5001 26.2898 24.5901 25.8898 24.8301L25.4798 24.1001C25.9598 23.7801 26.5098 23.6001 26.9898 23.6001C28.1198 23.6001 28.5598 24.0001 28.5598 25.1701V28.9601H27.5998ZM27.5998 26.6601C27.3698 26.5201 27.1698 26.4601 26.8098 26.4601C26.3598 26.4601 26.0498 26.7201 26.0498 27.2901C26.0498 27.9101 26.2998 28.2001 26.7098 28.2001C27.1198 28.2001 27.4198 28.0201 27.5998 27.7101V26.6601Z" fill="#037793"/>
<path d="M32.0502 28.96V28.6C31.8402 28.87 31.4802 29.07 31.0302 29.07C30.0202 29.07 29.6602 28.42 29.6602 27.1V23.71H30.6202V26.94C30.6202 27.81 30.7902 28.16 31.2702 28.16C31.5702 28.16 31.8602 27.99 32.0502 27.68V23.71H33.0102V28.96H32.0502Z" fill="#037793"/>
<path d="M36.2291 28.8299C35.9991 28.9799 35.7291 29.0699 35.3691 29.0699C34.6691 29.0699 34.3591 28.5799 34.3591 27.7299V24.6099H33.7891V23.7099H34.3591V22.1799L35.3191 21.6699V23.7099H36.3291V24.6099H35.3191V27.6399C35.3191 28.0099 35.4591 28.1599 35.7191 28.1599C35.9791 28.1599 36.1991 28.0599 36.3391 27.9399L36.2291 28.8299Z" fill="#037793"/>
<path d="M39.6719 28.96V21.96H40.6519V28H42.8919V28.96H39.6719Z" fill="#037793"/>
<path d="M45.9709 28.9601V28.6001C45.7009 28.9101 45.3609 29.0701 44.8909 29.0701C44.1209 29.0701 43.4609 28.4901 43.4609 27.3101C43.4609 26.1301 44.1709 25.5901 45.1709 25.5901C45.4909 25.5901 45.7609 25.6601 45.9709 25.7601V25.2501C45.9709 24.7401 45.8009 24.5001 45.2909 24.5001C44.9609 24.5001 44.6609 24.5901 44.2609 24.8301L43.8509 24.1001C44.3309 23.7801 44.8809 23.6001 45.3609 23.6001C46.4909 23.6001 46.9309 24.0001 46.9309 25.1701V28.9601H45.9709ZM45.9709 26.6601C45.7409 26.5201 45.5409 26.4601 45.1809 26.4601C44.7309 26.4601 44.4209 26.7201 44.4209 27.2901C44.4209 27.9101 44.6709 28.2001 45.0809 28.2001C45.4909 28.2001 45.7909 28.0201 45.9709 27.7101V26.6601Z" fill="#037793"/>
<path d="M50.4525 28.9601V25.7301C50.4525 24.8601 50.2825 24.5101 49.8025 24.5101C49.5025 24.5101 49.2125 24.6801 49.0225 24.9901V28.9601H48.0625V23.7101H49.0225V24.0701C49.2325 23.8001 49.5925 23.6001 50.0425 23.6001C51.0525 23.6001 51.4125 24.2501 51.4125 25.5701V28.9601H50.4525Z" fill="#037793"/>
<path d="M53.712 30.8901L53.442 30.1201C54.602 29.9701 54.892 29.6301 54.892 28.6401V28.6001C54.642 28.8801 54.382 29.0701 53.912 29.0701C52.962 29.0701 52.332 28.3701 52.332 26.2801C52.332 24.5301 52.942 23.6001 53.982 23.6001C54.352 23.6001 54.632 23.7201 54.892 23.9901V23.7101H55.852V28.5001C55.852 30.0001 55.302 30.7201 53.712 30.8901ZM54.892 24.9701C54.682 24.6501 54.362 24.5001 54.062 24.5001C53.562 24.5001 53.302 24.9901 53.302 26.2301C53.302 27.6001 53.562 28.1701 54.112 28.1701C54.432 28.1701 54.722 27.9701 54.892 27.6901V24.9701Z" fill="#037793"/>
<path d="M59.3509 28.96V28.6C59.1409 28.87 58.7809 29.07 58.3309 29.07C57.3209 29.07 56.9609 28.42 56.9609 27.1V23.71H57.9209V26.94C57.9209 27.81 58.0909 28.16 58.5709 28.16C58.8709 28.16 59.1609 27.99 59.3509 27.68V23.71H60.3109V28.96H59.3509Z" fill="#037793"/>
<path d="M64.9795 26.6601H62.2295C62.2895 27.7001 62.6595 28.1501 63.2195 28.1501C63.6595 28.1501 63.8695 28.0401 64.1695 27.7601L64.7595 28.3701C64.3995 28.7701 63.8695 29.0701 63.1995 29.0701C61.9495 29.0701 61.2695 28.0101 61.2695 26.3601C61.2695 24.5201 62.0295 23.6001 63.1395 23.6001C64.1895 23.6001 64.9895 24.4901 64.9895 26.3201C64.9895 26.4101 64.9895 26.5601 64.9895 26.6601H64.9795ZM63.1195 24.5001C62.6295 24.5001 62.3195 24.9301 62.2395 25.8301H64.0095C63.9795 25.0501 63.6595 24.5001 63.1195 24.5001Z" fill="#037793"/>
<path d="M68.3295 28.9599V28.6099C68.0795 28.8799 67.8195 29.0699 67.3495 29.0699C66.3995 29.0699 65.7695 28.3699 65.7695 26.2799C65.7695 24.5299 66.3795 23.5999 67.4195 23.5999C67.7895 23.5999 68.0695 23.7199 68.3295 23.9899V22.1699L69.2895 21.6699V28.9599H68.3295ZM68.3295 24.9699C68.1195 24.6499 67.7995 24.4999 67.4995 24.4999C66.9995 24.4999 66.7395 24.9899 66.7395 26.2299C66.7395 27.5999 66.9995 28.1699 67.5495 28.1699C67.8695 28.1699 68.1595 27.9699 68.3295 27.6899V24.9699Z" fill="#037793"/>
<path d="M72.11 29.0701C71.02 29.0701 70.25 28.2001 70.25 26.3601C70.25 24.5201 70.98 23.6001 72.15 23.6001C73.26 23.6001 74.03 24.4901 74.03 26.3201C74.03 28.1501 73.27 29.0701 72.11 29.0701ZM72.13 24.5201C71.53 24.5201 71.22 25.1401 71.22 26.3401C71.22 27.5401 71.54 28.1501 72.14 28.1501C72.74 28.1501 73.06 27.4301 73.06 26.3401C73.06 25.1501 72.73 24.5201 72.13 24.5201Z" fill="#037793"/>
<path d="M76.6425 29.0701C75.5525 29.0701 74.8125 28.2001 74.8125 26.3601C74.8125 24.5201 75.5125 23.6001 76.6825 23.6001C77.4425 23.6001 77.8625 24.0101 78.1625 24.5201L77.4725 25.1201C77.2025 24.6901 76.9925 24.5201 76.6525 24.5201C76.0425 24.5201 75.7825 25.1901 75.7825 26.3401C75.7825 27.4901 76.0525 28.1501 76.6825 28.1501C77.0025 28.1501 77.2225 27.9801 77.4825 27.5701L78.1725 28.1401C77.8225 28.6901 77.4025 29.0701 76.6425 29.0701Z" fill="#037793"/>
<path d="M18.753 37.0805H16.003C16.063 38.1205 16.433 38.5705 16.993 38.5705C17.433 38.5705 17.643 38.4605 17.943 38.1805L18.533 38.7905C18.173 39.1905 17.643 39.4905 16.973 39.4905C15.723 39.4905 15.043 38.4305 15.043 36.7805C15.043 34.9405 15.803 34.0205 16.913 34.0205C17.963 34.0205 18.763 34.9105 18.763 36.7405C18.763 36.8305 18.763 36.9805 18.763 37.0805H18.753ZM16.893 34.9205C16.403 34.9205 16.093 35.3505 16.013 36.2505H17.783C17.753 35.4705 17.433 34.9205 16.893 34.9205Z" fill="#037793"/>
<path d="M21.8033 39.2503C21.5733 39.4003 21.3033 39.4903 20.9433 39.4903C20.2433 39.4903 19.9333 39.0003 19.9333 38.1503V35.0303H19.3633V34.1303H19.9333V32.6003L20.8933 32.0903V34.1303H21.9033V35.0303H20.8933V38.0603C20.8933 38.4303 21.0333 38.5803 21.2933 38.5803C21.5533 38.5803 21.7733 38.4803 21.9133 38.3603L21.8033 39.2503Z" fill="#037793"/>
<path d="M27.323 39.3804H26.593L24.793 32.3804H25.863L26.673 35.8904C26.753 36.2504 26.933 37.1204 26.983 37.3704C27.033 37.1204 27.213 36.2604 27.293 35.8904L28.093 32.3804H29.133L27.323 39.3804Z" fill="#037793"/>
<path d="M30.4828 33.3101C30.1528 33.3101 29.8828 33.0401 29.8828 32.7201C29.8828 32.4001 30.1528 32.1201 30.4828 32.1201C30.8128 32.1201 31.0728 32.3901 31.0728 32.7201C31.0728 33.0501 30.8028 33.3101 30.4828 33.3101ZM30.0028 39.3801V34.1301H30.9628V39.3801H30.0028Z" fill="#037793"/>
<path d="M33.3527 41.3105L33.0827 40.5405C34.2427 40.3905 34.5327 40.0505 34.5327 39.0605V39.0205C34.2827 39.3005 34.0227 39.4905 33.5527 39.4905C32.6027 39.4905 31.9727 38.7905 31.9727 36.7005C31.9727 34.9505 32.5827 34.0205 33.6227 34.0205C33.9927 34.0205 34.2727 34.1405 34.5327 34.4105V34.1305H35.4927V38.9205C35.4927 40.4205 34.9427 41.1405 33.3527 41.3105ZM34.5327 35.3905C34.3227 35.0705 34.0027 34.9205 33.7027 34.9205C33.2027 34.9205 32.9427 35.4105 32.9427 36.6505C32.9427 38.0205 33.2027 38.5905 33.7527 38.5905C34.0727 38.5905 34.3627 38.3905 34.5327 38.1105V35.3905Z" fill="#037793"/>
<path d="M39.0228 39.3805V36.1505C39.0228 35.2805 38.8528 34.9305 38.3728 34.9305C38.0728 34.9305 37.7828 35.1005 37.5928 35.4105V39.3805H36.6328V34.1305H37.5928V34.4905C37.8028 34.2205 38.1628 34.0205 38.6128 34.0205C39.6228 34.0205 39.9828 34.6705 39.9828 35.9905V39.3805H39.0228Z" fill="#037793"/>
<path d="M42.7741 39.4905C41.6841 39.4905 40.9141 38.6205 40.9141 36.7805C40.9141 34.9405 41.6441 34.0205 42.8141 34.0205C43.9241 34.0205 44.6941 34.9105 44.6941 36.7405C44.6941 38.5705 43.9341 39.4905 42.7741 39.4905ZM42.7941 34.9405C42.1941 34.9405 41.8841 35.5605 41.8841 36.7605C41.8841 37.9605 42.2041 38.5705 42.8041 38.5705C43.4041 38.5705 43.7241 37.8505 43.7241 36.7605C43.7241 35.5705 43.3941 34.9405 42.7941 34.9405Z" fill="#037793"/>
<path d="M47.5223 39.4903C47.1523 39.4903 46.8723 39.3703 46.6123 39.1003V39.3803H45.6523V32.5903L46.6123 32.0903V34.4803C46.8623 34.2103 47.1223 34.0203 47.5923 34.0203C48.5423 34.0203 49.1723 34.7203 49.1723 36.8103C49.1723 38.5603 48.5623 39.4903 47.5223 39.4903ZM47.3923 34.9203C47.0723 34.9203 46.7823 35.1203 46.6123 35.4003V38.1203C46.8223 38.4403 47.1423 38.5903 47.4423 38.5903C47.9423 38.5903 48.2023 38.1003 48.2023 36.8603C48.2023 35.4903 47.9423 34.9203 47.3923 34.9203Z" fill="#037793"/>
<path d="M50.1836 39.3803V32.5903L51.1436 32.0903V39.3803H50.1836Z" fill="#037793"/>
<path d="M55.8545 37.0805H53.1045C53.1645 38.1205 53.5345 38.5705 54.0945 38.5705C54.5345 38.5705 54.7445 38.4605 55.0445 38.1805L55.6345 38.7905C55.2745 39.1905 54.7445 39.4905 54.0745 39.4905C52.8245 39.4905 52.1445 38.4305 52.1445 36.7805C52.1445 34.9405 52.9045 34.0205 54.0145 34.0205C55.0645 34.0205 55.8645 34.9105 55.8645 36.7405C55.8645 36.8305 55.8645 36.9805 55.8645 37.0805H55.8545ZM53.9945 34.9205C53.5045 34.9205 53.1945 35.3505 53.1145 36.2505H54.8845C54.8545 35.4705 54.5345 34.9205 53.9945 34.9205Z" fill="#037793"/>
<path d="M58.1334 39.4905C57.5734 39.4905 56.9834 39.2705 56.5234 38.9305L56.8934 38.1305C57.3734 38.4305 57.7634 38.5805 58.1134 38.5805C58.5434 38.5805 58.8034 38.3505 58.8034 38.0105C58.8034 37.6405 58.5234 37.4505 57.7934 37.0305C57.1434 36.6505 56.7034 36.3105 56.7034 35.4805C56.7034 34.5705 57.2534 34.0205 58.2034 34.0205C58.7334 34.0205 59.2434 34.2105 59.6334 34.5105L59.2434 35.3205C58.9034 35.0805 58.5134 34.9305 58.1834 34.9305C57.8234 34.9305 57.6634 35.1305 57.6634 35.3905C57.6634 35.7105 57.8134 35.8705 58.5234 36.2805C59.3134 36.7405 59.7634 37.0805 59.7634 37.9405C59.7634 38.9405 59.1534 39.4905 58.1334 39.4905Z" fill="#037793"/>
</g>
<defs>
<clipPath id="clip0_669_8722">
<rect width="80.94" height="42.4" fill="white"/>
</clipPath>
</defs>
</svg>
