<svg xmlns="http://www.w3.org/2000/svg" id="Calque_2" data-name="Calque 2" viewBox="0 0 1465 753.98"><defs><style>.cls-1{fill:#97c020}.cls-2{fill:#0b7a99}</style></defs><g id="Calque_1-2" data-name="Calque 1"><path d="M1465 134.98v-2c-3.32-.05-7.89-4.29-9.7-4.8-35.56-10.09-73.58-20.42-110.07-30.93-53.73-15.48-106.79-32.43-160.45-49.55-35.2-11.23-74.94-21.17-108.96-34.84-4.37-1.76-14.32-8.45-18.53-9.67-1.47-.42-20.4-1.46-21.63-1.06-3.12 1.02-.75 4.24-.97 6.2-.08.76-1.35 1.55-1.43 2.96-.23 3.95 2.96 4.02 5.1 5.82 32.1 26.95 80.81 37.6 120.1 51.91 12.76 4.65 20.39 11.1 31.32 15.87 50.12 21.87 102.74 41.71 156.78 50.04 4.05.62 8.88-.56 12.89.11 27.01 4.5 55.42 4.84 83.07 6.93 6.83.52 15.21.71 21.44-2.05 1.66-2.39-5.33-5.8 1.05-4.94ZM629.5 622.97c-8.76-9.09-23.27-8.14-32.83-.82-18.14 13.89-17.04 59.07-9.95 78.6 7.13 19.63 27.78 26.4 43.26 11.23 2.31 18.34-10.07 26.56-26.99 27.01l5 14.99h6l18.69-6.81c9.24-5.79 16.31-19.92 16.31-30.69v-97.5h-19c-.28 0 .62 3.7-.5 4Zm-28.48 55.49c-.8-9.8-1.82-41.38 10.69-44.27 6.76-1.56 13.53 1.76 17.77 6.81l.32 53.27c-17.09 18.6-27.19 3.62-28.78-15.81M48 391.48c-15.22-4.46-32.3-1.75-48-2.5v133c2.79-.44 19 1.21 19-1.5v-52.5h21.5c.92 0 9.66-3.11 11.19-3.81 28.62-13.02 27.45-63.58-3.69-72.69m-3.66 55.33c-1.26.78-6.83 3.16-7.84 3.16H19v-42h19.5c1.7 0 8.63 4.4 9.96 6.04 6.83 8.4 5.73 26.72-4.13 32.8ZM22.4 224.87c37.37-4.82 80.42-19.4 116.42-30.58 18.29-5.68 35.66-10.81 53-17 46.59-16.64 91.79-31.68 137.4-48.41 8.03-2.95 16.22-6.28 24.04-9.14 6.98-2.55 12.65-5.74 18.54-8.73 1.2-.61 16.89-5.95 17.83-6.01 6.6-.44 20.74 14.84 26.52 19.33 11.39 8.84 21.71 15.18 36.1 19.71 1.95.61 12.69 4.82 14.19 5.01 13.54 1.7 30.06 1.81 42.53-2.63 15.56-5.55 30.08-11.58 45.16-18.86 1.16-.56 3.3-.34 3.74-.78.47-.48-.12-2.36.21-2.67.62-.58 2.97.24 4.2-.16 5.05-1.65 14.47-12.67 18.49-15.98 10.41-8.57 18.34-4.48 27.74 1.98 24.42 16.77 36.56 25.53 69.04 25.08 41.93-.57 87.38-9.57 122.31-30.69 18.74-11.33 26.71-28.15 41.72-41.75 2.52-2.28 5.15-7.18 9.4-5.12.89.43 1.56 1.91 2.54 2.54 4 2.6 10.02 6.54 14.21 8.74 20.05 10.52 42.48-3.6 59.11-14.38 9.86-6.39 20.92-13.13 30.86-18.39 13.86-7.33 28.47-14.91 43.02-18.95 2.97-.82 7.71-.77 11.01-2.32L1022 3c-21.24-3.84-42.9-3.86-64.23-.74-16.64 2.43-34.44 8.66-48.18 18.78-1 .73-1.56 2.93-3.05 3.99-6.05 4.32-16.13 11-23.11 11.96-1.42.2-8.55-1.22-9.74-1.93-2.02-1.21-6.66-7.29-10.5-8.95-13.29-5.75-23.42-3.8-36.18 1.39-20.63 8.39-47.04 26.48-67.13 38.91-17.37 10.75-62.86 44.25-82.19 39.56-.81-.2-.28-1.82-2.12-2.05-8.21-1.04-12.76-.53-21.26-3.73-21.18-7.97-28.85-26.46-54.77-28.23-21.04-1.44-51.95 16.28-70.26 24.81-21.03 9.79-50.98 11.21-73.07 3.52-12.85-4.47-27.15-23.42-39.29-30.7-7.7-4.62-15.7-6.36-23.69-9.29-1.34-.49-.71-2.13-2.68-2.37-20.54-2.49-45.86 10.83-64.46 18.64-19.26 8.09-38.29 17.13-57.58 25.44-1.99.86-5.7 1.28-6.87 1.94-1.2.68-.34 2.55-.72 2.91-.51.48-3.56-.12-5.16.39-18.19 5.86-35.96 16.13-53.06 23.45-48.06 20.55-97.61 39.62-146.9 61.4-13.03 5.76-27.02 13.02-40.56 17.83-4.86 1.73-11.18-.9-10.05 8.3 1.13 9.17 10.2 7.57 17.2 6.67Z" class="cls-2"/><path d="M454.57 329.9c1.86.25 1.31 1.87 2.12 2.06 3.56.85 5.29-1.01 8.05-1.76 5.85-1.6 11.4-4.05 17.06-6.12 42.07-15.39 85.48-28.6 127.01-42.99 11.9-4.13 24.04-9.47 35.39-12.41 6.74-1.75 8.78-2.87 14.57-5.43 19-8.41 42.16-8.06 60.48-14.52 36.68-12.94 74.12-28.97 110.54-43.46 35.91-14.29 72.6-27.61 105.93-48.02 11.7-7.17 21.54-16.11 32.63-23.88 2.56-1.79 6.3-1.3 8.52-5.01 2.15-3.6 3.41-12.73 1.85-16.6-3.59-8.94-9.12-14.19-19.18-12.72-7.21 1.05-15.36 4.23-22.29 5.71-4.04.86-8.12-.29-12.49 1.51-11.27 4.64-33.51 22.55-44.38 29.57-54.96 35.49-119.93 59.42-181.1 83.94-79.57 31.89-160.15 63.92-240.12 94.88-25.16 9.74-52.17 18.35-76.07 30.93-1.61.85-7.91 4.44-6.1 6.39 1.68 1.82 16.01-5.11 18.71-5.78 5.69-1.41 7.85-2.04 13.28-3.72 5.17-1.6 14.16-2.44 18.35-4.69 1.33-.72 1.47-2.61 2.36-2.83 1.78-.43 4.17.31 6.54-.24 6.42-1.49 8.67-6.13 18.33-4.81ZM1015.87 145.35c-4.29 5.31-9.81 9.87-14.56 14.99-55.43 59.68-127.21 103.72-191.95 153.49-1.53 1.18-7.91 3.95-8.2 4.31-.62.77.29 3.01-.26 3.71-.55.69-10.59 3.38-12.27 4.25-4.53 2.35-15.84 12.25-21.42 15.84-3.4 2.19-12.59 8.93-14.89 10.05-2.12 1.04-4.85.6-6.31 1.49-1.32.81-1.22 2.83-1.96 3.78-.77 1-2.66 1.26-2.89 2.28-.29 1.27 1.51 4.53.85 6.45.39.41 7.08-1.56 8.22-2.07 4.32-1.95 11.33-7.19 16.11-10.09 4.85-2.94 18.65-13.39 22.37-14.64 1.07-.36 2.2-.22 3.29-.21l1.5 4.01c5.59-3.08 11.43-5.78 16.88-9.17 1.09-.68 1.33-2.2 2.41-2.8 6.79-3.74 5.02 2.72 6.7 2.91 4.61-3.03 11.36-5.35 15.8-7.95.86-.5 5.31-5.31 6.03-5.66 2.39-1.15 5.73-.58 8.23-2.29 1.65-1.12 2.31-3.85 3.48-4.52 2.35-1.35 8.24-2.69 11.8-4.44 7.55-3.72 15.98-7.89 23.78-12.51 1.18-.7 2.16-3.11 3.67-3.84 7.1-3.45 6.63.02 11.2.36 6.25.47 9.92-5.34 14.32-8.05 12.05-7.44 23.45-14.9 35.48-22.06.98-.58 1.7-2.88 3.78-3.47 4.03-1.16 4.21 1.65 6.68 2.3 4.19 1.1 3.38-1.87 4.52-2.57 4.58-2.8 13.65-8.99 18.54-10.94 2.55-1.02 6.22-.78 8.2-1.82 1.88-.99 5.4-4.95 10.19-7.53 1.14-.62 1.28-2.38 2.45-2.78 4.79-1.63 7.31 2.1 9.8 1.89.63-.05.6-1.67 1.28-2.04 2.3-1.27 8.58-4.2 10.26-5.55 1.17-.95 1.7-3.36 3.01-3.98 1.94-.93 5.19-.03 5.89-.63.17-.14.47-2.54 1.57-3.9 3.69-4.59 14.22-10.49 17.99-16.03 1.23-1.81 1.54-4.89 2.78-7.25 1.76-3.33 4.93-4.72 6.03-7.94 1.02-2.98 2.23-10.77 1.02-13.48-2.36-5.28-8.34-12.8-10.01-17.99-.64-2 .2-4.28-.73-6.27-1.48-3.19-10.09-5.25-12.5-6.54-.68-.37-.9-1.85-1.34-2.1-4.18-2.34-6.12-1.61-9.7-2.82-4.14-1.41-4.75-4.34-10.41-3.48-5.23.8-4.57 4.69-6.7 7.33ZM979.11 351.62c2.34-1.62 13.84-9.43 15.41-9.64-.16 3.98 3.69 3.53 7.04 3.03 2.31-.34 6.24-2.41 8.22-3.72 9.12-6.02 17.67-12.66 26.48-18.63 54.43-36.87 105.45-70.1 149.42-119 5.98-6.65 6.24-8.96 14-14.01 9.91-6.45 8.59-10.59 14.57-16.43.95-.92 3.26-.83 3.64-1.35 1.43-1.97-1.69-7.22-1.87-9.5-.15-1.94 1.18-4.12.77-5.16-1.21-3.13-11.95-2.85-14.52-4.5-.71-.46-1.46-2.96-3.3-4.21-1.57-1.06-4.05-1.17-4.74-1.75-.94-.8-.77-3.24-1.37-3.63-2.65-1.72-13.97 1.19-16.33 3.9-4.56 5.25-1.26 15.26-2.78 21.22-1.56 6.13-16.21 21.84-21.15 27.36-25.35 28.3-52.43 50.23-81.52 72.94-32.78 25.59-65.32 49.55-97.02 74.98-7.92 6.35-17.21 12.51-24.74 18.81-1.63 1.37-11.12 9.92-9.32 11.65 7.24 2.66 10.95-5.87 14.32-7.64 2.36-1.24 7.15-1.91 9.86-3.46 5.08-2.91 10.41-8.12 14.92-11.25Z" class="cls-1"/><path d="M434.5 388.98H417v53h-37v-53h-17.5c-.11 0-1.5 1.39-1.5 1.5v130c0 .11 1.39 1.5 1.5 1.5H380v-61h37v61h17.5c.11 0 1.5-1.39 1.5-1.5v-130c0-.11-1.39-1.5-1.5-1.5M1035.5 421.98h-16c-1.69 0-1.09 4.28-2 5-8.25-8.92-22.28-8.72-31.83-1.82-19.02 13.75-18.01 56.47-11.93 76.58 6.47 21.45 26.74 30.04 44.25 14.24 2.03 18.43-10.35 26.07-26.99 27.01l5.12 14.88c15.79-.93 30.93-6.63 37.06-22.2 1.8-4.57 3.41-11.37 3.82-16.18v-96c0-.11-1.39-1.5-1.5-1.5Zm-43.37 75.36c-4.38-10.7-5.72-48.94 3.17-57.06 5.97-5.44 19.66-1.27 22.67 6.21v50.96c-6.2 10.92-20.5 12.95-25.84-.11M1272 426.98c-7.62-7-16.8-8.56-26.56-5.06-25.79 9.24-24.67 63.7-16.2 84.32 7.4 18 28.11 24.39 42.26 9.74 1.13.68.19 6 .5 6h19v-138l-19 9zm-23.01 75.51c-7.54-9.1-7.3-41.22-4.34-52.36 1.19-4.48 3.99-10.76 9.06-11.93 6.65-1.54 15.4 1.99 18.27 8.31v50.96c-3.46 8.3-16.96 12.3-22.99 5.03ZM859 624.98v-45l-18 9v129h18c.29 0-.64-4.49.5-5 14.01 13.5 34.34 6.55 42-10.01 8.1-17.51 8.63-60.91-3.52-76.47-10.02-12.83-28.04-13.67-38.98-1.52m26.77 68.27c-5.85 14.98-25.5 9.26-26.79-1.75-1.74-14.79 1.32-32.84.04-48 .6-3.12 7.65-8.65 10.7-9.29 6.79-1.41 11.01.32 14.31 6.23 6.04 10.83 6.21 41.35 1.74 52.8ZM489.5 677.99 469 585.98h-21l35.46 132.06 12.66-.64L530 585.98h-20zM850.5 521.98H868v-79.5c0-1.45-2.32-8.08-3.13-9.87-5.99-13.19-24.51-13.99-36.91-11.16-2.69.62-16.89 6.08-17.83 7.68-1.4 2.4 6.52 11.6 6.89 14.85 6.86-4.29 19.71-8.85 27.35-4.87 1.18.61 4.63 4.43 4.63 5.37v15.5c-30.41-9.05-53.44 10.26-45.51 42.01 5.55 22.2 28.47 29.02 45.5 13.99-.24 1.43-.03 6 1.51 6m-25.95-18.05c-4.82-5.27-5.21-20.38-.21-25.61 4.24-4.44 19.71-4.76 23.69-.86 1.44 1.41 1.34 16.1.99 19.05-1.11 9.53-18.31 14.16-24.47 7.43ZM86 428.99l7.01 14.98c19.04-10.71 36.61-9.64 32.98 17-29.33-11.28-53.1 8.14-46.75 39.26 4.51 22.12 28.53 32.05 45.28 15.75 2.61-1.11 1.16 5.01 1.49 5.99h18v-81.5c0-2.74-4.28-11.39-6.46-13.54-12.1-11.94-38.49-5.98-51.54 2.05Zm40 68.49c0 2.03-5.61 6.39-7.62 7.38-13.06 6.36-21.46-.59-21.43-14.37.04-18.41 15.6-18.07 29.06-12.5v19.5ZM502 521.98h18v-81.5c0-.57-2.3-7.11-2.81-8.19-8.55-18.1-42.31-13.63-54.94-1.83l8.24 13.41c6.17-4.98 15.11-6.95 22.94-5.83 10.53 1.5 8.44 15.07 8.56 22.94-29.23-10.15-50.12 5.21-46.98 36.49 2.42 24.19 28.1 35.17 46.5 18.51 1.13.68.19 5.99.49 5.99Zm0-24.5c0 1.77-5.15 6.08-6.95 7.05-12.74 6.9-22.14-.28-22.14-14.05 0-18.07 16.05-18.28 29.08-12.5v19.5ZM299.61 616.09c-37.43.51-40.9 56.82-29.79 82.57 9.37 21.71 33.6 27.56 53.09 14.74 13.15-8.65 4.01-9.76-3.55-18.34-19.98 16.39-36.59 3.48-36.36-20.07h50.5c.11 0 1.5-1.39 1.5-1.5v-15c0-19-14.35-42.68-35.39-42.39ZM283 657.98c1.65-32.13 31.89-32.23 33 0zM1012.28 619.2c-54.03-22.7-64.41 82.32-25.27 98.27 15.16 6.18 32.31.9 42.97-10.99l-11.47-11.33c-19.93 16.58-35.86 2.7-36.51-20.17h52v-18.5c0-12.35-9.81-32.27-21.72-37.28M983 657.98c-.73-32.22 32.61-31.82 32 0z" class="cls-2"/><path d="M1289.42 151.9c-6.26 10.85-11.36 22.37-17.52 33.27-20.65 36.5-47.8 73.36-74.06 105.19-8.77 10.63-20.37 21.48-27.9 33.06-.89 1.38-.74 3.4-1.49 4.51-.64.96-8.07 3.64-5.45 6.04 2.44 2.23 5.41-1.8 5.73-1.96 18.66-9.27 37.45-31.34 52.84-45.41 1.93-1.76 6.27-4.87 7.36-6.18 1.54-1.85 1.36-4.39 3.08-5.92 2.55-2.27 6.37-.83 8.05-1.98.91-.63.62-2.57 1.19-3.26.72-.88 6.29-4.04 8.16-6.35 2.96-3.65 3.05-3.78 6.28-7.22 1.55-1.66 3.01-6.41 4.61-8.4 11.43-14.17 14.8-20.77 23.98-36.02 8.2-13.62 14.91-26.92 15.69-43.79.34-7.36-.12-19.81-10.57-15.56Z" class="cls-1"/><path d="M759.18 631.66c-13.97 23.31-12.7 82.69 21.56 88.08 47.09 7.41 52.39-70.91 28.91-94.41-14.29-14.3-40.11-10.95-50.47 6.33m41.31 59.31c-6.61 16.37-23.01 14.36-28.22-1.77-4.02-12.46-5.68-52.52 12.49-55.03 3.9-.54 9.41 1.52 12.09 4.45 9.24 10.1 8.55 40.19 3.64 52.35M586 521.98h17.5c.11 0 1.5-1.39 1.5-1.5v-97c0-.11-1.39-1.5-1.5-1.5H586v75.5c0 .78-4.06 4.87-5.3 5.7-5.06 3.42-13.57 4.77-17.72-.68-.87-1.14-2.98-6-2.98-7.02v-72c0-.11-1.39-1.5-1.5-1.5H541v74.5c0 2.62 2.85 12.1 4.13 14.87 7.39 16.01 29.16 15.83 40.86 4.63.23.87-.29 6 .01 6M1341.78 420.26c-42.81 4.03-42.46 86.92-11.3 100.75 60.08 26.67 69.27-106.2 11.3-100.75m2.72 85.79c-15.45.29-17.11-22.51-17.12-33.74 0-10.34 1.4-31.86 14.36-34.1 11.77-2.04 17.28 9.79 19.01 19.53 2.26 12.67 2.35 47.97-16.25 48.32ZM1174.5 419.9c-39.05 0-41.98 61.55-27.92 86.99 12.41 22.44 42.45 21.7 58.4 3.58-2.78-1.47-8.56-11.08-10.62-11.43-1.11-.19-5.65 4.23-7.67 5.11-19.59 8.53-29.83-8.79-28.69-26.19h51c3.11-22.65-6.19-58.07-34.5-58.07Zm-16.5 42.08c.3-8.9 3.83-23.17 14.44-24.07 13.87-1.17 16.88 13.28 18.56 24.07zM908.01 427.98c.24-1.43.03-6-1.51-6h-16c-.11 0-1.5 1.39-1.5 1.5v98.5h17.5c.11 0 1.5-1.39 1.5-1.5v-75c0-.9 6.3-5.65 7.76-6.24 4.29-1.72 10.97-2.21 14.28 1.47.99 1.1 3.96 8.64 3.96 9.77v71.5h17.5c.11 0 1.5-1.39 1.5-1.5v-68c0-3.47-1.97-13.24-3.22-16.78-6.36-18.01-28.86-20.23-41.77-7.72M689.01 623.98c-.2-.79.24-5-.01-5h-19v99h17.5c.11 0 1.5-1.39 1.5-1.5v-74c0-5.37 16.89-13.43 23.01-4.01.68 1.05 2.99 7.24 2.99 8.01v71.5h17.5c.11 0 1.5-1.39 1.5-1.5v-69c0-3.31-2.23-13.09-3.52-16.48-6.67-17.56-28.64-18.68-41.47-7.02M1103 496.48c0 6.06-17.19 13.92-23.05 6.79-1.25-1.52-3.95-9.96-3.95-11.79v-69.5h-18v78.5c0 4.84 5.82 15.91 10.06 18.94 11.03 7.86 24.76 5.09 34.43-3.45 1.14-.03.21 6.01.51 6.01h18v-100h-18zM194.5 493.99 177 421.98h-19l26.78 98.76c-1.13 11.02-8.68 23.84-10.38 34.17-.18 1.09.68 2.07 1.1 2.07h16l39.5-135h-18.5zM1095.47 667.01c-7.61-6.39-32.87-15.74-27.71-27.77 4.54-10.59 21.93-2.72 28.68 1.73 1.05-.23 7.93-13.82 7.48-15.34-23.07-17.44-59.81-10.61-54.66 24.59 1.09 7.46 6.07 13.69 11.83 18.17 7.24 5.65 36.45 16.92 24.94 30.11-7.69 8.82-25.93.16-34.01-4.52l-5.93 15.34c20.06 16.74 59.39 15.58 60.95-16.8.54-11.08-3.3-18.56-11.57-25.51M271.49 523.96c29.43-2 37.55-36.08 16.43-53.4-6.99-5.73-37.08-17.54-25.94-30.11 6.21-7 21.46 1.07 28.01 4.52l6.96-15.91c-16.98-11.8-47.76-14.48-54.49 9.87-3.83 13.87.62 24.81 11.63 33.46 8.14 6.39 36.62 16.42 23.95 30.12-7.96 8.61-24.16.47-32.56-4.44-.9.07-7.27 13.61-7.21 14.41.45 6.12 27.31 11.87 33.21 11.47ZM731.5 388.98c-.11 0-1.5 1.39-1.5 1.5v130c0 .11 1.39 1.5 1.5 1.5h59c.11 0 1.5-1.39 1.5-1.5v-16c0-.11-1.39-1.5-1.5-1.5H749v-114zM649.97 503.51c-.44-.66-1.97-4.58-1.97-5.03v-58.5h19v-18h-19v-38l-17.84 9.16c-1.07 3.78.86 27.82-.16 28.85-.54.54-11.01-1.17-11.01 1.49v16.5h11v66.5c0 4.69 5.44 12.96 9.73 15.27 5.48 2.95 24.29 2.38 26.11-3.42.41-1.31 1.67-14.77 1.15-15.34-4.75 1.85-13.39 6-17.03.53ZM375.56 698.92c-.25-.53-1.56-5.16-1.56-5.44v-57.5h19v-17h-19v-39c-5.55 4.25-12.95 5.67-18 10.5v28.5h-11v17h11v66.5c0 .7 2.54 7.79 3.15 8.85 5.69 9.84 20.25 10.83 29.55 5.85 5.76-3.08 2.73-12.71 5.3-18.19-.79-.61-14.73 7.67-18.44-.07" class="cls-2"/><path d="M1431.39 438.05c8.06.86 12.72 10.75 14.1 10.75.93 0 12.54-10 12.52-11.3-.06-5.49-13.8-14.59-19-16.04-59.75-16.62-59.69 119.52.76 100.8 5.66-1.75 15.6-8.8 17.73-14.34 1.69-4.4-9.45-9.36-12.01-12.93-.64.01-3.76 5.54-4.86 6.62-10.94 10.74-22.08 1.83-25.17-10.61-3.18-12.77-5.07-55.2 15.93-52.96ZM926 716.48c0 .11 1.39 1.5 1.5 1.5H945v-138c-6.22 3.61-13.59 5.67-19 10.5zM545 618.98h18v99h-18zM550.73 581.21c-12.79 2.61-10.21 23.88 4.33 22.33 15.11-1.61 12.74-25.81-4.33-22.33" class="cls-2"/></g></svg>