<svg xmlns="http://www.w3.org/2000/svg" width="144" height="83" fill="none"><g clip-path="url(#a)"><path fill="#143F94" d="M25.155 7.386c7.328 0 12.64 3.073 12.64 11.224v3.312C12.77 26.365 2.052 32.402.442 43.745h8.834c2.27-6.672 11.708-11.302 28.52-14.255v14.255h8.511v-25.25C46.306 5.031 35.436.068 25.03.068c-11.568 0-19.135 5.9-23.036 12.99l7.442 3.895c1.662-4.135 6.266-9.567 15.719-9.567M20.853 53.87h1.15l-.562-3.584h-.026zm-.464 3.094h-1.385l1.542-8.339h1.776l1.53 8.339h-1.38l-.255-1.844h-1.572zM26.022 54.495c.485 0 .88-.37.88-1.516 0-1.14-.396-1.51-.88-1.51-.479 0-.875.37-.875 1.51 0 1.146.396 1.516.875 1.516m-.364 2.146c-.485.208-.813.49-.813.823 0 .5.412.838 1.318.838.922 0 1.255-.37 1.255-.849 0-.557-1.042-.646-1.76-.812m2.588-5.032c-.099-.026-.161-.026-.24-.026-.224 0-.37.094-.526.23.115.374.183.676.183 1.156 0 1.505-.683 2.15-1.61 2.15-.187 0-.375-.04-.557-.04-.14.03-.422.15-.422.39 0 .422.682.442 1.459.61.864.176 1.64.463 1.64 1.442 0 .781-.755 1.406-2.031 1.406-1.365 0-2.052-.5-2.052-1.292 0-.536.328-.968.87-1.197-.355-.12-.646-.412-.646-.813 0-.448.396-.73.786-.797-.474-.333-.713-1.094-.713-1.719 0-1.432.687-2.265 1.74-2.265.4 0 .906.177 1.104.557.187-.323.505-.557 1.015-.557zM31.436 53.406c-.015-1.291-.255-1.864-1.005-1.864-.594 0-.99.437-1 1.864zm-2.005.698v.334c0 1.458.328 1.953 1.115 1.953.635 0 .906-.594 1-1.141l.796.099c-.135.901-.812 1.73-1.911 1.73-1.255 0-1.833-.949-1.833-3.115 0-2.172.578-3.12 1.833-3.12 1.276 0 1.838 1.135 1.838 2.864v.396zM33.05 50.964h.787v.656c.39-.406.969-.776 1.365-.776.828 0 1.312.468 1.312 1.573v4.547h-.828V52.53c0-.692-.203-.99-.656-.99-.406 0-.776.272-1.14.74v4.683h-.84zM40.077 52.74c-.084-.901-.448-1.198-.959-1.198-.697 0-1 .437-1 2.422 0 1.979.303 2.427 1 2.427.537 0 .839-.282.98-1.318h.807c-.136 1.177-.698 2.005-1.787 2.005-1.25 0-1.833-.948-1.833-3.114 0-2.172.584-3.12 1.834-3.12 1.088 0 1.604.718 1.76 1.896zM44.16 53.406c-.026-1.291-.255-1.864-1.005-1.864-.604 0-.995.437-1.01 1.864zm-2.015.698v.334c0 1.458.343 1.953 1.12 1.953.64 0 .906-.594 1.005-1.141l.791.099c-.135.901-.807 1.73-1.906 1.73-1.255 0-1.839-.949-1.839-3.115 0-2.172.584-3.12 1.839-3.12 1.266 0 1.833 1.135 1.833 2.864v.396zM49.162 52.365h.51c.781 0 1.062-.282 1.062-1.276 0-.995-.28-1.282-1.062-1.282h-.51zm0 4.599h-1.428v-8.339h2.01c1.6 0 2.423.682 2.423 2.464 0 1.343-.521 1.88-1.006 2.104l1.214 3.77h-1.453l-1.016-3.447c-.182.015-.49.031-.745.031zM54.525 50.286h-.584l1.136-1.588h.896zm1.067 3.12c-.02-1.292-.255-1.864-1.005-1.864-.599 0-.984.437-1.005 1.864zm-2.01.698v.333c0 1.459.339 1.954 1.125 1.954.63 0 .901-.594 1.005-1.141l.781.099c-.12.9-.812 1.729-1.906 1.729-1.26 0-1.833-.948-1.833-3.115 0-2.172.573-3.12 1.833-3.12 1.271 0 1.839 1.136 1.839 2.865v.396zM58.876 54.495c.48 0 .87-.37.87-1.516 0-1.14-.39-1.51-.87-1.51-.494 0-.88.37-.88 1.51 0 1.146.386 1.516.88 1.516m-.375 2.146c-.479.208-.807.49-.807.823 0 .5.422.838 1.323.838.917 0 1.24-.37 1.24-.849 0-.557-1.037-.646-1.756-.812m2.584-5.032c-.084-.026-.162-.026-.235-.026-.224 0-.375.094-.526.23.12.374.183.676.183 1.156 0 1.505-.688 2.15-1.61 2.15-.182 0-.37-.04-.562-.04-.136.03-.407.15-.407.39 0 .422.683.442 1.448.61.87.176 1.646.463 1.646 1.442 0 .781-.765 1.406-2.031 1.406-1.365 0-2.057-.5-2.057-1.292 0-.536.333-.968.87-1.197-.355-.12-.641-.412-.641-.813 0-.448.396-.73.786-.797-.468-.333-.713-1.094-.713-1.719 0-1.432.692-2.265 1.734-2.265.401 0 .906.177 1.099.557.188-.323.516-.557 1.016-.557zM61.906 50.964h.834v6h-.834zm0-2.334h.834v.97h-.834zM65.375 56.39c.714 0 1.01-.447 1.01-2.426 0-1.985-.296-2.422-1.01-2.422-.698 0-.995.437-.995 2.422 0 1.979.297 2.427.995 2.427m0-5.546c1.266 0 1.833.948 1.833 3.12 0 2.166-.567 3.114-1.833 3.114-1.25 0-1.828-.948-1.828-3.114 0-2.172.578-3.12 1.828-3.12M68 50.964h.787v.656c.39-.406.968-.776 1.359-.776.833 0 1.323.468 1.323 1.573v4.547h-.839V52.53c0-.692-.203-.99-.656-.99-.401 0-.776.272-1.14.74v4.683H68zM75.219 53.734c-.76.23-2.005.787-2.005 1.735 0 .557.255.922.859.922.448 0 .844-.313 1.146-.63zM72.547 52.6c.156-.948.719-1.755 1.781-1.755 1.11 0 1.714.646 1.714 1.708v3.344c0 .541.057.927.15 1.068h-.859l-.109-.5c-.323.317-.896.614-1.276.614-.938 0-1.557-.599-1.557-1.547 0-1.474 1.63-2.229 2.828-2.49v-.432c0-.656-.339-1.067-.87-1.067-.636 0-.948.63-1.037 1.177zM77.363 48.63h.828v8.334h-.828zM81.84 53.406c-.021-1.291-.25-1.864-1-1.864-.604 0-.995.437-1.005 1.864zm-2.005.698v.334c0 1.458.328 1.953 1.12 1.953.635 0 .895-.594 1.005-1.141l.786.099c-.13.901-.812 1.73-1.906 1.73-1.266 0-1.844-.949-1.844-3.115 0-2.172.578-3.12 1.844-3.12s1.828 1.135 1.828 2.864v.396zM88.12 52.068c-.24-.24-.531-.526-.901-.526-.709 0-1.11.573-1.11 2.422s.438 2.427 1.13 2.427c.261 0 .626-.235.88-.578zm.151 4.323h-.031c-.282.422-.698.687-1.23.687-.948 0-1.729-.802-1.729-3.114 0-2.313.781-3.12 1.73-3.12.453 0 .822.27 1.109.552v-2.771h.823v6.724c0 .781.057 1.266.15 1.615h-.79zM92.63 53.406c-.026-1.291-.255-1.864-1.01-1.864-.594 0-.985.437-1 1.864zm-2.01.698v.334c0 1.458.338 1.953 1.12 1.953.635 0 .9-.594 1.005-1.141l.786.099c-.13.901-.807 1.73-1.911 1.73-1.255 0-1.823-.949-1.823-3.115 0-2.172.568-3.12 1.823-3.12 1.276 0 1.838 1.135 1.838 2.864v.396zM98.814 50.682c-.052-.713-.438-.922-.755-.922-.459 0-.72.302-.72.818 0 1.422 2.912 2.104 2.912 4.365 0 1.375-.922 2.135-2.26 2.135-1.334 0-2.094-1.057-2.151-2.307l1.36-.198c.062.849.4 1.26.859 1.26.5 0 .833-.265.833-.76 0-1.657-2.911-2.089-2.911-4.485 0-1.322.802-2.078 2.208-2.078 1.166 0 1.87.844 1.989 2.021zM103.564 53.734c-.766.23-2.005.787-2.005 1.735 0 .557.26.922.859.922.448 0 .844-.313 1.146-.63zm-2.667-1.135c.156-.948.714-1.755 1.771-1.755 1.11 0 1.724.646 1.724 1.708v3.344c0 .541.058.927.156 1.068h-.875l-.099-.5c-.323.317-.906.614-1.286.614-.933 0-1.558-.599-1.558-1.547 0-1.474 1.631-2.229 2.834-2.49v-.432c0-.656-.339-1.067-.87-1.067-.635 0-.948.63-1.042 1.177zM105.668 50.964h.781v.656c.396-.406.979-.776 1.37-.776.828 0 1.318.468 1.318 1.573v4.547h-.834V52.53c0-.692-.203-.99-.656-.99-.406 0-.771.272-1.146.74v4.683h-.833zM109.594 50.964h.807v-2.01h.833v2.01h1.11v.687h-1.11v4.203c0 .35.183.61.594.61.167 0 .375-.073.516-.125v.625a2.4 2.4 0 0 1-.792.114c-.781 0-1.151-.36-1.151-1.297v-4.13h-.807zM114.415 50.286h-.573l1.131-1.588h.901zm1.078 3.12c-.026-1.292-.26-1.864-1.005-1.864-.604 0-.995.437-1.005 1.864zm-2.01.698v.333c0 1.459.333 1.954 1.12 1.954.63 0 .901-.594 1.005-1.141l.787.099c-.131.9-.813 1.729-1.907 1.729-1.26 0-1.843-.948-1.843-3.115 0-2.172.583-3.12 1.843-3.12 1.271 0 1.834 1.136 1.834 2.865v.396z"/><path fill="#E31E1E" d="M12.552 48.459a4.194 4.194 0 0 1 4.214 4.192 4.207 4.207 0 0 1-4.214 4.203c-2.323 0-4.177-1.88-4.177-4.203a4.167 4.167 0 0 1 4.177-4.193"/><path fill="#fff" d="M8.46 48.459a4.193 4.193 0 0 1 4.208 4.192 4.206 4.206 0 0 1-4.208 4.203 4.18 4.18 0 0 1-4.183-4.203 4.17 4.17 0 0 1 4.183-4.193"/><path fill="#143F94" d="M4.193 48.459A4.197 4.197 0 0 1 8.4 52.65a4.21 4.21 0 0 1-4.208 4.203A4.19 4.19 0 0 1 0 52.651a4.177 4.177 0 0 1 4.193-4.193"/><path fill="#94BF1E" d="M91.849 61.89c7.505 10.725 14.25 13.485 24.667 13.485 10.109 0 17.77-6.583 17.77-15.177 0-23.125-46.88-10.104-46.88-38.443C87.406 6.74 99.203 0 112.688 0c13.322 0 21.75 5.208 27.416 14.401l-7.041 4.896c-5.365-7.35-11.183-11.943-20.683-11.943-8.885 0-15.781 4.287-15.781 13.933 0 19.463 46.88 7.973 46.88 38.91 0 14.256-13.177 22.527-27.573 22.527-12.26 0-23.286-4.901-30.797-16.083z"/><path fill="#143F94" d="M63.173 43.745V28.662c4.021-12.646 9.578-19.62 20.209-19.855V.297c-10.162 0-15.245 4.734-19.98 13.115h-.229V1.24h-8.505v42.505z"/></g><defs><clipPath id="a"><path fill="#fff" d="M0 0h143.479v82.724H0z"/></clipPath></defs></svg>