<?xml version="1.0" encoding="UTF-8"?>
<svg id="Calque_2" data-name="Calque 2" xmlns="http://www.w3.org/2000/svg" viewBox="0 0 171.44 176.21">
  <defs>
    <style>
      .cls-1 {
        fill: #293682;
      }

      .cls-2 {
        fill: #36a8e0;
      }

      .cls-3 {
        fill: #1c1c1c;
      }

      .cls-4 {
        fill: #ffd900;
      }

      .cls-5 {
        fill: #52ad33;
      }

      .cls-6 {
        fill: #007329;
      }

      .cls-7 {
        fill: #fff;
      }

      .cls-8 {
        fill: #0085cc;
      }

      .cls-9 {
        fill: #abc712;
      }
    </style>
  </defs>
  <g id="svg2">
    <g id="g122">
      <g id="g128">
        <path id="path130" class="cls-3" d="M17.64,128.03v-4.88c0-.49-.04-.91-.13-1.27-.09-.36-.21-.7-.36-1.01-.15-.31-.39-.62-.7-.93-.62-.66-1.42-1.09-2.39-1.3-.97-.21-1.87-.17-2.7.1-.38.14-.79.28-1.22.42-.43.14-.87.29-1.32.47v4.36c1.04-.35,1.85-.57,2.44-.68.59-.1,1.03-.09,1.32.05.29.14.48.39.55.75.07.36.1.84.1,1.43v7.73c0,.28-.05.6-.15.96-.1.36-.32.7-.65,1.01-.33.31-.79.58-1.38.81-.59.23-1.38.34-2.39.34-.93,0-1.68-.11-2.25-.34-.57-.22-1.01-.5-1.32-.83-.31-.33-.51-.67-.6-1.04-.09-.36-.13-.7-.13-1.01v-24.18c0-.31.04-.65.13-1.01.09-.36.29-.72.6-1.06.31-.35.75-.63,1.32-.86.57-.22,1.32-.34,2.25-.34,1,0,1.8.11,2.39.34.59.23,1.05.49,1.38.81.33.31.54.65.65,1.01.11.36.15.7.15,1.01v.57h4.41v-1.35c0-.38-.07-.92-.21-1.63-.14-.71-.5-1.41-1.09-2.1-.59-.69-1.47-1.29-2.64-1.79-1.18-.5-2.8-.75-4.88-.75s-3.7.25-4.88.75c-1.18.5-2.06,1.1-2.65,1.79-.59.69-.95,1.39-1.09,2.1-.14.71-.21,1.26-.21,1.63v25.89c0,.38.07.92.21,1.64.14.71.5,1.41,1.09,2.1.59.69,1.47,1.29,2.65,1.79,1.17.5,2.8.75,4.88.75s3.7-.25,4.88-.75c1.17-.5,2.06-1.1,2.64-1.79.59-.69.95-1.39,1.09-2.08.13-.69.21-1.24.21-1.66v-5.97ZM26.72,113.21c-1.18.5-2.06,1.1-2.65,1.79-.59.69-.95,1.39-1.09,2.1-.14.71-.21,1.25-.21,1.64v21.17h4.41v-20.29c0-.31.04-.65.13-1.01.09-.36.28-.71.6-1.04.31-.33.75-.61,1.32-.86.57-.24,1.32-.36,2.26-.36.38,0,.71,0,.99-.03.28-.02.62-.03,1.04-.03l.99-3.79c-.49-.07-.94-.09-1.38-.08-.43.02-.94.03-1.53.03-2.08,0-3.7.25-4.88.75M42.45,112.9c-1.11.33-2.02.78-2.75,1.35-.73.57-1.25,1.24-1.58,2-.33.76-.49,1.57-.49,2.44v1.25h4.41c0-1,.3-1.86.91-2.57.6-.71,1.77-1.06,3.5-1.06.86,0,1.58.09,2.15.28.57.19,1.03.44,1.38.75.35.31.59.65.73,1.01.14.36.21.72.21,1.06v.99c0,.42-.08.78-.23,1.09-.16.31-.34.59-.55.83-.21.24-.42.42-.65.54-.23.12-.41.22-.55.29-.14.03-.48.15-1.04.36-.55.21-1.2.44-1.95.7-.75.26-1.51.53-2.31.8-.8.28-1.51.52-2.13.73-1.24.45-2.21,1.21-2.88,2.28-.67,1.07-1.01,2.27-1.01,3.58v2.44c0,.62.11,1.3.34,2.05.23.75.67,1.43,1.32,2.05.66.62,1.56,1.14,2.7,1.56,1.14.41,2.63.62,4.46.62s3.32-.21,4.46-.62c1.14-.42,2.04-.93,2.7-1.56.66-.62,1.1-1.3,1.32-2.05.22-.74.34-1.43.34-2.05v-15.36c0-1.8-.71-3.29-2.13-4.49-1.42-1.19-3.65-1.79-6.69-1.79-1.55,0-2.89.17-4,.49M50.9,132.54c0,1.25-.31,2.21-.93,2.88-.62.67-1.8,1.01-3.53,1.01s-2.85-.32-3.48-.96c-.62-.64-.93-1.62-.93-2.93,0-.66.13-1.2.39-1.63.26-.43.54-.79.85-1.06.38-.31.78-.55,1.19-.73.55-.21,1.14-.42,1.77-.62.52-.17,1.08-.37,1.69-.59.61-.23,1.17-.43,1.69-.6.24-.07.5-.19.78-.36.28-.17.45-.43.52-.78v6.38ZM78.04,119.21v-.52c0-.38-.07-.92-.21-1.63-.14-.71-.5-1.41-1.09-2.1-.59-.69-1.47-1.29-2.65-1.79-1.18-.5-2.8-.75-4.88-.75s-3.7.25-4.88.75c-1.17.5-2.07,1.1-2.67,1.79-.61.69-.98,1.38-1.11,2.08-.14.69-.21,1.25-.21,1.66v21.22h4.41v-20.5c0-.28.05-.6.15-.96.11-.36.32-.7.65-1.01.33-.31.8-.58,1.4-.81.6-.23,1.39-.34,2.36-.34s1.69.11,2.26.34c.57.23,1.01.5,1.32.83.31.33.51.68.6,1.04.09.36.13.7.13,1.01v20.39h4.41v-20.7ZM100.77,102.29h-4.41v7.63c0,.42-.08.78-.23,1.09-.15.31-.34.59-.54.83-.21.24-.42.43-.65.55-.22.12-.41.21-.54.28-.14.04-.49.16-1.04.36-.55.21-1.19.44-1.92.7-.73.26-1.49.53-2.28.81-.79.28-1.5.52-2.13.73-1.28.45-2.26,1.21-2.93,2.28-.68,1.07-1.01,2.27-1.01,3.58v1.19h.05v10.53h-.05v1.24c0,.87.16,1.68.49,2.44s.86,1.43,1.58,2c.73.57,1.65,1.02,2.78,1.35,1.13.33,2.47.49,4.02.49,3.01,0,5.23-.6,6.64-1.79,1.42-1.19,2.15-2.69,2.18-4.49v-31.81ZM89.85,136.2c-.57-.19-1.02-.44-1.35-.75-.33-.31-.57-.67-.72-1.09-.16-.41-.25-.85-.29-1.3v-11c0-.65.13-1.2.39-1.63.26-.43.55-.79.86-1.06.38-.34.78-.6,1.19-.78.55-.21,1.14-.42,1.76-.62.52-.17,1.08-.36,1.69-.57.6-.21,1.17-.4,1.69-.57.27-.07.54-.19.8-.36.26-.17.43-.45.49-.83v17.69c0,.35-.07.71-.21,1.09-.14.38-.37.73-.7,1.04-.33.31-.78.56-1.35.75s-1.29.28-2.16.28-1.53-.09-2.1-.28M133.87,108.62v-.52c0-.38-.07-.92-.21-1.63-.14-.71-.5-1.41-1.09-2.1-.59-.69-1.47-1.29-2.65-1.79-1.17-.5-2.8-.75-4.87-.75s-3.7.25-4.88.75c-1.17.5-2.06,1.1-2.65,1.79-.59.69-.95,1.39-1.09,2.1-.14.71-.21,1.26-.21,1.63v25.89c0,.38.07.92.21,1.64.14.71.5,1.41,1.09,2.1.59.69,1.47,1.29,2.65,1.79,1.18.5,2.8.75,4.88.75s3.7-.25,4.87-.75c1.18-.5,2.06-1.1,2.65-1.79.59-.69.95-1.39,1.09-2.08.14-.69.21-1.24.21-1.66v-25.37ZM129.47,133.27c0,.28-.05.6-.15.96-.1.36-.31.7-.62,1.01-.31.31-.77.58-1.38.81-.61.23-1.41.34-2.41.34-.93,0-1.69-.11-2.26-.34-.57-.22-1.01-.5-1.32-.83-.31-.33-.51-.67-.6-1.04-.09-.36-.13-.7-.13-1.01v-24.18c0-.31.04-.65.13-1.01s.29-.72.6-1.06c.31-.35.75-.63,1.32-.86.57-.22,1.32-.34,2.26-.34,1,0,1.81.11,2.41.34.6.23,1.06.49,1.38.81.31.31.52.65.62,1.01.1.36.15.7.15,1.01v.57h.05v23.25h-.05v.57ZM142.91,113.21c-1.18.5-2.06,1.1-2.65,1.79-.59.69-.95,1.39-1.09,2.1-.14.71-.21,1.25-.21,1.64v21.17h4.41v-20.29c0-.31.04-.65.13-1.01.09-.36.29-.71.6-1.04.31-.33.75-.61,1.32-.86.57-.24,1.32-.36,2.26-.36.38,0,.71,0,.99-.03.28-.02.62-.03,1.04-.03l.98-3.79c-.48-.07-.94-.09-1.37-.08s-.94.03-1.53.03c-2.08,0-3.7.25-4.88.75M171.44,122.32v-1.25c0-1.31-.34-2.51-1.01-3.58-.67-1.07-1.63-1.83-2.88-2.28-.62-.21-1.33-.45-2.13-.72-.8-.28-1.57-.55-2.31-.81-.75-.26-1.4-.49-1.95-.7-.55-.21-.9-.33-1.04-.36-.14-.07-.32-.17-.55-.29-.23-.12-.44-.3-.65-.55-.21-.24-.38-.52-.52-.83-.14-.31-.21-.67-.21-1.09v-7.57h-4.41v31.81c.03,1.76.75,3.25,2.15,4.44,1.4,1.19,3.62,1.79,6.67,1.79,1.55,0,2.89-.16,3.99-.49,1.11-.33,2.02-.78,2.75-1.35.73-.57,1.25-1.24,1.58-2,.33-.76.49-1.57.49-2.44v-11.73ZM167.09,133.06c-.04.9-.37,1.69-1.01,2.36-.64.67-1.79,1.01-3.45,1.01-.87,0-1.58-.09-2.15-.29-.57-.19-1.02-.44-1.35-.75s-.56-.66-.7-1.04c-.14-.38-.21-.74-.21-1.09v.05-17.75c.07.38.23.66.49.83.26.17.51.29.75.36.55.17,1.12.37,1.71.6.59.23,1.14.42,1.66.6.62.21,1.21.41,1.76.62.45.17.86.41,1.24.73.31.28.59.63.83,1.06.24.43.36.98.36,1.63v.31h.05v10.74Z"/>
      </g>
    </g>
    <g id="g132">
      <path id="path134" class="cls-1" d="M66.47,41.19l-19.5-4.73,9.15,26.92,8.61-7.86,1.75-14.33Z"/>
    </g>
    <g id="g136">
      <path id="path138" class="cls-1" d="M65.53,91.1l.99,2.91,24.73-12.3-14.09-.84-11.63,10.23Z"/>
    </g>
    <g id="g140">
      <path id="path142" class="cls-1" d="M137.86,58.52l-20.69-5.02,1.95,14.34,18.73-9.32Z"/>
    </g>
    <g id="g144">
      <path id="path146" class="cls-2" d="M119.12,67.84l-27.87,13.87,30.01,1.78-2.13-15.65Z"/>
    </g>
    <g id="g148">
      <path id="path150" class="cls-2" d="M56.12,63.39l-16.68,15.24,22.31,1.33h0s-5.63-16.57-5.63-16.57Z"/>
    </g>
    <g id="g152">
      <path id="path154" class="cls-2" d="M111.6,12.69l-7.52,6.87,9.21,5.53-1.69-12.4Z"/>
    </g>
    <g id="g156">
      <path id="path158" class="cls-2" d="M117.17,53.5l-.95-6.99-6.02,5.3,6.97,1.69Z"/>
    </g>
    <g id="g160">
      <path id="path162" class="cls-8" d="M64.72,55.53l-8.61,7.86,5.62,16.56,2.98-24.42Z"/>
    </g>
    <g id="g164">
      <path id="path166" class="cls-8" d="M117.17,53.5l-6.97-1.69-33.04,29.07,14.09.83,27.87-13.87-1.95-14.34Z"/>
    </g>
    <g id="g168">
      <path id="path170" class="cls-4" d="M129.5,34.82l-16.2-9.73,2.92,21.41,13.28-11.68Z"/>
    </g>
    <g id="g172">
      <path id="path174" class="cls-4" d="M61.74,79.95l-1.98,16.22,5.77-5.07-3.79-11.15h0Z"/>
    </g>
    <g id="g176">
      <path id="path178" class="cls-4" d="M71.49,0l-5.02,41.2,11.01,2.67,26.6-24.3L71.49,0Z"/>
    </g>
    <g id="g180">
      <path id="path182" class="cls-6" d="M77.48,43.87l-11.01-2.67-1.75,14.33,12.76-11.66Z"/>
    </g>
    <g id="g184">
      <path id="path186" class="cls-6" d="M61.74,79.95l3.79,11.15,11.63-10.23-15.41-.92Z"/>
    </g>
    <g id="g188">
      <path id="path190" class="cls-9" d="M110.19,51.8l6.02-5.3-2.92-21.41-9.21-5.53-26.6,24.3,32.71,7.94Z"/>
    </g>
    <g id="g192">
      <path id="path194" class="cls-5" d="M64.72,55.53l-2.98,24.42h0s15.41.92,15.41.92l33.04-29.07-32.71-7.94-12.76,11.66Z"/>
    </g>
    <g id="g196">
      <g id="g198">
        <g id="g204">
          <path id="path206" class="cls-7" d="M85.07,14.34c.55-1.44,1.96-2.66,4.21-3.66l-5.04-3.03c-1.92,1.34-3.23,2.95-3.96,4.86-2.57,6.74,3.06,14.58,8.51,22.17,5.02,6.99,8.67,12.49,6.32,14.56-5.03,4.43-3.87,9.24-2.94,13.1.81,3.39,1.46,6.06-1.12,9.05-4.11,4.74-9.66,5.24-16.09,5.81-4.45.4-9.01.82-13.23,2.76l-.78,6.39c3.96-2.81,9.33-3.59,14.47-4.05,6.58-.59,14.03-1.26,19.5-7.56,4.31-4.97,3.16-9.75,2.24-13.6-.92-3.83-1.25-5.77,1.35-8.06,6.02-5.3.14-13.48-5.54-21.39-4.44-6.19-9.48-13.19-7.89-17.36"/>
        </g>
        <g id="g208">
          <path id="path210" class="cls-3" d="M3.69,159.19c-2.34,0-3.66-2.26-3.66-5.03s1.31-5.02,3.66-5.02c.87,0,1.47.23,1.9.54l-.31.77c-.3-.18-.75-.38-1.36-.38-1.87,0-2.53,2.03-2.53,4.1s.72,4.05,2.51,4.05c.6,0,.99-.15,1.36-.39l.34.83c-.43.33-1.12.54-1.92.54"/>
        </g>
        <g id="g212">
          <path id="path214" class="cls-3" d="M9.96,150c-1.79,0-2.21,2.14-2.21,4.11s.37,4.1,2.21,4.1,2.2-2.13,2.2-4.1-.42-4.11-2.2-4.11M9.96,159.19c-2.54,0-3.53-2.23-3.53-5.03s.99-5.02,3.53-5.02,3.52,2.25,3.52,5.02-1,5.03-3.52,5.03"/>
        </g>
        <g id="g216">
          <path id="path218" class="cls-3" d="M23.23,159.04c-.01-.13-.75-7.31-.75-7.31-.05-.61-.07-1.15-.07-1.15h-.03s-.1.54-.27,1.15c0,0-2.01,7.14-2.07,7.31h-.87c-.04-.14-2.04-7.32-2.04-7.32-.16-.58-.27-1.14-.27-1.14h-.03s-.01.56-.07,1.14c0,0-.75,7.18-.77,7.32h-1.12l1.16-9.77h1.38l1.96,7.06c.18.65.26,1.11.26,1.11h.03s.07-.46.26-1.09l2.02-7.07h1.38l1.16,9.77h-1.24Z"/>
        </g>
        <g id="g220">
          <path id="path222" class="cls-3" d="M34.31,159.04c-.01-.13-.75-7.31-.75-7.31-.05-.61-.07-1.15-.07-1.15h-.03s-.1.54-.27,1.15c0,0-2.01,7.14-2.07,7.31h-.87c-.04-.14-2.04-7.32-2.04-7.32-.16-.58-.27-1.14-.27-1.14h-.03s-.01.56-.07,1.14c0,0-.75,7.18-.77,7.32h-1.12l1.16-9.77h1.38l1.96,7.06c.18.65.26,1.11.26,1.11h.03s.07-.46.26-1.09l2.02-7.07h1.38l1.16,9.77h-1.24Z"/>
        </g>
        <g id="g224">
          <path id="path226" class="cls-3" d="M40.28,159.2c-1.86,0-3.04-1.28-3.04-2.94v-6.98h1.3v6.97c0,1.23.84,1.93,1.8,1.93s1.79-.7,1.79-1.93v-6.97h1.19v6.98c0,1.66-1.18,2.94-3.05,2.94"/>
        </g>
        <g id="g228">
          <path id="path230" class="cls-3" d="M51.37,159.04l-4.16-7.13c-.35-.61-.63-1.18-.63-1.18h-.03s.04.6.04,1.21v7.1h-1.09v-9.77h1.38l3.99,6.85c.35.6.55,1.04.55,1.04h.03s-.04-.47-.04-1.08v-6.82h1.09v9.77h-1.13Z"/>
        </g>
        <g id="g232">
          <path id="path234" class="cls-3" d="M58,151.64c-.24-.77-.28-1.18-.28-1.18h-.03s-.05.41-.3,1.18l-1.16,3.7h2.91l-1.14-3.7ZM60.27,159.04l-.92-2.92h-3.35l-.95,2.92h-1.19l3.31-9.77h1.16l3.29,9.77h-1.35Z"/>
        </g>
        <g id="g236">
          <path id="path238" class="cls-3" d="M65.87,159.2c-1.86,0-3.04-1.28-3.04-2.94v-6.98h1.3v6.97c0,1.23.84,1.93,1.8,1.93s1.79-.7,1.79-1.93v-6.97h1.19v6.98c0,1.66-1.18,2.94-3.05,2.94"/>
        </g>
      </g>
    </g>
    <g id="g240">
      <path id="path242" class="cls-3" d="M73.68,150.16v8.89h-1.3v-8.89h-1.94v-.88h5.19v.88h-1.95Z"/>
    </g>
    <g id="g244">
      <g id="g246">
        <g id="g252">
          <path id="path254" class="cls-3" d="M79.46,148.54h-.71l.99-1.94c.5-.31,1.21-.33,1.33.01l-1.62,1.93ZM77.13,159.04v-9.77h4.53v.88h-3.22v3.41h2.89v.87h-2.89v3.73h3.22v.88h-4.53Z"/>
        </g>
        <g id="g256">
          <path id="path258" class="cls-3" d="M89.79,149.98c-.51,0-.87.05-1.21.2v7.91c.28.11.72.18,1.22.18,1.97,0,2.73-1.46,2.73-4.21s-.88-4.07-2.74-4.07M89.87,159.19c-1.12,0-2.07-.23-2.58-.53v-8.99c.57-.31,1.46-.54,2.53-.54,2.7,0,4.06,1.9,4.06,4.93s-1.24,5.13-4,5.13"/>
        </g>
      </g>
    </g>
    <g id="g260">
      <path id="path262" class="cls-3" d="M95.73,159.04v-9.77h4.53v.88h-3.22v3.41h2.9v.87h-2.9v3.73h3.22v.88h-4.53Z"/>
    </g>
    <g id="g264">
      <g id="g266">
        <g id="g272">
          <path id="path274" class="cls-3" d="M109.24,159.19c-2.34,0-3.66-2.26-3.66-5.03s1.31-5.02,3.66-5.02c.87,0,1.47.23,1.9.54l-.31.77c-.3-.18-.75-.38-1.36-.38-1.87,0-2.53,2.03-2.53,4.1s.72,4.05,2.51,4.05c.6,0,.99-.15,1.36-.39l.34.83c-.43.33-1.12.54-1.92.54"/>
        </g>
        <g id="g276">
          <path id="path278" class="cls-3" d="M115.5,150c-1.79,0-2.21,2.14-2.21,4.11s.37,4.1,2.21,4.1,2.2-2.13,2.2-4.1-.42-4.11-2.2-4.11M115.5,159.19c-2.54,0-3.53-2.23-3.53-5.03s.99-5.02,3.53-5.02,3.52,2.25,3.52,5.02-1,5.03-3.52,5.03"/>
        </g>
        <g id="g280">
          <path id="path282" class="cls-3" d="M128.77,159.04c-.01-.13-.75-7.31-.75-7.31-.05-.61-.07-1.15-.07-1.15h-.03s-.1.54-.27,1.15c0,0-2.01,7.14-2.07,7.31h-.87c-.04-.14-2.04-7.32-2.04-7.32-.16-.58-.27-1.14-.27-1.14h-.03s-.01.56-.07,1.14c0,0-.75,7.18-.77,7.32h-1.12l1.16-9.77h1.38l1.96,7.06c.18.65.26,1.11.26,1.11h.03s.07-.46.26-1.09l2.02-7.07h1.38l1.16,9.77h-1.23Z"/>
        </g>
        <g id="g284">
          <path id="path286" class="cls-3" d="M139.86,159.04c-.01-.13-.75-7.31-.75-7.31-.05-.61-.07-1.15-.07-1.15h-.03s-.1.54-.27,1.15c0,0-2.01,7.14-2.07,7.31h-.87c-.04-.14-2.04-7.32-2.04-7.32-.16-.58-.27-1.14-.27-1.14h-.03s-.01.56-.07,1.14c0,0-.75,7.18-.77,7.32h-1.12l1.16-9.77h1.38l1.96,7.06c.18.65.26,1.11.26,1.11h.03s.07-.46.26-1.09l2.02-7.07h1.38l1.16,9.77h-1.23Z"/>
        </g>
        <g id="g288">
          <path id="path290" class="cls-3" d="M145.83,159.2c-1.86,0-3.04-1.28-3.04-2.94v-6.98h1.3v6.97c0,1.23.84,1.93,1.8,1.93s1.79-.7,1.79-1.93v-6.97h1.19v6.98c0,1.66-1.18,2.94-3.05,2.94"/>
        </g>
        <g id="g292">
          <path id="path294" class="cls-3" d="M156.92,159.04l-4.16-7.13c-.35-.61-.63-1.18-.63-1.18h-.03s.04.6.04,1.21v7.1h-1.09v-9.77h1.38l3.99,6.85c.35.6.55,1.04.55,1.04h.03s-.04-.47-.04-1.08v-6.82h1.09v9.77h-1.13Z"/>
        </g>
      </g>
    </g>
    <g id="g296">
      <path id="path298" class="cls-3" d="M160.22,159.04v-9.77h4.53v.88h-3.22v3.41h2.9v.87h-2.9v3.73h3.22v.88h-4.53Z"/>
    </g>
    <g id="g300">
      <g id="g302">
        <g id="g308">
          <path id="path310" class="cls-3" d="M168.28,159.19c-1.11,0-1.76-.21-2.27-.54l.34-.91c.37.23.93.45,1.7.45,1.12,0,1.83-.72,1.83-1.83,0-.87-.48-1.39-1.7-1.88-1.63-.65-2.07-1.66-2.07-2.61,0-1.48,1.05-2.74,2.75-2.74.89,0,1.57.23,2,.53l-.31.82c-.34-.21-.9-.45-1.55-.45-1.04,0-1.62.68-1.62,1.72s.74,1.43,1.63,1.79c1.93.75,2.21,1.89,2.21,2.75,0,1.7-1.23,2.9-2.95,2.9"/>
        </g>
      </g>
    </g>
    <g id="g312">
      <path id="path314" class="cls-3" d="M42.08,166.28v9.77h4.53v-.88h-3.22v-3.73h2.9v-.87h-2.9v-3.41h3.22v-.88h-4.53Z"/>
    </g>
    <g id="g316">
      <g id="g318">
        <g id="g324">
          <path id="path326" class="cls-3" d="M54.21,176.05l-4.16-7.13c-.35-.61-.63-1.18-.63-1.18h-.03s.04.6.04,1.21v7.1h-1.09v-9.77h1.38l3.99,6.85c.35.6.55,1.04.55,1.04h.03s-.04-.47-.04-1.08v-6.82h1.09v9.77h-1.13Z"/>
        </g>
      </g>
    </g>
    <g id="g328">
      <path id="path330" class="cls-3" d="M61.47,166.28v9.77h4.24v-.88h-2.94v-8.89h-1.31Z"/>
    </g>
    <g id="g332">
      <g id="g334">
        <g id="g340">
          <path id="path342" class="cls-3" d="M70.57,168.64c-.24-.77-.28-1.18-.28-1.18h-.03s-.05.41-.3,1.18l-1.16,3.7h2.91l-1.14-3.7ZM72.84,176.05l-.92-2.92h-3.35l-.95,2.92h-1.19l3.31-9.77h1.16l3.29,9.77h-1.35Z"/>
        </g>
        <g id="g344">
          <path id="path346" class="cls-3" d="M81.4,176.05l-4.16-7.13c-.35-.61-.63-1.18-.63-1.18h-.03s.04.6.04,1.21v7.1h-1.09v-9.77h1.38l3.99,6.85c.35.6.55,1.04.55,1.04h.03s-.04-.47-.04-1.08v-6.82h1.09v9.77h-1.13Z"/>
        </g>
        <g id="g348">
          <path id="path350" class="cls-3" d="M88.49,176.19c-2.27,0-4.1-1.65-4.1-5.1,0-3.25,1.87-4.95,4.1-4.95,1.06,0,1.82.21,2.29.51l-.38.81c-.33-.2-.89-.4-1.76-.4-1.8,0-2.89,1.3-2.89,4.14,0,2.66,1.21,4.08,2.74,4.08.67,0,1.03-.12,1.22-.23v-3.67h-1.66v-.82h2.93v5.08c-.6.34-1.25.54-2.47.54"/>
        </g>
        <g id="g352">
          <path id="path354" class="cls-3" d="M96.08,176.21c-1.86,0-3.04-1.28-3.04-2.94v-6.98h1.3v6.97c0,1.23.84,1.93,1.8,1.93s1.79-.7,1.79-1.93v-6.97h1.19v6.98c0,1.66-1.18,2.94-3.05,2.94"/>
        </g>
      </g>
    </g>
    <g id="g356">
      <path id="path358" class="cls-3" d="M101.31,166.28v9.77h4.53v-.88h-3.22v-3.73h2.9v-.87h-2.9v-3.41h3.22v-.88h-4.53Z"/>
    </g>
    <g id="g362">
      <g id="g368">
        <path id="path370" class="cls-3" d="M110.07,166.98c-.51,0-.87.06-1.21.2v7.91c.28.11.72.18,1.22.18,1.97,0,2.73-1.46,2.73-4.22s-.88-4.07-2.74-4.07M110.15,176.19c-1.12,0-2.07-.23-2.58-.53v-8.99c.57-.31,1.46-.54,2.53-.54,2.7,0,4.06,1.91,4.06,4.93s-1.24,5.13-4,5.13"/>
      </g>
      <g id="g372">
        <path id="path374" class="cls-3" d="M119.21,167.01c-1.79,0-2.21,2.14-2.21,4.11s.37,4.1,2.21,4.1,2.2-2.13,2.2-4.1-.42-4.11-2.2-4.11M119.21,176.19c-2.54,0-3.53-2.23-3.53-5.03s.99-5.03,3.53-5.03,3.52,2.26,3.52,5.03-1,5.03-3.52,5.03"/>
      </g>
      <g id="g376">
        <path id="path378" class="cls-3" d="M127.92,176.19c-2.34,0-3.67-2.26-3.67-5.03s1.31-5.03,3.67-5.03c.86,0,1.47.23,1.9.54l-.31.77c-.3-.18-.75-.38-1.36-.38-1.87,0-2.53,2.03-2.53,4.1s.73,4.05,2.51,4.05c.6,0,.99-.15,1.36-.39l.34.83c-.43.33-1.12.54-1.92.54"/>
      </g>
    </g>
  </g>
</svg>