<?xml version="1.0" encoding="UTF-8"?>
<svg id="Calque_2" data-name="Calque 2" xmlns="http://www.w3.org/2000/svg" viewBox="0 0 931.51 200.28">
  <defs>
    <style>
      .cls-1 {
        fill: #004195;
      }

      .cls-2 {
        fill: #fff200;
      }
    </style>
  </defs>
  <g id="Layer_1" data-name="Layer 1">
    <rect class="cls-1" width="294.95" height="200.28"/>
    <rect class="cls-1" x="5.67" y="5.49" width="283.6" height="189.07"/>
    <polyline class="cls-2" points="141.43 46.69 147.41 42.32 153.4 46.69 151.12 39.62 157.2 35.26 149.71 35.26 147.41 28.11 145.12 35.27 137.63 35.26 143.71 39.62 141.43 46.69"/>
    <polyline class="cls-2" points="110.46 55.01 116.44 50.64 122.43 55.01 120.15 47.95 126.23 43.58 118.73 43.58 116.44 36.42 114.15 43.59 106.66 43.58 112.73 47.95 110.46 55.01"/>
    <polyline class="cls-2" points="93.79 59.13 91.49 66.3 84 66.29 90.08 70.66 87.8 77.72 93.79 73.35 99.77 77.72 97.49 70.66 103.57 66.29 96.08 66.29 93.79 59.13"/>
    <polyline class="cls-2" points="85.47 104.28 91.45 108.65 89.18 101.59 95.25 97.22 87.77 97.22 85.47 90.06 83.18 97.24 75.69 97.22 81.77 101.59 79.49 108.65 85.47 104.28"/>
    <polyline class="cls-2" points="96.08 128.24 93.78 121.09 91.49 128.25 84 128.24 90.08 132.61 87.8 139.67 93.78 135.3 99.77 139.67 97.49 132.61 103.57 128.24 96.08 128.24"/>
    <polyline class="cls-2" points="118.78 150.94 116.49 143.8 114.2 150.95 106.71 150.94 112.78 155.31 110.51 162.37 116.49 158.01 122.47 162.37 120.2 155.31 126.27 150.94 118.78 150.94"/>
    <polyline class="cls-2" points="149.71 159.17 147.42 152.02 145.13 159.18 137.64 159.17 143.71 163.54 141.44 170.6 147.42 166.23 153.4 170.6 151.12 163.54 157.2 159.17 149.71 159.17"/>
    <polyline class="cls-2" points="180.64 150.94 178.35 143.8 176.05 150.95 168.57 150.94 174.64 155.31 172.37 162.37 178.35 158.01 184.34 162.37 182.05 155.31 188.13 150.94 180.64 150.94"/>
    <polyline class="cls-2" points="203.35 128.24 201.05 121.09 198.76 128.25 191.27 128.24 197.35 132.61 195.07 139.67 201.05 135.3 207.04 139.67 204.76 132.61 210.84 128.24 203.35 128.24"/>
    <polyline class="cls-2" points="219.06 97.13 211.57 97.13 209.27 89.98 206.99 97.14 199.49 97.13 205.57 101.5 203.3 108.56 209.27 104.19 215.26 108.56 212.99 101.5 219.06 97.13"/>
    <polyline class="cls-2" points="195.07 77.62 201.05 73.26 207.04 77.62 204.76 70.56 210.84 66.2 203.35 66.2 201.05 59.05 198.76 66.21 191.27 66.2 197.35 70.56 195.07 77.62"/>
    <polyline class="cls-2" points="178.44 36.43 176.15 43.59 168.66 43.58 174.73 47.95 172.45 55.02 178.45 50.64 184.42 55.02 182.15 47.95 188.23 43.58 180.73 43.58 178.44 36.43"/>
    <g>
      <path class="cls-1" d="M361.9,62.22l9.11,2.89c-1.4,5.08-3.72,8.85-6.97,11.31-3.25,2.47-7.37,3.7-12.36,3.7-6.18,0-11.26-2.11-15.23-6.33-3.98-4.22-5.97-9.99-5.97-17.31,0-7.74,2-13.76,6-18.04,4-4.29,9.26-6.43,15.77-6.43,5.69,0,10.31,1.68,13.87,5.05,2.12,1.99,3.7,4.85,4.76,8.57l-9.3,2.22c-.55-2.41-1.7-4.32-3.44-5.71-1.75-1.4-3.87-2.09-6.36-2.09-3.45,0-6.25,1.24-8.39,3.71-2.15,2.47-3.22,6.49-3.22,12.03,0,5.88,1.06,10.07,3.17,12.57,2.12,2.5,4.87,3.75,8.25,3.75,2.5,0,4.64-.79,6.44-2.38,1.8-1.59,3.09-4.08,3.87-7.49Z"/>
      <path class="cls-1" d="M376.94,62c0-2.96.73-5.83,2.19-8.6,1.46-2.77,3.53-4.89,6.2-6.35,2.68-1.46,5.67-2.19,8.97-2.19,5.1,0,9.28,1.66,12.54,4.97,3.26,3.31,4.89,7.5,4.89,12.55s-1.65,9.33-4.94,12.68-7.43,5.03-12.42,5.03c-3.09,0-6.04-.7-8.84-2.09s-4.94-3.44-6.39-6.14c-1.46-2.7-2.19-5.98-2.19-9.85ZM386.08,62.47c0,3.34.79,5.9,2.38,7.68,1.59,1.78,3.54,2.67,5.87,2.67s4.28-.89,5.86-2.67,2.36-4.36,2.36-7.74-.79-5.84-2.36-7.62-3.53-2.67-5.86-2.67-4.28.89-5.87,2.67c-1.59,1.78-2.38,4.34-2.38,7.68Z"/>
      <path class="cls-1" d="M415.03,45.62h4.95v-2.54c0-2.83.3-4.95.9-6.35.6-1.4,1.71-2.53,3.33-3.41,1.62-.88,3.67-1.32,6.14-1.32s5.03.38,7.46,1.14l-1.21,6.22c-1.42-.34-2.78-.51-4.09-.51s-2.22.3-2.78.91c-.56.6-.84,1.76-.84,3.48v2.38h6.67v7.01h-6.67v26.69h-8.92v-26.69h-4.95v-7.01ZM440.07,41.05v-8.25h8.92v8.25h-8.92ZM440.07,79.33v-33.71h8.92v33.71h-8.92Z"/>
      <path class="cls-1" d="M489.07,79.33h-8.92v-17.2c0-3.64-.19-5.99-.57-7.06s-1-1.9-1.86-2.49c-.86-.59-1.89-.89-3.09-.89-1.54,0-2.93.42-4.16,1.27-1.23.85-2.07,1.97-2.52,3.37-.46,1.4-.68,3.98-.68,7.74v15.27h-8.92v-33.71h8.28v4.95c2.94-3.81,6.64-5.71,11.11-5.71,1.97,0,3.77.35,5.4,1.06,1.63.71,2.86,1.61,3.7,2.71.84,1.1,1.42,2.35,1.75,3.75.33,1.4.49,3.4.49,6v20.95Z"/>
      <path class="cls-1" d="M504.78,55.91l-8.09-1.46c.91-3.26,2.48-5.67,4.7-7.24,2.22-1.57,5.52-2.35,9.9-2.35,3.98,0,6.94.47,8.89,1.41,1.95.94,3.32,2.14,4.11,3.59.79,1.45,1.19,4.11,1.19,7.98l-.09,10.41c0,2.96.14,5.15.43,6.55.29,1.41.82,2.92,1.6,4.52h-8.82c-.23-.59-.52-1.47-.86-2.63-.15-.53-.25-.88-.32-1.05-1.52,1.48-3.15,2.59-4.89,3.33-1.73.74-3.59,1.11-5.55,1.11-3.47,0-6.21-.94-8.2-2.82-2-1.88-3-4.26-3-7.14,0-1.9.46-3.6,1.37-5.09.91-1.49,2.18-2.63,3.82-3.43,1.64-.79,4-1.49,7.09-2.08,4.17-.78,7.06-1.51,8.66-2.19v-.89c0-1.71-.42-2.94-1.27-3.67-.85-.73-2.44-1.1-4.79-1.1-1.59,0-2.83.31-3.71.94-.89.62-1.61,1.72-2.16,3.29ZM516.72,63.14c-1.14.38-2.95.84-5.43,1.36-2.48.53-4.09,1.05-4.86,1.56-1.16.83-1.75,1.87-1.75,3.14s.46,2.33,1.4,3.24c.93.91,2.12,1.36,3.55,1.36,1.61,0,3.14-.53,4.6-1.59,1.08-.8,1.79-1.79,2.13-2.95.23-.76.35-2.21.35-4.35v-1.78Z"/>
      <path class="cls-1" d="M564.93,79.33h-8.92v-17.2c0-3.64-.19-5.99-.57-7.06s-1-1.9-1.86-2.49c-.86-.59-1.89-.89-3.09-.89-1.54,0-2.93.42-4.16,1.27-1.23.85-2.07,1.97-2.52,3.37-.46,1.4-.68,3.98-.68,7.74v15.27h-8.92v-33.71h8.28v4.95c2.94-3.81,6.64-5.71,11.11-5.71,1.97,0,3.77.35,5.4,1.06,1.63.71,2.86,1.61,3.7,2.71.84,1.1,1.42,2.35,1.75,3.75.33,1.4.49,3.4.49,6v20.95Z"/>
      <path class="cls-1" d="M603.36,55.59l-8.79,1.59c-.3-1.76-.97-3.08-2.02-3.97-1.05-.89-2.41-1.33-4.08-1.33-2.22,0-3.99.77-5.32,2.3s-1.98,4.1-1.98,7.7c0,4,.67,6.82,2.02,8.47,1.34,1.65,3.15,2.48,5.41,2.48,1.69,0,3.08-.48,4.16-1.44,1.08-.96,1.84-2.62,2.29-4.97l8.76,1.49c-.91,4.02-2.66,7.06-5.24,9.11-2.58,2.05-6.04,3.08-10.38,3.08-4.93,0-8.86-1.55-11.79-4.67-2.93-3.11-4.4-7.42-4.4-12.92s1.47-9.9,4.41-13c2.94-3.1,6.92-4.65,11.93-4.65,4.1,0,7.37.88,9.79,2.65s4.16,4.46,5.22,8.08Z"/>
      <path class="cls-1" d="M629.64,68.6l8.89,1.49c-1.14,3.26-2.95,5.74-5.41,7.44-2.47,1.7-5.55,2.55-9.25,2.55-5.86,0-10.2-1.92-13.01-5.74-2.22-3.07-3.33-6.94-3.33-11.62,0-5.59,1.46-9.96,4.38-13.12s6.61-4.75,11.08-4.75c5.01,0,8.97,1.66,11.87,4.97,2.9,3.31,4.28,8.38,4.16,15.22h-22.34c.06,2.65.78,4.7,2.16,6.17,1.38,1.47,3.09,2.21,5.14,2.21,1.4,0,2.57-.38,3.52-1.14s1.67-1.99,2.16-3.68ZM630.15,59.59c-.06-2.58-.73-4.54-2-5.89-1.27-1.34-2.81-2.02-4.63-2.02-1.95,0-3.55.71-4.82,2.13-1.27,1.42-1.89,3.34-1.87,5.78h13.33ZM618.76,41.5l4.38-9.49h10l-8.73,9.49h-5.65Z"/>
      <path class="cls-1" d="M664.08,45.62h8.31v4.95c1.08-1.69,2.54-3.07,4.38-4.13,1.84-1.06,3.88-1.59,6.12-1.59,3.91,0,7.24,1.53,9.97,4.6,2.73,3.07,4.09,7.34,4.09,12.82s-1.38,10-4.13,13.12c-2.75,3.12-6.08,4.68-10,4.68-1.86,0-3.55-.37-5.06-1.11-1.51-.74-3.11-2.01-4.78-3.81v16.98h-8.92v-46.53ZM672.9,61.9c0,3.79.75,6.58,2.25,8.39,1.5,1.81,3.33,2.71,5.49,2.71s3.8-.83,5.17-2.49c1.38-1.66,2.06-4.38,2.06-8.17,0-3.53-.71-6.16-2.13-7.87-1.42-1.71-3.17-2.57-5.27-2.57s-3.99.84-5.43,2.52c-1.44,1.68-2.16,4.17-2.16,7.47Z"/>
      <path class="cls-1" d="M710.7,55.91l-8.09-1.46c.91-3.26,2.48-5.67,4.7-7.24,2.22-1.57,5.52-2.35,9.9-2.35,3.98,0,6.94.47,8.89,1.41,1.95.94,3.32,2.14,4.11,3.59.79,1.45,1.19,4.11,1.19,7.98l-.09,10.41c0,2.96.14,5.15.43,6.55.29,1.41.82,2.92,1.6,4.52h-8.82c-.23-.59-.52-1.47-.86-2.63-.15-.53-.25-.88-.32-1.05-1.52,1.48-3.15,2.59-4.89,3.33-1.73.74-3.59,1.11-5.55,1.11-3.47,0-6.21-.94-8.2-2.82-2-1.88-3-4.26-3-7.14,0-1.9.46-3.6,1.37-5.09.91-1.49,2.18-2.63,3.82-3.43,1.64-.79,4-1.49,7.09-2.08,4.17-.78,7.06-1.51,8.66-2.19v-.89c0-1.71-.42-2.94-1.27-3.67-.85-.73-2.44-1.1-4.79-1.1-1.59,0-2.83.31-3.71.94-.89.62-1.61,1.72-2.16,3.29ZM722.64,63.14c-1.14.38-2.95.84-5.43,1.36-2.48.53-4.09,1.05-4.86,1.56-1.16.83-1.75,1.87-1.75,3.14s.46,2.33,1.4,3.24c.93.91,2.12,1.36,3.55,1.36,1.61,0,3.14-.53,4.6-1.59,1.08-.8,1.79-1.79,2.13-2.95.23-.76.35-2.21.35-4.35v-1.78Z"/>
      <path class="cls-1" d="M748.73,79.33h-8.92v-33.71h8.28v4.79c1.42-2.26,2.69-3.75,3.82-4.47,1.13-.72,2.42-1.08,3.86-1.08,2.03,0,3.99.56,5.87,1.68l-2.76,7.78c-1.5-.97-2.9-1.46-4.19-1.46s-2.31.34-3.17,1.03c-.87.69-1.55,1.93-2.05,3.73-.5,1.8-.75,5.57-.75,11.3v10.41Z"/>
      <path class="cls-1" d="M332.07,157.33v-46.53h8.92v46.53h-8.92Z"/>
      <path class="cls-1" d="M349.9,110.93h8.92v6.38c0,2.58-.22,4.62-.67,6.11-.44,1.49-1.29,2.83-2.52,4.01-1.24,1.19-2.81,2.12-4.71,2.79l-1.75-3.68c1.8-.59,3.08-1.41,3.84-2.44.76-1.04,1.16-2.45,1.21-4.25h-4.32v-8.92Z"/>
      <path class="cls-1" d="M368.18,110.8h9.39v25.2c0,4,.12,6.59.35,7.78.4,1.9,1.36,3.43,2.87,4.59s3.58,1.73,6.21,1.73,4.68-.54,6.03-1.63c1.35-1.09,2.17-2.43,2.44-4.01.27-1.59.41-4.22.41-7.9v-25.74h9.39v24.44c0,5.59-.25,9.53-.76,11.84-.51,2.31-1.44,4.25-2.81,5.84-1.37,1.59-3.19,2.85-5.47,3.79s-5.27,1.41-8.95,1.41c-4.44,0-7.81-.51-10.11-1.54-2.3-1.03-4.11-2.36-5.44-4-1.33-1.64-2.21-3.36-2.63-5.16-.61-2.67-.92-6.6-.92-11.81v-24.82Z"/>
      <path class="cls-1" d="M445.78,157.33h-8.92v-17.2c0-3.64-.19-5.99-.57-7.06s-1-1.9-1.86-2.49c-.86-.59-1.89-.89-3.09-.89-1.54,0-2.93.42-4.16,1.27-1.23.85-2.07,1.97-2.52,3.37-.46,1.4-.68,3.98-.68,7.74v15.27h-8.92v-33.71h8.28v4.95c2.94-3.81,6.64-5.71,11.11-5.71,1.97,0,3.77.35,5.4,1.06,1.63.71,2.86,1.61,3.7,2.71.84,1.1,1.42,2.35,1.75,3.75.33,1.4.49,3.4.49,6v20.95Z"/>
      <path class="cls-1" d="M454.83,119.05v-8.25h8.92v8.25h-8.92ZM454.83,157.33v-33.71h8.92v33.71h-8.92Z"/>
      <path class="cls-1" d="M470.82,140c0-2.96.73-5.83,2.19-8.6,1.46-2.77,3.53-4.89,6.2-6.35,2.68-1.46,5.67-2.19,8.97-2.19,5.1,0,9.28,1.66,12.54,4.97,3.26,3.31,4.89,7.5,4.89,12.55s-1.65,9.33-4.94,12.68-7.43,5.03-12.42,5.03c-3.09,0-6.04-.7-8.84-2.09s-4.94-3.44-6.39-6.14c-1.46-2.7-2.19-5.98-2.19-9.85ZM479.96,140.47c0,3.34.79,5.9,2.38,7.68,1.59,1.78,3.54,2.67,5.87,2.67s4.28-.89,5.86-2.67,2.36-4.36,2.36-7.74-.79-5.84-2.36-7.62-3.53-2.67-5.86-2.67-4.28.89-5.87,2.67c-1.59,1.78-2.38,4.34-2.38,7.68Z"/>
      <path class="cls-1" d="M543.25,157.33h-8.92v-17.2c0-3.64-.19-5.99-.57-7.06s-1-1.9-1.86-2.49c-.86-.59-1.89-.89-3.09-.89-1.54,0-2.93.42-4.16,1.27-1.23.85-2.07,1.97-2.52,3.37-.46,1.4-.68,3.98-.68,7.74v15.27h-8.92v-33.71h8.28v4.95c2.94-3.81,6.64-5.71,11.11-5.71,1.97,0,3.77.35,5.4,1.06,1.63.71,2.86,1.61,3.7,2.71.84,1.1,1.42,2.35,1.75,3.75.33,1.4.49,3.4.49,6v20.95Z"/>
      <path class="cls-1" d="M589.88,146.6l8.89,1.49c-1.14,3.26-2.95,5.74-5.41,7.44-2.47,1.7-5.55,2.55-9.25,2.55-5.86,0-10.2-1.92-13.01-5.74-2.22-3.07-3.33-6.94-3.33-11.62,0-5.59,1.46-9.96,4.38-13.12s6.61-4.75,11.08-4.75c5.01,0,8.97,1.66,11.87,4.97,2.9,3.31,4.28,8.38,4.16,15.22h-22.34c.06,2.65.78,4.7,2.16,6.17,1.38,1.47,3.09,2.21,5.14,2.21,1.4,0,2.57-.38,3.52-1.14s1.67-1.99,2.16-3.68ZM590.38,137.59c-.06-2.58-.73-4.54-2-5.89-1.27-1.34-2.81-2.02-4.63-2.02-1.95,0-3.55.71-4.82,2.13-1.27,1.42-1.89,3.34-1.87,5.78h13.33Z"/>
      <path class="cls-1" d="M628.69,157.33v-5.05c-1.23,1.8-2.84,3.22-4.84,4.25-2,1.04-4.11,1.55-6.33,1.55s-4.3-.5-6.09-1.49c-1.8-.99-3.1-2.39-3.9-4.19-.8-1.8-1.21-4.28-1.21-7.46v-21.33h8.92v15.49c0,4.74.16,7.64.49,8.71.33,1.07.92,1.92,1.79,2.54.87.62,1.97.94,3.3.94,1.52,0,2.89-.42,4.09-1.25,1.21-.83,2.03-1.87,2.47-3.11.45-1.24.67-4.27.67-9.09v-14.22h8.92v33.71h-8.28Z"/>
      <path class="cls-1" d="M654.75,157.33h-8.92v-33.71h8.28v4.79c1.42-2.26,2.69-3.75,3.82-4.47,1.13-.72,2.42-1.08,3.86-1.08,2.03,0,3.99.56,5.87,1.68l-2.76,7.78c-1.5-.97-2.9-1.46-4.19-1.46s-2.31.34-3.17,1.03c-.87.69-1.55,1.93-2.05,3.73-.5,1.8-.75,5.57-.75,11.3v10.41Z"/>
      <path class="cls-1" d="M669.44,140c0-2.96.73-5.83,2.19-8.6,1.46-2.77,3.53-4.89,6.2-6.35,2.68-1.46,5.67-2.19,8.97-2.19,5.1,0,9.28,1.66,12.54,4.97,3.26,3.31,4.89,7.5,4.89,12.55s-1.65,9.33-4.94,12.68-7.43,5.03-12.42,5.03c-3.09,0-6.04-.7-8.84-2.09s-4.94-3.44-6.39-6.14c-1.46-2.7-2.19-5.98-2.19-9.85ZM678.58,140.47c0,3.34.79,5.9,2.38,7.68,1.59,1.78,3.54,2.67,5.87,2.67s4.28-.89,5.86-2.67,2.36-4.36,2.36-7.74-.79-5.84-2.36-7.62-3.53-2.67-5.86-2.67-4.28.89-5.87,2.67c-1.59,1.78-2.38,4.34-2.38,7.68Z"/>
      <path class="cls-1" d="M710.96,123.62h8.31v4.95c1.08-1.69,2.54-3.07,4.38-4.13,1.84-1.06,3.88-1.59,6.12-1.59,3.91,0,7.24,1.53,9.97,4.6,2.73,3.07,4.09,7.34,4.09,12.82s-1.38,10-4.13,13.12c-2.75,3.12-6.08,4.68-10,4.68-1.86,0-3.55-.37-5.06-1.11-1.51-.74-3.11-2.01-4.78-3.81v16.98h-8.92v-46.53ZM719.78,139.9c0,3.79.75,6.58,2.25,8.39,1.5,1.81,3.33,2.71,5.49,2.71s3.8-.83,5.17-2.49c1.38-1.66,2.06-4.38,2.06-8.17,0-3.53-.71-6.16-2.13-7.87-1.42-1.71-3.17-2.57-5.27-2.57s-3.99.84-5.43,2.52c-1.44,1.68-2.16,4.17-2.16,7.47Z"/>
      <path class="cls-1" d="M770.43,146.6l8.89,1.49c-1.14,3.26-2.95,5.74-5.41,7.44-2.47,1.7-5.55,2.55-9.25,2.55-5.86,0-10.2-1.92-13.01-5.74-2.22-3.07-3.33-6.94-3.33-11.62,0-5.59,1.46-9.96,4.38-13.12s6.61-4.75,11.08-4.75c5.01,0,8.97,1.66,11.87,4.97,2.9,3.31,4.28,8.38,4.16,15.22h-22.34c.06,2.65.78,4.7,2.16,6.17,1.38,1.47,3.09,2.21,5.14,2.21,1.4,0,2.57-.38,3.52-1.14s1.67-1.99,2.16-3.68ZM770.94,137.59c-.06-2.58-.73-4.54-2-5.89-1.27-1.34-2.81-2.02-4.63-2.02-1.95,0-3.55.71-4.82,2.13-1.27,1.42-1.89,3.34-1.87,5.78h13.33ZM759.55,119.5l4.38-9.49h10l-8.73,9.49h-5.65Z"/>
      <path class="cls-1" d="M806.58,146.6l8.89,1.49c-1.14,3.26-2.95,5.74-5.41,7.44-2.47,1.7-5.55,2.55-9.25,2.55-5.86,0-10.2-1.92-13.01-5.74-2.22-3.07-3.33-6.94-3.33-11.62,0-5.59,1.46-9.96,4.38-13.12s6.61-4.75,11.08-4.75c5.01,0,8.97,1.66,11.87,4.97,2.9,3.31,4.28,8.38,4.16,15.22h-22.34c.06,2.65.78,4.7,2.16,6.17,1.38,1.47,3.09,2.21,5.14,2.21,1.4,0,2.57-.38,3.52-1.14s1.67-1.99,2.16-3.68ZM807.09,137.59c-.06-2.58-.73-4.54-2-5.89-1.27-1.34-2.81-2.02-4.63-2.02-1.95,0-3.55.71-4.82,2.13-1.27,1.42-1.89,3.34-1.87,5.78h13.33Z"/>
      <path class="cls-1" d="M853.87,157.33h-8.92v-17.2c0-3.64-.19-5.99-.57-7.06s-1-1.9-1.86-2.49c-.86-.59-1.89-.89-3.09-.89-1.54,0-2.93.42-4.16,1.27-1.23.85-2.07,1.97-2.52,3.37-.46,1.4-.68,3.98-.68,7.74v15.27h-8.92v-33.71h8.28v4.95c2.94-3.81,6.64-5.71,11.11-5.71,1.97,0,3.77.35,5.4,1.06,1.63.71,2.86,1.61,3.7,2.71.84,1.1,1.42,2.35,1.75,3.75.33,1.4.49,3.4.49,6v20.95Z"/>
      <path class="cls-1" d="M893.58,157.33h-8.92v-17.2c0-3.64-.19-5.99-.57-7.06s-1-1.9-1.86-2.49c-.86-.59-1.89-.89-3.09-.89-1.54,0-2.93.42-4.16,1.27-1.23.85-2.07,1.97-2.52,3.37-.46,1.4-.68,3.98-.68,7.74v15.27h-8.92v-33.71h8.28v4.95c2.94-3.81,6.64-5.71,11.11-5.71,1.97,0,3.77.35,5.4,1.06,1.63.71,2.86,1.61,3.7,2.71.84,1.1,1.42,2.35,1.75,3.75.33,1.4.49,3.4.49,6v20.95Z"/>
      <path class="cls-1" d="M922.14,146.6l8.89,1.49c-1.14,3.26-2.95,5.74-5.41,7.44-2.47,1.7-5.55,2.55-9.25,2.55-5.86,0-10.2-1.92-13.01-5.74-2.22-3.07-3.33-6.94-3.33-11.62,0-5.59,1.46-9.96,4.38-13.12s6.61-4.75,11.08-4.75c5.01,0,8.97,1.66,11.87,4.97,2.9,3.31,4.28,8.38,4.16,15.22h-22.34c.06,2.65.78,4.7,2.16,6.17,1.38,1.47,3.09,2.21,5.14,2.21,1.4,0,2.57-.38,3.52-1.14s1.67-1.99,2.16-3.68ZM922.65,137.59c-.06-2.58-.73-4.54-2-5.89-1.27-1.34-2.81-2.02-4.63-2.02-1.95,0-3.55.71-4.82,2.13-1.27,1.42-1.89,3.34-1.87,5.78h13.33Z"/>
    </g>
  </g>
</svg>