<svg xmlns="http://www.w3.org/2000/svg" id="Calque_2" data-name="Calque 2" viewBox="0 0 85.03 67.39"><defs><style>.cls-1{fill:#1d1d1b}.cls-2{fill:#ffeb00}</style></defs><g id="Calque_1-2" data-name="Calque 1"><path d="M.23 0h84.71v56.48H.23z" style="fill:#164194"/><path d="m40.81 12.5 1.78-1.3 1.79 1.3-.68-2.11 1.82-1.3h-2.24l-.69-2.13-.68 2.13h-2.23l1.81 1.3zM31.56 14.99l1.78-1.3 1.79 1.3-.68-2.11 1.82-1.31h-2.24l-.69-2.13-.68 2.14-2.24-.01 1.82 1.31zM26.58 16.22l-.69 2.14h-2.23l1.81 1.31-.68 2.1 1.79-1.3 1.78 1.3-.68-2.1 1.82-1.31h-2.24zM24.09 29.71l1.79 1.3-.68-2.1 1.81-1.31h-2.23l-.69-2.14-.68 2.14h-2.24l1.82 1.31-.69 2.1zM27.26 36.87l-.68-2.14-.69 2.14h-2.23l1.81 1.3-.68 2.11 1.79-1.31 1.78 1.31-.67-2.11 1.81-1.3zM34.04 43.65l-.68-2.14-.69 2.14h-2.23l1.81 1.3-.68 2.11 1.79-1.3 1.79 1.3-.68-2.11 1.81-1.3zM43.28 46.1l-.68-2.13-.69 2.13h-2.23l1.81 1.31-.68 2.11 1.79-1.3 1.78 1.3-.68-2.11 1.82-1.31zM52.52 43.65l-.68-2.14-.69 2.14h-2.23l1.81 1.3-.68 2.11 1.79-1.3 1.78 1.3-.67-2.11 1.81-1.3zM59.31 36.87l-.69-2.14-.69 2.14H55.7l1.81 1.3-.68 2.11 1.79-1.31 1.79 1.31-.69-2.11 1.82-1.3zM64 27.57h-2.24l-.69-2.14-.68 2.14h-2.24l1.82 1.31-.68 2.11 1.78-1.31 1.79 1.31-.68-2.11zM56.83 21.75l1.79-1.31 1.79 1.31-.69-2.11 1.82-1.31H59.3l-.68-2.13-.69 2.14-2.23-.01 1.81 1.31zM51.86 9.44l-.68 2.14-2.24-.01 1.81 1.31-.68 2.11 1.79-1.3 1.79 1.3-.68-2.11 1.82-1.31h-2.24z" class="cls-2"/><path d="M3.84 61.42h.78v3.39c0 .59-.07 1.06-.2 1.41s-.37.63-.72.85-.81.33-1.37.33-1-.09-1.35-.28-.6-.46-.75-.82-.22-.85-.22-1.47v-3.39h.78v3.39c0 .51.05.89.14 1.13s.26.43.49.56.51.2.85.2c.57 0 .98-.13 1.22-.39s.36-.76.36-1.49v-3.39ZM5.9 67.29v-5.87h.8l3.08 4.61v-4.61h.74v5.87h-.8l-3.08-4.61v4.61zM11.96 67.29v-5.87h.78v5.87zM13.87 64.43c0-.97.26-1.74.78-2.29s1.2-.83 2.03-.83q.81 0 1.47.39c.44.26.77.62 1 1.08s.34.99.34 1.58-.12 1.13-.36 1.6-.58.83-1.02 1.07-.92.36-1.43.36c-.55 0-1.05-.13-1.48-.4-.44-.27-.76-.63-.99-1.09-.22-.46-.34-.95-.34-1.46Zm.8.01c0 .71.19 1.26.57 1.67s.86.61 1.43.61 1.07-.21 1.44-.62c.38-.41.57-.99.57-1.75 0-.48-.08-.9-.24-1.25-.16-.36-.4-.63-.71-.83s-.66-.29-1.05-.29c-.55 0-1.02.19-1.42.57s-.59 1.01-.59 1.89M20.48 67.29v-5.87h.8l3.08 4.61v-4.61h.74v5.87h-.8l-3.08-4.61v4.61zM28.7 67.29v-5.87h4.24v.69h-3.47v1.8h3.25v.69h-3.25v2h3.6v.69h-4.38ZM38.01 61.42h.78v3.39c0 .59-.07 1.06-.2 1.41s-.37.63-.72.85-.81.33-1.37.33-1-.09-1.35-.28-.6-.46-.75-.82-.22-.85-.22-1.47v-3.39h.78v3.39c0 .51.05.89.14 1.13s.26.43.49.56.51.2.85.2c.57 0 .98-.13 1.22-.39s.36-.76.36-1.49v-3.39ZM40.09 67.29v-5.87h2.6c.52 0 .92.05 1.19.16s.49.29.65.56.24.56.24.88c0 .42-.14.77-.4 1.05-.27.29-.69.47-1.25.54.21.1.36.2.47.29.23.21.44.47.65.78l1.02 1.6h-.98l-.78-1.22c-.23-.35-.41-.62-.56-.81q-.225-.285-.39-.39c-.12-.08-.23-.13-.35-.16a2 2 0 0 0-.43-.03h-.9v2.61h-.78Zm.78-3.28h1.67c.35 0 .63-.04.83-.11s.35-.19.46-.35c.1-.16.16-.34.16-.53 0-.28-.1-.51-.3-.68q-.3-.27-.96-.27h-1.86zM45.77 64.43c0-.97.26-1.74.78-2.29s1.2-.83 2.03-.83q.81 0 1.47.39c.44.26.77.62 1 1.08s.34.99.34 1.58-.12 1.13-.36 1.6-.58.83-1.02 1.07-.92.36-1.43.36c-.55 0-1.05-.13-1.48-.4-.44-.27-.76-.63-.99-1.09-.22-.46-.34-.95-.34-1.46Zm.8.01c0 .71.19 1.26.57 1.67s.86.61 1.43.61 1.07-.21 1.44-.62c.38-.41.57-.99.57-1.75 0-.48-.08-.9-.24-1.25-.16-.36-.4-.63-.71-.83s-.66-.29-1.05-.29c-.55 0-1.02.19-1.42.57s-.59 1.01-.59 1.89M52.38 67.29v-5.87h2.21c.39 0 .69.02.89.06q.435.075.72.27c.285.195.35.32.47.57.12.24.18.51.18.8 0 .5-.16.92-.48 1.27s-.89.52-1.72.52h-1.51v2.39h-.78Zm.78-3.08h1.52c.5 0 .86-.09 1.07-.28s.32-.45.32-.79c0-.25-.06-.46-.19-.63s-.29-.29-.49-.35c-.13-.03-.37-.05-.73-.05h-1.5zM57.87 67.29v-5.87h4.24v.69h-3.47v1.8h3.25v.69h-3.25v2h3.6v.69h-4.38Zm1.6-6.23.53-1.12h.94l-.88 1.12h-.6ZM63.33 67.29v-5.87h4.24v.69H64.1v1.8h3.25v.69H64.1v2h3.6v.69h-4.38ZM68.78 67.29v-5.87h.8l3.08 4.61v-4.61h.74v5.87h-.8l-3.08-4.61v4.61zM74.7 67.29v-5.87h.8l3.08 4.61v-4.61h.74v5.87h-.8l-3.08-4.61v4.61zM80.65 67.29v-5.87h4.24v.69h-3.47v1.8h3.25v.69h-3.25v2h3.6v.69h-4.38Z" class="cls-1"/></g></svg>