<svg xmlns="http://www.w3.org/2000/svg" width="900" height="600" fill="none"><g clip-path="url(#a)"><path fill="#AB080E" d="M0 600h900V0H0z"/><path fill="#F9DC00" d="M237.294 201.751a7.61 7.61 0 0 0-7.61 7.623v181.518c0 4.205 3.404 7.623 7.61 7.623 4.205 0 7.61-3.418 7.61-7.623V209.375c.014-4.206-3.404-7.624-7.61-7.624M270.774 215.021a7.61 7.61 0 0 0-7.61 7.623v155.003c0 4.206 3.404 7.623 7.61 7.623s7.61-3.418 7.61-7.623V222.631c.014-4.205-3.404-7.61-7.61-7.61M304.258 244.194a7.61 7.61 0 0 0-7.61 7.623v96.54a7.61 7.61 0 1 0 15.22 0v-96.54c0-4.206-3.404-7.623-7.61-7.623M350.188 300.025c.009-6.621-5.346-11.997-11.96-12.006s-11.983 5.351-11.992 11.972c-.01 6.622 5.345 11.997 11.959 12.006s11.983-5.351 11.993-11.972M223.661 181.472a11.9 11.9 0 0 0 2.256-6.982c0-6.622-5.367-11.989-11.976-11.989s-11.976 5.367-11.976 11.989a11.94 11.94 0 0 0 3.111 8.037c-10.307 12.483-23.845 20.066-29.078 22.696a11.98 11.98 0 0 0-11.014-7.263c-6.622 0-11.976 5.367-11.976 11.989s5.367 11.989 11.976 11.989c2.71 0 5.193-.908 7.196-2.43 13.231 20.387 16.969 44.498 18.024 56.554-12.082-1.041-36.207-4.753-56.594-18.01a11.9 11.9 0 0 0 2.296-7.036c0-6.622-5.367-11.989-11.976-11.989-6.622 0-11.976 5.367-11.976 11.989 0 4.98 3.031 9.239 7.343 11.054-3.004 6.008-11.602 21.615-23.591 29.732a11.92 11.92 0 0 0-8.731-3.792C80.354 288.011 75 293.378 75 300s5.367 11.989 11.976 11.989c3.458 0 6.555-1.469 8.745-3.818 11.989 8.117 20.574 23.751 23.578 29.746-4.312 1.816-7.343 6.075-7.343 11.054 0 6.622 5.367 11.989 11.976 11.989 6.622 0 11.976-5.367 11.976-11.989 0-2.63-.854-5.06-2.296-7.036 20.4-13.271 44.538-16.982 56.607-18.01-1.041 12.042-4.753 36.101-18.037 56.554-2.003-1.509-4.499-2.43-7.196-2.43-6.622 0-11.976 5.367-11.976 11.989s5.367 11.989 11.976 11.989c4.94 0 9.185-2.991 11.014-7.263 5.234 2.617 18.745 10.16 29.078 22.696a11.9 11.9 0 0 0-3.124 8.051c0 6.622 5.367 11.989 11.976 11.989s11.976-5.367 11.976-11.989c0-2.603-.841-5.007-2.256-6.982-10.293-17.663-26.822-28.971-36.474-34.432 18.157-31.134 18.117-66.38 18.104-67.969l-.053-7.223-7.209-.067c-1.602-.013-36.822-.107-67.942 18.037-4.059-7.343-11.215-18.531-20.961-26.902 9.746-8.358 16.902-19.532 20.961-26.875 31.121 18.144 66.354 18.05 67.956 18.037l7.209-.067.053-7.223c.013-1.589.053-36.835-18.104-67.969 9.663-5.433 26.191-16.728 36.471-34.404"/><path fill="#fff" d="M415.98 334.272c-19.092 0-34.058-14.312-34.058-32.576 0-18.464 14.646-32.389 34.058-32.389 19.092 0 34.058 14.232 34.058 32.389 0 18.277-14.953 32.576-34.058 32.576m.093-55.807c-13.07 0-23.698 10.427-23.698 23.244 0 12.91 10.627 23.417 23.698 23.417 12.91 0 23.417-10.507 23.417-23.417.014-13.03-10.28-23.244-23.417-23.244M483.321 334.178c-14.432 0-24.512-10.12-24.512-24.606 0-14.592 10.08-24.779 24.512-24.779 8.504 0 15.393 2.67 19.946 7.73l-5.407 6.355c-3.578-3.538-8.304-5.407-13.698-5.407h-.36c-8.825 0-14.993 6.622-14.993 16.101s6.168 16.101 14.993 16.101c6.155 0 11.175-1.989 14.566-5.781l5.46 5.46c-4.526 5.782-11.602 8.826-20.507 8.826M535.364 334.178c-14.432 0-24.512-10.12-24.512-24.606 0-14.592 10.08-24.779 24.512-24.779 8.504 0 15.393 2.67 19.946 7.73l-5.407 6.355c-3.578-3.538-8.304-5.407-13.698-5.407h-.36c-8.825 0-14.993 6.622-14.993 16.101s6.168 16.101 14.993 16.101c6.155 0 11.175-1.989 14.566-5.781l5.461 5.46c-4.527 5.782-11.603 8.826-20.508 8.826M567.779 333.818v-48.637h9.893v48.637zm4.939-57.022c-3.351 0-5.874-2.603-5.874-6.061 0-3.511 2.523-6.155 5.874-6.155s5.874 2.643 5.874 6.155c.001 3.458-2.523 6.061-5.874 6.061M611.22 334.271c-3.164 0-13.471-1.015-13.471-14.032v-25.927h-6.956v-7.29h6.956v-13.538h9.893v13.538h14.552v7.29h-14.552v23.978c0 4.846 1.736 7.009 5.621 7.009 2.056 0 4.299-.614 7.209-2.003l2.483 7.53c-3.898 2.296-7.837 3.445-11.735 3.445M648.148 334.272c-10.013 0-16.996-6.155-16.996-14.953 0-8.852 7.009-14.406 18.304-14.499h15.26v-1.829c0-6.609-4.299-10.253-12.109-10.253-4.74 0-9.599 1.629-14.446 4.86l-4.005-6.809c6.876-4.059 11.802-5.995 20.76-5.995 12.363 0 19.505 6.195 19.599 17.009l.094 32.015h-9.799v-6.208l-2.19 1.976c-3.39 3.07-8.397 4.686-14.472 4.686m2.884-22.336c-7.29 0-10.534 2.136-10.534 6.916 0 4.659 3.885 7.663 9.893 7.663 7.73 0 13.765-4.072 14.339-9.666v-4.913zM727.79 333.818v-27.383c0-7.583-4.673-12.296-12.203-12.296-8.037.093-13.524 5.367-14.339 13.751v25.927h-9.986V285.18h9.986v9.653l2.35-3.111c3.471-4.593 8.905-6.916 16.154-6.916 11.108 0 18.01 7.156 18.01 18.664v30.346zM754.434 333.818v-48.637h9.893v48.637zm4.94-57.022c-3.351 0-5.874-2.603-5.874-6.061 0-3.511 2.523-6.155 5.874-6.155s5.874 2.643 5.874 6.155c0 3.458-2.523 6.061-5.874 6.061M802.697 334.178c-14.886 0-24.873-9.88-24.873-24.606 0-14.499 10.12-24.686 24.606-24.779 7.423 0 13.151 2.109 17.022 6.262 4.486 4.82 6.422 12.283 5.754 22.176h-37.448l.494 1.669c2.056 6.996 7.917 11.335 15.313 11.335 5.327 0 10.24-1.989 13.898-5.594l5.193 5.541c-4.926 5.233-11.815 7.996-19.959 7.996m-.186-41.534c-7.543 0-12.99 4.446-14.579 11.896l-.334 1.575h29.051l-.147-1.442c-.801-7.53-6.021-12.029-13.991-12.029M381.922 250.801l.107-35.486 6.515.107-.107 29.412 15.193.107-.107 5.861zM416.194 251.055c-5.634 0-9.573-3.485-9.573-8.478 0-5.1 3.845-8.184 10.267-8.224h7.65l.107-.534c0-3.311-2.096-5.06-6.061-5.06-2.51 0-5.087.895-7.663 2.643l-.334.227-2.577-4.606.28-.04c3.845-2.283 6.555-3.378 11.535-3.378 6.916 0 10.921 3.485 10.974 9.573l.053 17.743-6.262-.107.107-2.537v-.254l-.174.174c-1.92 1.857-4.804 2.858-8.329 2.858m1.549-12.002c-3.698 0-5.207.948-5.207 3.271 0 2.256 1.869 3.671 4.86 3.671 3.912 0 6.969-2.016 7.249-4.793v-2.043zM451.066 250.801l.107-35.486 14.406.107c9.092 0 14.299 4.432 14.299 12.163 0 5.42-2.47 9.452-6.969 11.375l7.797 11.842h-7.383l-6.275-10.48c-.534-.027-1.001-.027-1.482-.027h-7.89l-.107 10.614zm6.502-16.421 7.997.107c5.434 0 8.197-2.27 8.197-6.756 0-4.312-2.764-6.502-8.197-6.502h-7.997zM498.125 251.003c-8.264 0-13.805-5.487-13.805-13.658 0-8.051 5.621-13.711 13.658-13.751 4.125 0 7.303 1.175 9.466 3.498 2.523 2.71 3.591 6.889 3.191 12.416l-.027.347-19.773-.093c.895 3.805 3.898 6.088 7.743 6.088 2.804 0 5.38-1.068 7.276-3.004l.267-.28 3.391 3.765-.227.107c-2.749 2.989-6.594 4.565-11.16 4.565m-.106-22.31c-3.832 0-6.675 2.376-7.423 6.208l14.406.12c-.241-3.991-2.885-6.328-6.983-6.328m-4.206-8.157 5.754-8.024 6.595 2.884-6.662 5.14zM527.433 260.614c-3.938 0-7.69-1.188-11.148-3.525l-.294-.2 2.857-4.646.174.28c2.643 1.963 5.167 2.83 8.157 2.83 4.886 0 8.051-2.844 8.051-7.249v-2.47l-.187.24c-1.896 2.376-4.766 3.645-8.304 3.645-7.303 0-12.216-5.247-12.216-13.057 0-7.637 4.833-12.803 12.016-12.857 3.685 0 6.542 1.228 8.504 3.658l.187.227v-3.805l6.315.107-.107 24.165c0 7.677-5.5 12.657-14.005 12.657m.441-31.868c-4.339 0-7.396 3.231-7.45 7.85.053 4.726 3.044 7.89 7.45 7.89 4.326 0 7.356-3.244 7.356-7.904 0-4.605-3.03-7.836-7.356-7.836M548.755 250.801l.107-27.116 6.315.107-.107 27.009zm3.217-30.613c-2.056 0-3.605-1.589-3.605-3.698 0-2.136 1.549-3.752 3.605-3.752s3.605 1.615 3.605 3.752c-.013 2.109-1.562 3.698-3.605 3.698M574.612 251.003c-8.304 0-14.112-5.634-14.112-13.711 0-8.197 5.674-13.711 14.112-13.711 8.278 0 14.058 5.634 14.058 13.711.001 8.077-5.78 13.711-14.058 13.711m0-21.949c-4.619 0-7.85 3.418-7.85 8.304 0 4.993 3.151 8.344 7.85 8.344 4.593 0 7.797-3.431 7.797-8.344 0-4.9-3.204-8.304-7.797-8.304M594 250.802l.107-27.116 6.355.107-.107 3.992v.347l.2-.28c1.936-2.817 5.073-4.259 9.292-4.259 6.248 0 10.12 4.019 10.12 10.467v16.742h-6.355l.107-15.153c0-3.858-2.283-6.155-6.101-6.155-4.059.053-6.836 2.724-7.25 6.982v14.432zM393.054 351.36c6.529 0 10.267 3.231 10.267 8.865 0 5.861-3.752 9.265-10.267 9.265h-5.968v7.824h-4.379V351.36zm-5.967 14.192h5.781c4.005 0 6.262-1.709 6.262-5.234 0-3.418-2.256-5.047-6.262-5.047h-5.781zM416.072 380.025c-1.228 3.111-3.444 4.673-6.408 4.673-1.776 0-3.191-.521-4.566-1.669l1.816-3.298c.921.668 1.669.961 2.563.961 1.295 0 2.336-.708 3.004-2.19l.668-1.482-8.157-19.425h4.406l5.901 14.94 5.487-14.94h4.259zM432.493 361.521c1.335-2.67 3.712-4.072 6.822-4.072v4.072c-3.965-.227-6.488 2.109-6.822 5.487v10.307h-4.259v-19.733h4.259zM460.196 369.076h-14.913c.668 3.044 3.004 4.926 6.115 4.926 2.149 0 4.112-.814 5.567-2.296l2.256 2.417c-1.923 2.109-4.753 3.338-8.157 3.338-6.088 0-10.08-4.045-10.08-9.973 0-5.968 4.112-10.013 9.973-10.053 6.942-.001 9.759 4.525 9.239 11.641m-3.712-3.111c-.147-3.191-2.256-5.113-5.487-5.113-3.111 0-5.3 1.963-5.781 5.113zm-8.224-11.201 3.925-5.487 4.379 1.856-4.526 3.631zM483.521 365.032v12.269h-4.259V366.22c0-2.964-1.776-4.78-4.753-4.78-3.258.04-5.3 2.296-5.594 5.38v10.494h-4.259v-19.732h4.259v3.778c1.415-2.737 3.925-3.925 7.263-3.925 4.592 0 7.343 2.897 7.343 7.597M506.579 369.076h-14.913c.668 3.044 3.004 4.926 6.115 4.926 2.149 0 4.112-.814 5.567-2.296l2.256 2.417c-1.923 2.109-4.753 3.338-8.157 3.338-6.088 0-10.08-4.045-10.08-9.973 0-5.968 4.112-10.013 9.973-10.053 6.943-.001 9.76 4.525 9.239 11.641m-3.711-3.111c-.147-3.191-2.256-5.113-5.487-5.113-3.111 0-5.3 1.963-5.781 5.113zm-8.224-11.201 3.925-5.487 4.379 1.856-4.526 3.631zM528.38 369.077h-14.913c.668 3.044 3.004 4.926 6.115 4.926 2.149 0 4.112-.814 5.567-2.296l2.256 2.417c-1.923 2.109-4.753 3.338-8.157 3.338-6.088 0-10.08-4.045-10.08-9.973 0-5.968 4.112-10.013 9.973-10.053 6.943-.001 9.76 4.525 9.239 11.641m-3.711-3.111c-.147-3.191-2.256-5.113-5.487-5.113-3.111 0-5.3 1.963-5.781 5.113zM545.617 359.398l-1.562 3.151c-1.749-1.081-3.926-1.749-5.675-1.749-1.669 0-2.897.561-2.897 1.963 0 3.631 10.494 1.669 10.455 8.825 0 4.045-3.592 5.861-7.571 5.861-2.897 0-5.967-.961-7.929-2.75l1.521-3.044c1.709 1.522 4.447 2.443 6.596 2.443 1.816 0 3.23-.628 3.23-2.109 0-4.045-10.387-1.776-10.347-8.905 0-4.005 3.484-5.714 7.263-5.714 2.496.025 5.141.773 6.916 2.028M558.926 367.487v-2.924h9.119v2.924zM606.684 377.314l-.04-19.399-8.197 16.689h-2.857l-8.197-16.689v19.399h-4.112V351.36h5.193l8.571 17.249 8.531-17.249h5.153v25.954zM634.665 369.076h-14.913c.668 3.044 3.004 4.926 6.115 4.926 2.149 0 4.112-.814 5.567-2.296l2.256 2.417c-1.922 2.109-4.753 3.338-8.157 3.338-6.088 0-10.08-4.045-10.08-9.973 0-5.968 4.112-10.013 9.973-10.053 6.943-.001 9.76 4.525 9.239 11.641m-3.711-3.111c-.147-3.191-2.256-5.113-5.487-5.113-3.111 0-5.3 1.963-5.781 5.113zm-8.225-11.201 3.925-5.487 4.379 1.856-4.526 3.631zM657.909 377.315h-4.258v-3.378c-1.415 2.296-3.779 3.565-6.93 3.565-5.674 0-9.451-4.112-9.451-10.12 0-5.928 3.818-9.973 9.386-9.973 3.191 0 5.566 1.295 7.008 3.591v-11.201h4.26v27.516zm-4.258-9.787c0-3.818-2.483-6.489-6.048-6.489s-6.048 2.71-6.088 6.489c.04 3.752 2.483 6.408 6.088 6.408 3.565.001 6.048-2.669 6.048-6.408M668.989 351.947c0 1.482-1.081 2.563-2.483 2.563-1.415 0-2.483-1.081-2.483-2.563 0-1.522 1.081-2.59 2.483-2.59 1.415 0 2.483 1.068 2.483 2.59m-4.593 25.367v-19.733h4.232v19.733zM686.094 376.046c-1.562.921-3.191 1.442-4.86 1.442-2.964 0-5.527-1.709-5.527-5.741v-10.24h-2.777v-3.191h2.777v-5.407h4.232v5.407h5.821v3.191h-5.821v9.452c0 2.043.774 2.67 2.109 2.67.895 0 1.816-.294 2.964-.854zM707.15 369.077h-14.913c.668 3.044 3.004 4.926 6.115 4.926 2.149 0 4.112-.814 5.567-2.296l2.255 2.417c-1.923 2.109-4.752 3.338-8.156 3.338-6.088 0-10.08-4.045-10.08-9.973 0-5.968 4.112-10.013 9.973-10.053 6.942-.001 9.759 4.525 9.239 11.641m-3.712-3.111c-.147-3.191-2.256-5.113-5.487-5.113-3.111 0-5.3 1.963-5.781 5.113zM715.853 361.521c1.335-2.67 3.712-4.072 6.822-4.072v4.072c-3.965-.227-6.489 2.109-6.822 5.487v10.307h-4.259v-19.733h4.259zM730.47 361.521c1.335-2.67 3.712-4.072 6.822-4.072v4.072c-3.965-.227-6.488 2.109-6.822 5.487v10.307h-4.259v-19.733h4.259zM751.86 374.898c-1.402 1.749-3.672 2.59-6.529 2.59-4.259 0-6.929-2.63-6.929-6.115 0-3.591 2.71-5.901 7.45-5.928h5.968v-.587c0-2.483-1.589-3.965-4.713-3.965-1.896 0-3.858.668-5.821 2.003l-1.749-2.964c2.737-1.629 4.753-2.483 8.491-2.483 5.087 0 7.93 2.59 7.97 6.929l.04 12.937h-4.192v-2.417zm-.04-4.526v-1.816h-5.34c-2.777 0-4.072.748-4.072 2.63 0 1.776 1.442 2.924 3.818 2.924 3.044.014 5.38-1.575 5.594-3.738M780.631 365.032v12.269h-4.259V366.22c0-2.964-1.776-4.78-4.753-4.78-3.258.04-5.3 2.296-5.594 5.38v10.494h-4.259v-19.732h4.259v3.778c1.415-2.737 3.925-3.925 7.263-3.925 4.592 0 7.343 2.897 7.343 7.597M803.689 369.076h-14.913c.668 3.044 3.004 4.926 6.115 4.926 2.149 0 4.112-.814 5.567-2.296l2.256 2.417c-1.923 2.109-4.753 3.338-8.157 3.338-6.088 0-10.08-4.045-10.08-9.973 0-5.968 4.112-10.013 9.973-10.053 6.943-.001 9.76 4.525 9.239 11.641m-3.711-3.111c-.147-3.191-2.256-5.113-5.487-5.113-3.111 0-5.3 1.963-5.781 5.113zm-8.224-11.201 3.925-5.487 4.379 1.856-4.526 3.631zM825.489 369.077h-14.913c.668 3.044 3.004 4.926 6.115 4.926 2.149 0 4.112-.814 5.567-2.296l2.256 2.417c-1.923 2.109-4.753 3.338-8.157 3.338-6.088 0-10.08-4.045-10.08-9.973 0-5.968 4.112-10.013 9.973-10.053 6.943-.001 9.76 4.525 9.239 11.641m-3.711-3.111c-.147-3.191-2.256-5.113-5.487-5.113-3.111 0-5.3 1.963-5.781 5.113z"/></g><defs><clipPath id="a"><path fill="#fff" d="M0 0h900v600H0z"/></clipPath></defs></svg>