<?xml version="1.0" encoding="UTF-8"?>
<svg id="Calque_2" data-name="Calque 2" xmlns="http://www.w3.org/2000/svg" viewBox="0 0 85.03 67.39">
  <defs>
    <style>
      .cls-1 {
        fill: #1d1d1b;
      }

      .cls-2 {
        fill: #ffeb00;
      }

      .cls-3 {
        fill: #164194;
      }
    </style>
  </defs>
  <g id="Calque_1-2" data-name="Calque 1">
    <g>
      <rect class="cls-3" x=".23" width="84.71" height="56.48"/>
      <polygon class="cls-2" points="40.81 12.5 42.59 11.2 44.38 12.5 43.7 10.39 45.52 9.09 43.28 9.09 42.59 6.96 41.91 9.09 39.68 9.09 41.49 10.39 40.81 12.5"/>
      <polygon class="cls-2" points="31.56 14.99 33.34 13.69 35.13 14.99 34.45 12.88 36.27 11.57 34.03 11.57 33.34 9.44 32.66 11.58 30.42 11.57 32.24 12.88 31.56 14.99"/>
      <polygon class="cls-2" points="26.58 16.22 25.89 18.36 23.66 18.36 25.47 19.67 24.79 21.77 26.58 20.47 28.36 21.77 27.68 19.67 29.5 18.36 27.26 18.36 26.58 16.22"/>
      <polygon class="cls-2" points="24.09 29.71 25.88 31.01 25.2 28.91 27.01 27.6 24.78 27.6 24.09 25.46 23.41 27.6 21.17 27.6 22.99 28.91 22.3 31.01 24.09 29.71"/>
      <polygon class="cls-2" points="27.26 36.87 26.58 34.73 25.89 36.87 23.66 36.87 25.47 38.17 24.79 40.28 26.58 38.97 28.36 40.28 27.69 38.17 29.5 36.87 27.26 36.87"/>
      <polygon class="cls-2" points="34.04 43.65 33.36 41.51 32.67 43.65 30.44 43.65 32.25 44.95 31.57 47.06 33.36 45.76 35.15 47.06 34.47 44.95 36.28 43.65 34.04 43.65"/>
      <polygon class="cls-2" points="43.28 46.1 42.6 43.97 41.91 46.1 39.68 46.1 41.49 47.41 40.81 49.52 42.6 48.22 44.38 49.52 43.7 47.41 45.52 46.1 43.28 46.1"/>
      <polygon class="cls-2" points="52.52 43.65 51.84 41.51 51.15 43.65 48.92 43.65 50.73 44.95 50.05 47.06 51.84 45.76 53.62 47.06 52.95 44.95 54.76 43.65 52.52 43.65"/>
      <polygon class="cls-2" points="59.31 36.87 58.62 34.73 57.93 36.87 55.7 36.87 57.51 38.17 56.83 40.28 58.62 38.97 60.41 40.28 59.72 38.17 61.54 36.87 59.31 36.87"/>
      <polygon class="cls-2" points="64 27.57 61.76 27.57 61.07 25.43 60.39 27.57 58.15 27.57 59.97 28.88 59.29 30.99 61.07 29.68 62.86 30.99 62.18 28.88 64 27.57"/>
      <polygon class="cls-2" points="56.83 21.75 58.62 20.44 60.41 21.75 59.72 19.64 61.54 18.33 59.3 18.33 58.62 16.2 57.93 18.34 55.7 18.33 57.51 19.64 56.83 21.75"/>
      <polygon class="cls-2" points="51.86 9.44 51.18 11.58 48.94 11.57 50.75 12.88 50.07 14.99 51.86 13.69 53.65 14.99 52.97 12.88 54.79 11.57 52.55 11.57 51.86 9.44"/>
    </g>
    <g>
      <path class="cls-1" d="M3.84,61.42h.78v3.39c0,.59-.07,1.06-.2,1.41-.13.35-.37.63-.72.85-.35.22-.81.33-1.37.33s-1-.09-1.35-.28-.6-.46-.75-.82-.22-.85-.22-1.47v-3.39h.78v3.39c0,.51.05.89.14,1.13.09.24.26.43.49.56.23.13.51.2.85.2.57,0,.98-.13,1.22-.39.24-.26.36-.76.36-1.49v-3.39Z"/>
      <path class="cls-1" d="M5.9,67.29v-5.87h.8l3.08,4.61v-4.61h.74v5.87h-.8l-3.08-4.61v4.61h-.74Z"/>
      <path class="cls-1" d="M11.96,67.29v-5.87h.78v5.87h-.78Z"/>
      <path class="cls-1" d="M13.87,64.43c0-.97.26-1.74.78-2.29.52-.55,1.2-.83,2.03-.83.54,0,1.03.13,1.47.39.44.26.77.62,1,1.08.23.46.34.99.34,1.58s-.12,1.13-.36,1.6-.58.83-1.02,1.07c-.44.24-.92.36-1.43.36-.55,0-1.05-.13-1.48-.4-.44-.27-.76-.63-.99-1.09-.22-.46-.34-.95-.34-1.46ZM14.67,64.44c0,.71.19,1.26.57,1.67s.86.61,1.43.61,1.07-.21,1.44-.62c.38-.41.57-.99.57-1.75,0-.48-.08-.9-.24-1.25-.16-.36-.4-.63-.71-.83-.31-.2-.66-.29-1.05-.29-.55,0-1.02.19-1.42.57-.4.38-.59,1.01-.59,1.89Z"/>
      <path class="cls-1" d="M20.48,67.29v-5.87h.8l3.08,4.61v-4.61h.74v5.87h-.8l-3.08-4.61v4.61h-.74Z"/>
      <path class="cls-1" d="M28.7,67.29v-5.87h4.24v.69h-3.47v1.8h3.25v.69h-3.25v2h3.6v.69h-4.38Z"/>
      <path class="cls-1" d="M38.01,61.42h.78v3.39c0,.59-.07,1.06-.2,1.41-.13.35-.37.63-.72.85-.35.22-.81.33-1.37.33s-1-.09-1.35-.28-.6-.46-.75-.82-.22-.85-.22-1.47v-3.39h.78v3.39c0,.51.05.89.14,1.13.09.24.26.43.49.56.23.13.51.2.85.2.57,0,.98-.13,1.22-.39.24-.26.36-.76.36-1.49v-3.39Z"/>
      <path class="cls-1" d="M40.09,67.29v-5.87h2.6c.52,0,.92.05,1.19.16.27.11.49.29.65.56.16.27.24.56.24.88,0,.42-.14.77-.4,1.05-.27.29-.69.47-1.25.54.21.1.36.2.47.29.23.21.44.47.65.78l1.02,1.6h-.98l-.78-1.22c-.23-.35-.41-.62-.56-.81-.15-.19-.28-.32-.39-.39-.12-.08-.23-.13-.35-.16-.09-.02-.23-.03-.43-.03h-.9v2.61h-.78ZM40.87,64.01h1.67c.35,0,.63-.04.83-.11.2-.07.35-.19.46-.35.1-.16.16-.34.16-.53,0-.28-.1-.51-.3-.68-.2-.18-.52-.27-.96-.27h-1.86v1.94Z"/>
      <path class="cls-1" d="M45.77,64.43c0-.97.26-1.74.78-2.29.52-.55,1.2-.83,2.03-.83.54,0,1.03.13,1.47.39.44.26.77.62,1,1.08.23.46.34.99.34,1.58s-.12,1.13-.36,1.6-.58.83-1.02,1.07c-.44.24-.92.36-1.43.36-.55,0-1.05-.13-1.48-.4-.44-.27-.76-.63-.99-1.09-.22-.46-.34-.95-.34-1.46ZM46.57,64.44c0,.71.19,1.26.57,1.67s.86.61,1.43.61,1.07-.21,1.44-.62c.38-.41.57-.99.57-1.75,0-.48-.08-.9-.24-1.25-.16-.36-.4-.63-.71-.83-.31-.2-.66-.29-1.05-.29-.55,0-1.02.19-1.42.57-.4.38-.59,1.01-.59,1.89Z"/>
      <path class="cls-1" d="M52.38,67.29v-5.87h2.21c.39,0,.69.02.89.06.29.05.53.14.72.27s.35.32.47.57c.12.24.18.51.18.8,0,.5-.16.92-.48,1.27-.32.35-.89.52-1.72.52h-1.51v2.39h-.78ZM53.16,64.21h1.52c.5,0,.86-.09,1.07-.28.21-.19.32-.45.32-.79,0-.25-.06-.46-.19-.63s-.29-.29-.49-.35c-.13-.03-.37-.05-.73-.05h-1.5v2.1Z"/>
      <path class="cls-1" d="M57.87,67.29v-5.87h4.24v.69h-3.47v1.8h3.25v.69h-3.25v2h3.6v.69h-4.38ZM59.47,61.06l.53-1.12h.94l-.88,1.12h-.6Z"/>
      <path class="cls-1" d="M63.33,67.29v-5.87h4.24v.69h-3.47v1.8h3.25v.69h-3.25v2h3.6v.69h-4.38Z"/>
      <path class="cls-1" d="M68.78,67.29v-5.87h.8l3.08,4.61v-4.61h.74v5.87h-.8l-3.08-4.61v4.61h-.74Z"/>
      <path class="cls-1" d="M74.7,67.29v-5.87h.8l3.08,4.61v-4.61h.74v5.87h-.8l-3.08-4.61v4.61h-.74Z"/>
      <path class="cls-1" d="M80.65,67.29v-5.87h4.24v.69h-3.47v1.8h3.25v.69h-3.25v2h3.6v.69h-4.38Z"/>
    </g>
  </g>
</svg>