<svg xmlns="http://www.w3.org/2000/svg" id="Calque_2" data-name="Calque 2" viewBox="0 0 931.51 200.28"><defs><style>.cls-1{fill:#004195}.cls-2{fill:#fff200}</style></defs><g id="Layer_1" data-name="Layer 1"><path d="M0 0h294.95v200.28H0z" class="cls-1"/><path d="M5.67 5.49h283.6v189.07H5.67z" class="cls-1"/><path d="m141.43 46.69 5.98-4.37 5.99 4.37-2.28-7.07 6.08-4.36h-7.49l-2.3-7.15-2.29 7.16-7.49-.01 6.08 4.36zM110.46 55.01l5.98-4.37 5.99 4.37-2.28-7.06 6.08-4.37h-7.5l-2.29-7.16-2.29 7.17-7.49-.01 6.07 4.37zM93.79 59.13l-2.3 7.17-7.49-.01 6.08 4.37-2.28 7.06 5.99-4.37 5.98 4.37-2.28-7.06 6.08-4.37h-7.49zM85.47 104.28l5.98 4.37-2.27-7.06 6.07-4.37h-7.48l-2.3-7.16-2.29 7.18-7.49-.02 6.08 4.37-2.28 7.06zM96.08 128.24l-2.3-7.15-2.29 7.16-7.49-.01 6.08 4.37-2.28 7.06 5.98-4.37 5.99 4.37-2.28-7.06 6.08-4.37zM118.78 150.94l-2.29-7.14-2.29 7.15-7.49-.01 6.07 4.37-2.27 7.06 5.98-4.36 5.98 4.36-2.27-7.06 6.07-4.37zM149.71 159.17l-2.29-7.15-2.29 7.16-7.49-.01 6.07 4.37-2.27 7.06 5.98-4.37 5.98 4.37-2.28-7.06 6.08-4.37zM180.64 150.94l-2.29-7.14-2.3 7.15-7.48-.01 6.07 4.37-2.27 7.06 5.98-4.36 5.99 4.36-2.29-7.06 6.08-4.37zM203.35 128.24l-2.3-7.15-2.29 7.16-7.49-.01 6.08 4.37-2.28 7.06 5.98-4.37 5.99 4.37-2.28-7.06 6.08-4.37zM219.06 97.13h-7.49l-2.3-7.15-2.28 7.16-7.5-.01 6.08 4.37-2.27 7.06 5.97-4.37 5.99 4.37-2.27-7.06zM195.07 77.62l5.98-4.36 5.99 4.36-2.28-7.06 6.08-4.36h-7.49l-2.3-7.15-2.29 7.16-7.49-.01 6.08 4.36zM178.44 36.43l-2.29 7.16-7.49-.01 6.07 4.37-2.28 7.07 6-4.38 5.97 4.38-2.27-7.07 6.08-4.37h-7.5z" class="cls-2"/><path d="m361.9 62.22 9.11 2.89c-1.4 5.08-3.72 8.85-6.97 11.31-3.25 2.47-7.37 3.7-12.36 3.7-6.18 0-11.26-2.11-15.23-6.33q-5.97-6.33-5.97-17.31c0-7.74 2-13.76 6-18.04 4-4.29 9.26-6.43 15.77-6.43 5.69 0 10.31 1.68 13.87 5.05 2.12 1.99 3.7 4.85 4.76 8.57l-9.3 2.22c-.55-2.41-1.7-4.32-3.44-5.71-1.75-1.4-3.87-2.09-6.36-2.09-3.45 0-6.25 1.24-8.39 3.71-2.15 2.47-3.22 6.49-3.22 12.03 0 5.88 1.06 10.07 3.17 12.57q3.18 3.75 8.25 3.75c2.5 0 4.64-.79 6.44-2.38s3.09-4.08 3.87-7.49ZM376.94 62c0-2.96.73-5.83 2.19-8.6s3.53-4.89 6.2-6.35q4.02-2.19 8.97-2.19c5.1 0 9.28 1.66 12.54 4.97s4.89 7.5 4.89 12.55-1.65 9.33-4.94 12.68-7.43 5.03-12.42 5.03c-3.09 0-6.04-.7-8.84-2.09s-4.94-3.44-6.39-6.14c-1.46-2.7-2.19-5.98-2.19-9.85Zm9.14.47c0 3.34.79 5.9 2.38 7.68s3.54 2.67 5.87 2.67 4.28-.89 5.86-2.67 2.36-4.36 2.36-7.74-.79-5.84-2.36-7.62-3.53-2.67-5.86-2.67-4.28.89-5.87 2.67-2.38 4.34-2.38 7.68M415.03 45.62h4.95v-2.54c0-2.83.3-4.95.9-6.35s1.71-2.53 3.33-3.41 3.67-1.32 6.14-1.32 5.03.38 7.46 1.14l-1.21 6.22c-1.42-.34-2.78-.51-4.09-.51s-2.22.3-2.78.91q-.84.9-.84 3.48v2.38h6.67v7.01h-6.67v26.69h-8.92V52.63h-4.95v-7.01Zm25.04-4.57V32.8h8.92v8.25zm0 38.28V45.62h8.92v33.71zM489.07 79.33h-8.92v-17.2c0-3.64-.19-5.99-.57-7.06s-1-1.9-1.86-2.49-1.89-.89-3.09-.89c-1.54 0-2.93.42-4.16 1.27s-2.07 1.97-2.52 3.37c-.46 1.4-.68 3.98-.68 7.74v15.27h-8.92V45.63h8.28v4.95c2.94-3.81 6.64-5.71 11.11-5.71 1.97 0 3.77.35 5.4 1.06s2.86 1.61 3.7 2.71 1.42 2.35 1.75 3.75.49 3.4.49 6v20.95ZM504.78 55.91l-8.09-1.46c.91-3.26 2.48-5.67 4.7-7.24s5.52-2.35 9.9-2.35c3.98 0 6.94.47 8.89 1.41s3.32 2.14 4.11 3.59 1.19 4.11 1.19 7.98l-.09 10.41c0 2.96.14 5.15.43 6.55.29 1.41.82 2.92 1.6 4.52h-8.82c-.23-.59-.52-1.47-.86-2.63-.15-.53-.25-.88-.32-1.05q-2.28 2.22-4.89 3.33c-1.73.74-3.59 1.11-5.55 1.11-3.47 0-6.21-.94-8.2-2.82q-3-2.82-3-7.14c0-1.9.46-3.6 1.37-5.09s2.18-2.63 3.82-3.43c1.64-.79 4-1.49 7.09-2.08 4.17-.78 7.06-1.51 8.66-2.19v-.89c0-1.71-.42-2.94-1.27-3.67s-2.44-1.1-4.79-1.1c-1.59 0-2.83.31-3.71.94-.89.62-1.61 1.72-2.16 3.29Zm11.94 7.23c-1.14.38-2.95.84-5.43 1.36-2.48.53-4.09 1.05-4.86 1.56-1.16.83-1.75 1.87-1.75 3.14s.46 2.33 1.4 3.24c.93.91 2.12 1.36 3.55 1.36 1.61 0 3.14-.53 4.6-1.59 1.08-.8 1.79-1.79 2.13-2.95.23-.76.35-2.21.35-4.35v-1.78ZM564.93 79.33h-8.92v-17.2c0-3.64-.19-5.99-.57-7.06s-1-1.9-1.86-2.49-1.89-.89-3.09-.89c-1.54 0-2.93.42-4.16 1.27s-2.07 1.97-2.52 3.37c-.46 1.4-.68 3.98-.68 7.74v15.27h-8.92V45.63h8.28v4.95c2.94-3.81 6.64-5.71 11.11-5.71 1.97 0 3.77.35 5.4 1.06s2.86 1.61 3.7 2.71 1.42 2.35 1.75 3.75.49 3.4.49 6v20.95ZM603.36 55.59l-8.79 1.59c-.3-1.76-.97-3.08-2.02-3.97s-2.41-1.33-4.08-1.33c-2.22 0-3.99.77-5.32 2.3s-1.98 4.1-1.98 7.7c0 4 .67 6.82 2.02 8.47 1.34 1.65 3.15 2.48 5.41 2.48 1.69 0 3.08-.48 4.16-1.44s1.84-2.62 2.29-4.97l8.76 1.49c-.91 4.02-2.66 7.06-5.24 9.11s-6.04 3.08-10.38 3.08c-4.93 0-8.86-1.55-11.79-4.67-2.93-3.11-4.4-7.42-4.4-12.92s1.47-9.9 4.41-13 6.92-4.65 11.93-4.65c4.1 0 7.37.88 9.79 2.65s4.16 4.46 5.22 8.08ZM629.64 68.6l8.89 1.49c-1.14 3.26-2.95 5.74-5.41 7.44-2.47 1.7-5.55 2.55-9.25 2.55-5.86 0-10.2-1.92-13.01-5.74-2.22-3.07-3.33-6.94-3.33-11.62 0-5.59 1.46-9.96 4.38-13.12s6.61-4.75 11.08-4.75c5.01 0 8.97 1.66 11.87 4.97s4.28 8.38 4.16 15.22h-22.34c.06 2.65.78 4.7 2.16 6.17s3.09 2.21 5.14 2.21c1.4 0 2.57-.38 3.52-1.14s1.67-1.99 2.16-3.68Zm.51-9.01c-.06-2.58-.73-4.54-2-5.89-1.27-1.34-2.81-2.02-4.63-2.02-1.95 0-3.55.71-4.82 2.13s-1.89 3.34-1.87 5.78h13.33ZM618.76 41.5l4.38-9.49h10l-8.73 9.49zM664.08 45.62h8.31v4.95c1.08-1.69 2.54-3.07 4.38-4.13q2.76-1.59 6.12-1.59c3.91 0 7.24 1.53 9.97 4.6s4.09 7.34 4.09 12.82-1.38 10-4.13 13.12-6.08 4.68-10 4.68c-1.86 0-3.55-.37-5.06-1.11s-3.11-2.01-4.78-3.81v16.98h-8.92V45.6Zm8.82 16.28c0 3.79.75 6.58 2.25 8.39s3.33 2.71 5.49 2.71 3.8-.83 5.17-2.49c1.38-1.66 2.06-4.38 2.06-8.17 0-3.53-.71-6.16-2.13-7.87s-3.17-2.57-5.27-2.57-3.99.84-5.43 2.52q-2.16 2.52-2.16 7.47ZM710.7 55.91l-8.09-1.46c.91-3.26 2.48-5.67 4.7-7.24s5.52-2.35 9.9-2.35c3.98 0 6.94.47 8.89 1.41s3.32 2.14 4.11 3.59 1.19 4.11 1.19 7.98l-.09 10.41c0 2.96.14 5.15.43 6.55.29 1.41.82 2.92 1.6 4.52h-8.82c-.23-.59-.52-1.47-.86-2.63-.15-.53-.25-.88-.32-1.05q-2.28 2.22-4.89 3.33c-1.73.74-3.59 1.11-5.55 1.11-3.47 0-6.21-.94-8.2-2.82q-3-2.82-3-7.14c0-1.9.46-3.6 1.37-5.09s2.18-2.63 3.82-3.43c1.64-.79 4-1.49 7.09-2.08 4.17-.78 7.06-1.51 8.66-2.19v-.89c0-1.71-.42-2.94-1.27-3.67s-2.44-1.1-4.79-1.1c-1.59 0-2.83.31-3.71.94-.89.62-1.61 1.72-2.16 3.29Zm11.94 7.23c-1.14.38-2.95.84-5.43 1.36-2.48.53-4.09 1.05-4.86 1.56-1.16.83-1.75 1.87-1.75 3.14s.46 2.33 1.4 3.24c.93.91 2.12 1.36 3.55 1.36 1.61 0 3.14-.53 4.6-1.59 1.08-.8 1.79-1.79 2.13-2.95.23-.76.35-2.21.35-4.35v-1.78ZM748.73 79.33h-8.92V45.62h8.28v4.79c1.42-2.26 2.69-3.75 3.82-4.47s2.42-1.08 3.86-1.08c2.03 0 3.99.56 5.87 1.68l-2.76 7.78c-1.5-.97-2.9-1.46-4.19-1.46s-2.31.34-3.17 1.03c-.87.69-1.55 1.93-2.05 3.73s-.75 5.57-.75 11.3v10.41ZM332.07 157.33V110.8h8.92v46.53zM349.9 110.93h8.92v6.38c0 2.58-.22 4.62-.67 6.11-.44 1.49-1.29 2.83-2.52 4.01q-1.86 1.785-4.71 2.79l-1.75-3.68c1.8-.59 3.08-1.41 3.84-2.44.76-1.04 1.16-2.45 1.21-4.25h-4.32zM368.18 110.8h9.39V136c0 4 .12 6.59.35 7.78.4 1.9 1.36 3.43 2.87 4.59s3.58 1.73 6.21 1.73 4.68-.54 6.03-1.63 2.17-2.43 2.44-4.01c.27-1.59.41-4.22.41-7.9v-25.74h9.39v24.44c0 5.59-.25 9.53-.76 11.84s-1.44 4.25-2.81 5.84-3.19 2.85-5.47 3.79-5.27 1.41-8.95 1.41c-4.44 0-7.81-.51-10.11-1.54s-4.11-2.36-5.44-4-2.21-3.36-2.63-5.16c-.61-2.67-.92-6.6-.92-11.81v-24.82ZM445.78 157.33h-8.92v-17.2c0-3.64-.19-5.99-.57-7.06s-1-1.9-1.86-2.49-1.89-.89-3.09-.89c-1.54 0-2.93.42-4.16 1.27s-2.07 1.97-2.52 3.37c-.46 1.4-.68 3.98-.68 7.74v15.27h-8.92v-33.71h8.28v4.95c2.94-3.81 6.64-5.71 11.11-5.71 1.97 0 3.77.35 5.4 1.06s2.86 1.61 3.7 2.71 1.42 2.35 1.75 3.75.49 3.4.49 6v20.95ZM454.83 119.05v-8.25h8.92v8.25zm0 38.28v-33.71h8.92v33.71zM470.82 140c0-2.96.73-5.83 2.19-8.6s3.53-4.89 6.2-6.35q4.02-2.19 8.97-2.19c5.1 0 9.28 1.66 12.54 4.97s4.89 7.5 4.89 12.55-1.65 9.33-4.94 12.68-7.43 5.03-12.42 5.03c-3.09 0-6.04-.7-8.84-2.09s-4.94-3.44-6.39-6.14c-1.46-2.7-2.19-5.98-2.19-9.85Zm9.14.47c0 3.34.79 5.9 2.38 7.68s3.54 2.67 5.87 2.67 4.28-.89 5.86-2.67 2.36-4.36 2.36-7.74-.79-5.84-2.36-7.62-3.53-2.67-5.86-2.67-4.28.89-5.87 2.67-2.38 4.34-2.38 7.68M543.25 157.33h-8.92v-17.2c0-3.64-.19-5.99-.57-7.06s-1-1.9-1.86-2.49-1.89-.89-3.09-.89c-1.54 0-2.93.42-4.16 1.27s-2.07 1.97-2.52 3.37c-.46 1.4-.68 3.98-.68 7.74v15.27h-8.92v-33.71h8.28v4.95c2.94-3.81 6.64-5.71 11.11-5.71 1.97 0 3.77.35 5.4 1.06s2.86 1.61 3.7 2.71 1.42 2.35 1.75 3.75.49 3.4.49 6v20.95ZM589.88 146.6l8.89 1.49c-1.14 3.26-2.95 5.74-5.41 7.44-2.47 1.7-5.55 2.55-9.25 2.55-5.86 0-10.2-1.92-13.01-5.74-2.22-3.07-3.33-6.94-3.33-11.62 0-5.59 1.46-9.96 4.38-13.12s6.61-4.75 11.08-4.75c5.01 0 8.97 1.66 11.87 4.97s4.28 8.38 4.16 15.22h-22.34c.06 2.65.78 4.7 2.16 6.17s3.09 2.21 5.14 2.21c1.4 0 2.57-.38 3.52-1.14s1.67-1.99 2.16-3.68Zm.5-9.01c-.06-2.58-.73-4.54-2-5.89-1.27-1.34-2.81-2.02-4.63-2.02-1.95 0-3.55.71-4.82 2.13s-1.89 3.34-1.87 5.78h13.33ZM628.69 157.33v-5.05c-1.23 1.8-2.84 3.22-4.84 4.25-2 1.04-4.11 1.55-6.33 1.55s-4.3-.5-6.09-1.49c-1.8-.99-3.1-2.39-3.9-4.19s-1.21-4.28-1.21-7.46v-21.33h8.92v15.49c0 4.74.16 7.64.49 8.71s.92 1.92 1.79 2.54 1.97.94 3.3.94c1.52 0 2.89-.42 4.09-1.25 1.21-.83 2.03-1.87 2.47-3.11.45-1.24.67-4.27.67-9.09v-14.22h8.92v33.71zM654.75 157.33h-8.92v-33.71h8.28v4.79c1.42-2.26 2.69-3.75 3.82-4.47s2.42-1.08 3.86-1.08c2.03 0 3.99.56 5.87 1.68l-2.76 7.78c-1.5-.97-2.9-1.46-4.19-1.46s-2.31.34-3.17 1.03c-.87.69-1.55 1.93-2.05 3.73s-.75 5.57-.75 11.3v10.41ZM669.44 140c0-2.96.73-5.83 2.19-8.6s3.53-4.89 6.2-6.35q4.02-2.19 8.97-2.19c5.1 0 9.28 1.66 12.54 4.97s4.89 7.5 4.89 12.55-1.65 9.33-4.94 12.68-7.43 5.03-12.42 5.03c-3.09 0-6.04-.7-8.84-2.09s-4.94-3.44-6.39-6.14c-1.46-2.7-2.19-5.98-2.19-9.85Zm9.14.47c0 3.34.79 5.9 2.38 7.68s3.54 2.67 5.87 2.67 4.28-.89 5.86-2.67 2.36-4.36 2.36-7.74-.79-5.84-2.36-7.62-3.53-2.67-5.86-2.67-4.28.89-5.87 2.67-2.38 4.34-2.38 7.68M710.96 123.62h8.31v4.95c1.08-1.69 2.54-3.07 4.38-4.13q2.76-1.59 6.12-1.59c3.91 0 7.24 1.53 9.97 4.6s4.09 7.34 4.09 12.82-1.38 10-4.13 13.12-6.08 4.68-10 4.68c-1.86 0-3.55-.37-5.06-1.11s-3.11-2.01-4.78-3.81v16.98h-8.92V123.6Zm8.82 16.28c0 3.79.75 6.58 2.25 8.39s3.33 2.71 5.49 2.71 3.8-.83 5.17-2.49c1.38-1.66 2.06-4.38 2.06-8.17 0-3.53-.71-6.16-2.13-7.87s-3.17-2.57-5.27-2.57-3.99.84-5.43 2.52q-2.16 2.52-2.16 7.47ZM770.43 146.6l8.89 1.49c-1.14 3.26-2.95 5.74-5.41 7.44-2.47 1.7-5.55 2.55-9.25 2.55-5.86 0-10.2-1.92-13.01-5.74-2.22-3.07-3.33-6.94-3.33-11.62 0-5.59 1.46-9.96 4.38-13.12s6.61-4.75 11.08-4.75c5.01 0 8.97 1.66 11.87 4.97s4.28 8.38 4.16 15.22h-22.34c.06 2.65.78 4.7 2.16 6.17s3.09 2.21 5.14 2.21c1.4 0 2.57-.38 3.52-1.14s1.67-1.99 2.16-3.68Zm.51-9.01c-.06-2.58-.73-4.54-2-5.89-1.27-1.34-2.81-2.02-4.63-2.02-1.95 0-3.55.71-4.82 2.13s-1.89 3.34-1.87 5.78h13.33Zm-11.39-18.09 4.38-9.49h10l-8.73 9.49zM806.58 146.6l8.89 1.49c-1.14 3.26-2.95 5.74-5.41 7.44-2.47 1.7-5.55 2.55-9.25 2.55-5.86 0-10.2-1.92-13.01-5.74-2.22-3.07-3.33-6.94-3.33-11.62 0-5.59 1.46-9.96 4.38-13.12s6.61-4.75 11.08-4.75c5.01 0 8.97 1.66 11.87 4.97s4.28 8.38 4.16 15.22h-22.34c.06 2.65.78 4.7 2.16 6.17s3.09 2.21 5.14 2.21c1.4 0 2.57-.38 3.52-1.14s1.67-1.99 2.16-3.68Zm.51-9.01c-.06-2.58-.73-4.54-2-5.89-1.27-1.34-2.81-2.02-4.63-2.02-1.95 0-3.55.71-4.82 2.13s-1.89 3.34-1.87 5.78h13.33ZM853.87 157.33h-8.92v-17.2c0-3.64-.19-5.99-.57-7.06s-1-1.9-1.86-2.49-1.89-.89-3.09-.89c-1.54 0-2.93.42-4.16 1.27s-2.07 1.97-2.52 3.37c-.46 1.4-.68 3.98-.68 7.74v15.27h-8.92v-33.71h8.28v4.95c2.94-3.81 6.64-5.71 11.11-5.71 1.97 0 3.77.35 5.4 1.06s2.86 1.61 3.7 2.71 1.42 2.35 1.75 3.75.49 3.4.49 6v20.95ZM893.58 157.33h-8.92v-17.2c0-3.64-.19-5.99-.57-7.06s-1-1.9-1.86-2.49-1.89-.89-3.09-.89c-1.54 0-2.93.42-4.16 1.27s-2.07 1.97-2.52 3.37c-.46 1.4-.68 3.98-.68 7.74v15.27h-8.92v-33.71h8.28v4.95c2.94-3.81 6.64-5.71 11.11-5.71 1.97 0 3.77.35 5.4 1.06s2.86 1.61 3.7 2.71 1.42 2.35 1.75 3.75.49 3.4.49 6v20.95ZM922.14 146.6l8.89 1.49c-1.14 3.26-2.95 5.74-5.41 7.44-2.47 1.7-5.55 2.55-9.25 2.55-5.86 0-10.2-1.92-13.01-5.74-2.22-3.07-3.33-6.94-3.33-11.62 0-5.59 1.46-9.96 4.38-13.12s6.61-4.75 11.08-4.75c5.01 0 8.97 1.66 11.87 4.97s4.28 8.38 4.16 15.22h-22.34c.06 2.65.78 4.7 2.16 6.17s3.09 2.21 5.14 2.21c1.4 0 2.57-.38 3.52-1.14s1.67-1.99 2.16-3.68Zm.51-9.01c-.06-2.58-.73-4.54-2-5.89-1.27-1.34-2.81-2.02-4.63-2.02-1.95 0-3.55.71-4.82 2.13s-1.89 3.34-1.87 5.78h13.33Z" class="cls-1"/></g></svg>