<svg width="900" height="600" viewBox="0 0 900 600" fill="none" xmlns="http://www.w3.org/2000/svg">
<g clip-path="url(#clip0_676_14099)">
<path d="M0 600H900V0H0V600Z" fill="#AB080E"/>
<path d="M237.294 201.751C233.088 201.751 229.684 205.155 229.684 209.374V390.892C229.684 395.097 233.088 398.515 237.294 398.515C241.499 398.515 244.904 395.097 244.904 390.892V209.375C244.918 205.169 241.5 201.751 237.294 201.751Z" fill="#F9DC00"/>
<path d="M270.774 215.021C266.568 215.021 263.164 218.425 263.164 222.644V377.647C263.164 381.853 266.568 385.27 270.774 385.27C274.98 385.27 278.384 381.852 278.384 377.647V222.631C278.398 218.426 274.98 215.021 270.774 215.021Z" fill="#F9DC00"/>
<path d="M304.258 244.194C300.052 244.194 296.648 247.598 296.648 251.817V348.357C296.648 352.563 300.052 355.98 304.258 355.98C308.463 355.98 311.868 352.576 311.868 348.357V251.817C311.868 247.611 308.464 244.194 304.258 244.194Z" fill="#F9DC00"/>
<path d="M350.188 300.025C350.197 293.404 344.842 288.028 338.228 288.019C331.614 288.01 326.245 293.37 326.236 299.991C326.226 306.613 331.581 311.988 338.195 311.997C344.809 312.006 350.178 306.646 350.188 300.025Z" fill="#F9DC00"/>
<path d="M223.661 181.472C225.076 179.509 225.917 177.106 225.917 174.49C225.917 167.868 220.55 162.501 213.941 162.501C207.332 162.501 201.965 167.868 201.965 174.49C201.965 177.587 203.153 180.404 205.076 182.527C194.769 195.01 181.231 202.593 175.998 205.223C174.169 200.951 169.923 197.96 164.984 197.96C158.362 197.96 153.008 203.327 153.008 209.949C153.008 216.571 158.375 221.938 164.984 221.938C167.694 221.938 170.177 221.03 172.18 219.508C185.411 239.895 189.149 264.006 190.204 276.062C178.122 275.021 153.997 271.309 133.61 258.052C135.052 256.076 135.906 253.646 135.906 251.016C135.906 244.394 130.539 239.027 123.93 239.027C117.308 239.027 111.954 244.394 111.954 251.016C111.954 255.996 114.985 260.255 119.297 262.07C116.293 268.078 107.695 283.685 95.706 291.802C93.516 289.466 90.419 288.01 86.975 288.01C80.354 288.011 75 293.378 75 300C75 306.622 80.367 311.989 86.976 311.989C90.434 311.989 93.531 310.52 95.721 308.171C107.71 316.288 116.295 331.922 119.299 337.917C114.987 339.733 111.956 343.992 111.956 348.971C111.956 355.593 117.323 360.96 123.932 360.96C130.554 360.96 135.908 355.593 135.908 348.971C135.908 346.341 135.054 343.911 133.612 341.935C154.012 328.664 178.15 324.953 190.219 323.925C189.178 335.967 185.466 360.026 172.182 380.479C170.179 378.97 167.683 378.049 164.986 378.049C158.364 378.049 153.01 383.416 153.01 390.038C153.01 396.66 158.377 402.027 164.986 402.027C169.926 402.027 174.171 399.036 176 394.764C181.234 397.381 194.745 404.924 205.078 417.46C203.142 419.583 201.954 422.4 201.954 425.511C201.954 432.133 207.321 437.5 213.93 437.5C220.539 437.5 225.906 432.133 225.906 425.511C225.906 422.908 225.065 420.504 223.65 418.529C213.357 400.866 196.828 389.558 187.176 384.097C205.333 352.963 205.293 317.717 205.28 316.128L205.227 308.905L198.018 308.838C196.416 308.825 161.196 308.731 130.076 326.875C126.017 319.532 118.861 308.344 109.115 299.973C118.861 291.615 126.017 280.441 130.076 273.098C161.197 291.242 196.43 291.148 198.032 291.135L205.241 291.068L205.294 283.845C205.307 282.256 205.347 247.01 187.19 215.876C196.853 210.443 213.381 199.148 223.661 181.472Z" fill="#F9DC00"/>
<path d="M415.98 334.272C396.888 334.272 381.922 319.96 381.922 301.696C381.922 283.232 396.568 269.307 415.98 269.307C435.072 269.307 450.038 283.539 450.038 301.696C450.038 319.973 435.085 334.272 415.98 334.272ZM416.073 278.465C403.003 278.465 392.375 288.892 392.375 301.709C392.375 314.619 403.002 325.126 416.073 325.126C428.983 325.126 439.49 314.619 439.49 301.709C439.504 288.679 429.21 278.465 416.073 278.465Z" fill="white"/>
<path d="M483.321 334.178C468.889 334.178 458.809 324.058 458.809 309.572C458.809 294.98 468.889 284.793 483.321 284.793C491.825 284.793 498.714 287.463 503.267 292.523L497.86 298.878C494.282 295.34 489.556 293.471 484.162 293.471H483.802C474.977 293.471 468.809 300.093 468.809 309.572C468.809 319.051 474.977 325.673 483.802 325.673C489.957 325.673 494.977 323.684 498.368 319.892L503.828 325.352C499.302 331.134 492.226 334.178 483.321 334.178Z" fill="white"/>
<path d="M535.364 334.178C520.932 334.178 510.852 324.058 510.852 309.572C510.852 294.98 520.932 284.793 535.364 284.793C543.868 284.793 550.757 287.463 555.31 292.523L549.903 298.878C546.325 295.34 541.599 293.471 536.205 293.471H535.845C527.02 293.471 520.852 300.093 520.852 309.572C520.852 319.051 527.02 325.673 535.845 325.673C542 325.673 547.02 323.684 550.411 319.892L555.872 325.352C551.345 331.134 544.269 334.178 535.364 334.178Z" fill="white"/>
<path d="M567.779 333.818V285.181H577.672V333.818H567.779ZM572.718 276.796C569.367 276.796 566.844 274.193 566.844 270.735C566.844 267.224 569.367 264.58 572.718 264.58C576.069 264.58 578.592 267.223 578.592 270.735C578.593 274.193 576.069 276.796 572.718 276.796Z" fill="white"/>
<path d="M611.22 334.271C608.056 334.271 597.749 333.256 597.749 320.239V294.312H590.793V287.022H597.749V273.484H607.642V287.022H622.194V294.312H607.642V318.29C607.642 323.136 609.378 325.299 613.263 325.299C615.319 325.299 617.562 324.685 620.472 323.296L622.955 330.826C619.057 333.122 615.118 334.271 611.22 334.271Z" fill="white"/>
<path d="M648.148 334.272C638.135 334.272 631.152 328.117 631.152 319.319C631.152 310.467 638.161 304.913 649.456 304.82H664.716V302.991C664.716 296.382 660.417 292.738 652.607 292.738C647.867 292.738 643.008 294.367 638.161 297.598L634.156 290.789C641.032 286.73 645.958 284.794 654.916 284.794C667.279 284.794 674.421 290.989 674.515 301.803L674.609 333.818H664.81V327.61L662.62 329.586C659.23 332.656 654.223 334.272 648.148 334.272ZM651.032 311.936C643.742 311.936 640.498 314.072 640.498 318.852C640.498 323.511 644.383 326.515 650.391 326.515C658.121 326.515 664.156 322.443 664.73 316.849V311.936H651.032Z" fill="white"/>
<path d="M727.79 333.818V306.435C727.79 298.852 723.117 294.139 715.587 294.139C707.55 294.232 702.063 299.506 701.248 307.89V333.817H691.262V285.18H701.248V294.833L703.598 291.722C707.069 287.129 712.503 284.806 719.752 284.806C730.86 284.806 737.762 291.962 737.762 303.47V333.816L727.79 333.818Z" fill="white"/>
<path d="M754.434 333.818V285.181H764.327V333.818H754.434ZM759.374 276.796C756.023 276.796 753.5 274.193 753.5 270.735C753.5 267.224 756.023 264.58 759.374 264.58C762.725 264.58 765.248 267.223 765.248 270.735C765.248 274.193 762.725 276.796 759.374 276.796Z" fill="white"/>
<path d="M802.697 334.178C787.811 334.178 777.824 324.298 777.824 309.572C777.824 295.073 787.944 284.886 802.43 284.793C809.853 284.793 815.581 286.902 819.452 291.055C823.938 295.875 825.874 303.338 825.206 313.231H787.758L788.252 314.9C790.308 321.896 796.169 326.235 803.565 326.235C808.892 326.235 813.805 324.246 817.463 320.641L822.656 326.182C817.73 331.415 810.841 334.178 802.697 334.178ZM802.511 292.644C794.968 292.644 789.521 297.09 787.932 304.54L787.598 306.115H816.649L816.502 304.673C815.701 297.143 810.481 292.644 802.511 292.644Z" fill="white"/>
<path d="M381.922 250.801L382.029 215.315L388.544 215.422L388.437 244.834L403.63 244.941L403.523 250.802L381.922 250.801Z" fill="white"/>
<path d="M416.194 251.055C410.56 251.055 406.621 247.57 406.621 242.577C406.621 237.477 410.466 234.393 416.888 234.353H424.538L424.645 233.819C424.645 230.508 422.549 228.759 418.584 228.759C416.074 228.759 413.497 229.654 410.921 231.402L410.587 231.629L408.01 227.023L408.29 226.983C412.135 224.7 414.845 223.605 419.825 223.605C426.741 223.605 430.746 227.09 430.799 233.178L430.852 250.921L424.59 250.814L424.697 248.277V248.023L424.523 248.197C422.603 250.054 419.719 251.055 416.194 251.055ZM417.743 239.053C414.045 239.053 412.536 240.001 412.536 242.324C412.536 244.58 414.405 245.995 417.396 245.995C421.308 245.995 424.365 243.979 424.645 241.202V239.159L417.743 239.053Z" fill="white"/>
<path d="M451.066 250.801L451.173 215.315L465.579 215.422C474.671 215.422 479.878 219.854 479.878 227.585C479.878 233.005 477.408 237.037 472.909 238.96L480.706 250.802H473.323L467.048 240.322C466.514 240.295 466.047 240.295 465.566 240.295H457.676L457.569 250.909L451.066 250.801ZM457.568 234.38L465.565 234.487C470.999 234.487 473.762 232.217 473.762 227.731C473.762 223.419 470.998 221.229 465.565 221.229H457.568V234.38Z" fill="white"/>
<path d="M498.125 251.003C489.861 251.003 484.32 245.516 484.32 237.345C484.32 229.294 489.941 223.634 497.978 223.594C502.103 223.594 505.281 224.769 507.444 227.092C509.967 229.802 511.035 233.981 510.635 239.508L510.608 239.855L490.835 239.762C491.73 243.567 494.733 245.85 498.578 245.85C501.382 245.85 503.958 244.782 505.854 242.846L506.121 242.566L509.512 246.331L509.285 246.438C506.536 249.427 502.691 251.003 498.125 251.003ZM498.019 228.693C494.187 228.693 491.344 231.069 490.596 234.901L505.002 235.021C504.761 231.03 502.117 228.693 498.019 228.693ZM493.813 220.536L499.567 212.512L506.162 215.396L499.5 220.536H493.813Z" fill="white"/>
<path d="M527.433 260.614C523.495 260.614 519.743 259.426 516.285 257.089L515.991 256.889L518.848 252.243L519.022 252.523C521.665 254.486 524.189 255.353 527.179 255.353C532.065 255.353 535.23 252.509 535.23 248.104V245.634L535.043 245.874C533.147 248.25 530.277 249.519 526.739 249.519C519.436 249.519 514.523 244.272 514.523 236.462C514.523 228.825 519.356 223.659 526.539 223.605C530.224 223.605 533.081 224.833 535.043 227.263L535.23 227.49V223.685L541.545 223.792L541.438 247.957C541.438 255.634 535.938 260.614 527.433 260.614ZM527.874 228.746C523.535 228.746 520.478 231.977 520.424 236.596C520.477 241.322 523.468 244.486 527.874 244.486C532.2 244.486 535.23 241.242 535.23 236.582C535.23 231.977 532.2 228.746 527.874 228.746Z" fill="white"/>
<path d="M548.755 250.801L548.862 223.685L555.177 223.792L555.07 250.801H548.755ZM551.972 220.188C549.916 220.188 548.367 218.599 548.367 216.49C548.367 214.354 549.916 212.738 551.972 212.738C554.028 212.738 555.577 214.353 555.577 216.49C555.564 218.599 554.015 220.188 551.972 220.188Z" fill="white"/>
<path d="M574.612 251.003C566.308 251.003 560.5 245.369 560.5 237.292C560.5 229.095 566.174 223.581 574.612 223.581C582.89 223.581 588.67 229.215 588.67 237.292C588.671 245.369 582.89 251.003 574.612 251.003ZM574.612 229.054C569.993 229.054 566.762 232.472 566.762 237.358C566.762 242.351 569.913 245.702 574.612 245.702C579.205 245.702 582.409 242.271 582.409 237.358C582.409 232.458 579.205 229.054 574.612 229.054Z" fill="white"/>
<path d="M594 250.802L594.107 223.686L600.462 223.793L600.355 227.785V228.132L600.555 227.852C602.491 225.035 605.628 223.593 609.847 223.593C616.095 223.593 619.967 227.612 619.967 234.06V250.802H613.612L613.719 235.649C613.719 231.791 611.436 229.494 607.618 229.494C603.559 229.547 600.782 232.218 600.368 236.476V250.908L594 250.802Z" fill="white"/>
<path d="M393.054 351.36C399.583 351.36 403.321 354.591 403.321 360.225C403.321 366.086 399.569 369.49 393.054 369.49H387.086V377.314H382.707V351.36H393.054ZM387.087 365.552H392.868C396.873 365.552 399.13 363.843 399.13 360.318C399.13 356.9 396.874 355.271 392.868 355.271H387.087V365.552Z" fill="white"/>
<path d="M416.072 380.025C414.844 383.136 412.628 384.698 409.664 384.698C407.888 384.698 406.473 384.177 405.098 383.029L406.914 379.731C407.835 380.399 408.583 380.692 409.477 380.692C410.772 380.692 411.813 379.984 412.481 378.502L413.149 377.02L404.992 357.595H409.398L415.299 372.535L420.786 357.595H425.045L416.072 380.025Z" fill="white"/>
<path d="M432.493 361.521C433.828 358.851 436.205 357.449 439.315 357.449V361.521C435.35 361.294 432.827 363.63 432.493 367.008V377.315H428.234V357.582H432.493V361.521Z" fill="white"/>
<path d="M460.196 369.076H445.283C445.951 372.12 448.287 374.002 451.398 374.002C453.547 374.002 455.51 373.188 456.965 371.706L459.221 374.123C457.298 376.232 454.468 377.461 451.064 377.461C444.976 377.461 440.984 373.416 440.984 367.488C440.984 361.52 445.096 357.475 450.957 357.435C457.899 357.434 460.716 361.96 460.196 369.076ZM456.484 365.965C456.337 362.774 454.228 360.852 450.997 360.852C447.886 360.852 445.697 362.815 445.216 365.965H456.484ZM448.26 354.764L452.185 349.277L456.564 351.133L452.038 354.764H448.26Z" fill="white"/>
<path d="M483.521 365.032V377.301H479.262V366.22C479.262 363.256 477.486 361.44 474.509 361.44C471.251 361.48 469.209 363.736 468.915 366.82V377.314H464.656V357.582H468.915V361.36C470.33 358.623 472.84 357.435 476.178 357.435C480.77 357.435 483.521 360.332 483.521 365.032Z" fill="white"/>
<path d="M506.579 369.076H491.666C492.334 372.12 494.67 374.002 497.781 374.002C499.93 374.002 501.893 373.188 503.348 371.706L505.604 374.123C503.681 376.232 500.851 377.461 497.447 377.461C491.359 377.461 487.367 373.416 487.367 367.488C487.367 361.52 491.479 357.475 497.34 357.435C504.283 357.434 507.1 361.96 506.579 369.076ZM502.868 365.965C502.721 362.774 500.612 360.852 497.381 360.852C494.27 360.852 492.081 362.815 491.6 365.965H502.868ZM494.644 354.764L498.569 349.277L502.948 351.133L498.422 354.764H494.644Z" fill="white"/>
<path d="M528.38 369.077H513.467C514.135 372.121 516.471 374.003 519.582 374.003C521.731 374.003 523.694 373.189 525.149 371.707L527.405 374.124C525.482 376.233 522.652 377.462 519.248 377.462C513.16 377.462 509.168 373.417 509.168 367.489C509.168 361.521 513.28 357.476 519.141 357.436C526.084 357.435 528.901 361.961 528.38 369.077ZM524.669 365.966C524.522 362.775 522.413 360.853 519.182 360.853C516.071 360.853 513.882 362.816 513.401 365.966H524.669Z" fill="white"/>
<path d="M545.617 359.398L544.055 362.549C542.306 361.468 540.129 360.8 538.38 360.8C536.711 360.8 535.483 361.361 535.483 362.763C535.483 366.394 545.977 364.432 545.938 371.588C545.938 375.633 542.346 377.449 538.367 377.449C535.47 377.449 532.4 376.488 530.438 374.699L531.959 371.655C533.668 373.177 536.406 374.098 538.555 374.098C540.371 374.098 541.785 373.47 541.785 371.989C541.785 367.944 531.398 370.213 531.438 363.084C531.438 359.079 534.922 357.37 538.701 357.37C541.197 357.395 543.842 358.143 545.617 359.398Z" fill="white"/>
<path d="M558.926 367.487V364.563H568.045V367.487H558.926Z" fill="white"/>
<path d="M606.684 377.314L606.644 357.915L598.447 374.604H595.59L587.393 357.915V377.314H583.281V351.36H588.474L597.045 368.609L605.576 351.36H610.729V377.314H606.684Z" fill="white"/>
<path d="M634.665 369.076H619.752C620.42 372.12 622.756 374.002 625.867 374.002C628.016 374.002 629.979 373.188 631.434 371.706L633.69 374.123C631.768 376.232 628.937 377.461 625.533 377.461C619.445 377.461 615.453 373.416 615.453 367.488C615.453 361.52 619.565 357.475 625.426 357.435C632.369 357.434 635.186 361.96 634.665 369.076ZM630.954 365.965C630.807 362.774 628.698 360.852 625.467 360.852C622.356 360.852 620.167 362.815 619.686 365.965H630.954ZM622.729 354.764L626.654 349.277L631.033 351.133L626.507 354.764H622.729Z" fill="white"/>
<path d="M657.909 377.315H653.651V373.937C652.236 376.233 649.872 377.502 646.721 377.502C641.047 377.502 637.27 373.39 637.27 367.382C637.27 361.454 641.088 357.409 646.656 357.409C649.847 357.409 652.222 358.704 653.664 361V349.799H657.924V377.315H657.909ZM653.651 367.528C653.651 363.71 651.168 361.039 647.603 361.039C644.038 361.039 641.555 363.749 641.515 367.528C641.555 371.28 643.998 373.936 647.603 373.936C651.168 373.937 653.651 371.267 653.651 367.528Z" fill="white"/>
<path d="M668.989 351.947C668.989 353.429 667.908 354.51 666.506 354.51C665.091 354.51 664.023 353.429 664.023 351.947C664.023 350.425 665.104 349.357 666.506 349.357C667.921 349.357 668.989 350.425 668.989 351.947ZM664.396 377.314V357.581H668.628V377.314H664.396Z" fill="white"/>
<path d="M686.094 376.046C684.532 376.967 682.903 377.488 681.234 377.488C678.27 377.488 675.707 375.779 675.707 371.747V361.507H672.93V358.316H675.707V352.909H679.939V358.316H685.76V361.507H679.939V370.959C679.939 373.002 680.713 373.629 682.048 373.629C682.943 373.629 683.864 373.335 685.012 372.775L686.094 376.046Z" fill="white"/>
<path d="M707.15 369.077H692.237C692.905 372.121 695.241 374.003 698.352 374.003C700.501 374.003 702.464 373.189 703.919 371.707L706.174 374.124C704.251 376.233 701.422 377.462 698.018 377.462C691.93 377.462 687.938 373.417 687.938 367.489C687.938 361.521 692.05 357.476 697.911 357.436C704.853 357.435 707.67 361.961 707.15 369.077ZM703.438 365.966C703.291 362.775 701.182 360.853 697.951 360.853C694.84 360.853 692.651 362.816 692.17 365.966H703.438Z" fill="white"/>
<path d="M715.853 361.521C717.188 358.851 719.565 357.449 722.675 357.449V361.521C718.71 361.294 716.186 363.63 715.853 367.008V377.315H711.594V357.582H715.853V361.521Z" fill="white"/>
<path d="M730.47 361.521C731.805 358.851 734.182 357.449 737.292 357.449V361.521C733.327 361.294 730.804 363.63 730.47 367.008V377.315H726.211V357.582H730.47V361.521Z" fill="white"/>
<path d="M751.86 374.898C750.458 376.647 748.188 377.488 745.331 377.488C741.072 377.488 738.402 374.858 738.402 371.373C738.402 367.782 741.112 365.472 745.852 365.445H751.82V364.858C751.82 362.375 750.231 360.893 747.107 360.893C745.211 360.893 743.249 361.561 741.286 362.896L739.537 359.932C742.274 358.303 744.29 357.449 748.028 357.449C753.115 357.449 755.958 360.039 755.998 364.378L756.038 377.315H751.846V374.898H751.86ZM751.82 370.372V368.556H746.48C743.703 368.556 742.408 369.304 742.408 371.186C742.408 372.962 743.85 374.11 746.226 374.11C749.27 374.124 751.606 372.535 751.82 370.372Z" fill="white"/>
<path d="M780.631 365.032V377.301H776.372V366.22C776.372 363.256 774.596 361.44 771.619 361.44C768.361 361.48 766.319 363.736 766.025 366.82V377.314H761.766V357.582H766.025V361.36C767.44 358.623 769.95 357.435 773.288 357.435C777.88 357.435 780.631 360.332 780.631 365.032Z" fill="white"/>
<path d="M803.689 369.076H788.776C789.444 372.12 791.78 374.002 794.891 374.002C797.04 374.002 799.003 373.188 800.458 371.706L802.714 374.123C800.791 376.232 797.961 377.461 794.557 377.461C788.469 377.461 784.477 373.416 784.477 367.488C784.477 361.52 788.589 357.475 794.45 357.435C801.393 357.434 804.21 361.96 803.689 369.076ZM799.978 365.965C799.831 362.774 797.722 360.852 794.491 360.852C791.38 360.852 789.191 362.815 788.71 365.965H799.978ZM791.754 354.764L795.679 349.277L800.058 351.133L795.532 354.764H791.754Z" fill="white"/>
<path d="M825.489 369.077H810.576C811.244 372.121 813.58 374.003 816.691 374.003C818.84 374.003 820.803 373.189 822.258 371.707L824.514 374.124C822.591 376.233 819.761 377.462 816.357 377.462C810.269 377.462 806.277 373.417 806.277 367.489C806.277 361.521 810.389 357.476 816.25 357.436C823.193 357.435 826.01 361.961 825.489 369.077ZM821.778 365.966C821.631 362.775 819.522 360.853 816.291 360.853C813.18 360.853 810.991 362.816 810.51 365.966H821.778Z" fill="white"/>
</g>
<defs>
<clipPath id="clip0_676_14099">
<rect width="900" height="600" fill="white"/>
</clipPath>
</defs>
</svg>
