<svg xmlns="http://www.w3.org/2000/svg" xmlns:xlink="http://www.w3.org/1999/xlink" id="Calque_2" data-name="Calque 2" viewBox="0 0 107.78 31.86"><defs><clipPath id="clippath"><path d="M19.17 7.3v5.72h4.37v-1.39h-2.75V7.3z" class="cls-1"/></clipPath><clipPath id="clippath-1"><path d="M23.1 8.14c0 .42.18.72.53.83L23.28 10l.89.35c.34-.55.75-1.48.75-2.21 0-.56-.34-.92-.91-.92s-.91.34-.91.92" class="cls-1"/></clipPath><clipPath id="clippath-2"><path d="M25.89 7.3v5.72h4.65v-1.4h-3.11v-.83h2.5V9.47h-2.5v-.76h3.11V7.3z" class="cls-1"/></clipPath><clipPath id="clippath-3"><path d="M35.38 7.3v3.12c0 .74-.39 1.2-1.11 1.2s-1.09-.45-1.09-1.19V7.3h-1.62v3.24c0 1.49.97 2.57 2.71 2.57S37 11.92 37 10.54V7.3h-1.61Z" class="cls-1"/></clipPath><clipPath id="clippath-4"><path d="M39.88 8.7h1.13c.39 0 .62.26.62.59s-.23.58-.62.58h-1.13zm-1.62-1.4v5.72h1.61v-2.05h.08c.78.51 1.76 2.14 3.1 2.14.39 0 .74-.1.97-.22l-.15-1.26c-.16.06-.4.09-.56.09-.47 0-.93-.4-1.42-.82.82-.21 1.39-.83 1.39-1.69 0-1.28-1.03-1.9-2.13-1.9h-2.9Z" class="cls-1"/></clipPath><clipPath id="clippath-5"><path d="M45.86 10.17c0-.81.56-1.43 1.36-1.43s1.36.62 1.36 1.43-.56 1.42-1.36 1.42-1.36-.63-1.36-1.42m-1.58 0c0 1.67 1.26 2.94 2.93 2.94s2.95-1.26 2.95-2.94-1.26-2.95-2.95-2.95-2.93 1.26-2.93 2.95" class="cls-1"/></clipPath><clipPath id="clippath-6"><path d="M52.79 8.7h1.07c.41 0 .72.29.72.74s-.31.72-.72.72h-1.07zm-1.62-1.4v5.72h1.61v-1.46h1.33c1.15 0 2.13-.78 2.13-2.11 0-1.46-.98-2.15-2.13-2.15z" class="cls-1"/></clipPath><clipPath id="clippath-7"><path d="M57.13 7.3v5.72h4.66v-1.4h-3.12v-.83h2.5V9.47h-2.5v-.76h3.12V7.3z" class="cls-1"/></clipPath><clipPath id="clippath-8"><path d="M64.57 8.89c0 .75.46 1.24 1.3 1.46l1.15.29c.64.16 1 .38 1 .78 0 .53-.53.88-1.36.88-.71 0-1.4-.28-1.78-.52l-.21.83c.36.21 1.15.5 1.98.5 1.35 0 2.29-.69 2.29-1.75 0-.81-.54-1.23-1.55-1.51l-1.13-.3c-.5-.13-.77-.33-.77-.71 0-.43.4-.79 1.32-.79.64 0 1.37.22 1.77.47l.26-.82c-.43-.24-1.21-.46-2-.46-1.55 0-2.25.77-2.25 1.67" class="cls-1"/></clipPath><clipPath id="clippath-9"><path d="M69.82 7.85c0 .28.15.5.45.55l-.39 1.13.51.2c.22-.38.62-1.33.62-1.89 0-.36-.22-.62-.61-.62s-.59.22-.59.62" class="cls-1"/></clipPath><clipPath id="clippath-10"><path d="M72.2 7.3v5.72h4.43v-.77h-3.6v-1.79h2.98v-.78h-2.98v-1.6h3.6V7.3z" class="cls-1"/></clipPath><clipPath id="clippath-11"><path d="M82.3 7.3v4.34L78.66 7.3h-.76v5.72h.87V8.7l3.64 4.32h.76V7.3z" class="cls-1"/></clipPath><clipPath id="clippath-12"><path d="M84.41 10.17c0 1.84 1.35 2.94 3.04 2.94.88 0 1.88-.34 2.41-.76V9.82H87.2v.77h1.79v1.3c-.37.23-.92.4-1.48.4-1.25 0-2.2-.78-2.2-2.12s.95-2.14 2.16-2.14c.72 0 1.28.24 1.75.65l.42-.67c-.57-.48-1.27-.79-2.19-.79-1.69 0-3.04 1.09-3.04 2.95" class="cls-1"/></clipPath><clipPath id="clippath-13"><path d="m93.33 8.18 1.16 2.92h-2.4zm-.51-.88-2.37 5.72h.89l.52-1.26h2.85l.51 1.26h.88L93.83 7.3z" class="cls-1"/></clipPath><clipPath id="clippath-14"><path d="M96.55 10.17c0 1.84 1.36 2.94 3.05 2.94.87 0 1.88-.34 2.41-.76V9.82h-2.66v.77h1.78v1.3c-.37.23-.92.4-1.48.4-1.24 0-2.2-.78-2.2-2.12s.95-2.14 2.16-2.14c.72 0 1.28.24 1.75.65l.42-.67c-.57-.48-1.27-.79-2.2-.79-1.69 0-3.05 1.09-3.05 2.95" class="cls-1"/></clipPath><clipPath id="clippath-15"><path d="M103.35 7.3h-.01v5.71l.01.01h4.43v-.77h-3.6v-1.79h2.98v-.78h-2.98v-1.6h3.6V7.3z" class="cls-1"/></clipPath><clipPath id="clippath-16"><path d="M11.78 14.95v5.72h4.37v-1.4H13.4v-4.32z" class="cls-1"/></clipPath><clipPath id="clippath-17"><path d="M15.71 15.78c0 .42.18.72.53.83l-.35 1.03.89.35c.34-.55.75-1.48.75-2.21 0-.56-.34-.92-.91-.92s-.91.34-.91.92" class="cls-1"/></clipPath><clipPath id="clippath-18"><path d="M19.75 17.82c0-.81.56-1.43 1.36-1.43s1.36.62 1.36 1.43-.55 1.42-1.36 1.42-1.36-.63-1.36-1.42m-1.59 0c0 1.67 1.26 2.94 2.94 2.94s2.95-1.26 2.95-2.94-1.26-2.95-2.95-2.95-2.94 1.26-2.94 2.95" class="cls-1"/></clipPath><clipPath id="clippath-19"><path d="M24.75 17.82c0 1.84 1.29 2.94 2.98 2.94.95 0 1.83-.44 2.35-.92l-.74-1.2c-.4.35-.94.64-1.57.64-.81 0-1.35-.52-1.35-1.45s.54-1.46 1.29-1.46c.62 0 .88.38.88.98l1.48-.3c-.03-1.34-.87-2.16-2.34-2.16-1.69 0-2.98 1.09-2.98 2.95" class="cls-1"/></clipPath><clipPath id="clippath-20"><path d="M30.72 17.82c0 1.84 1.29 2.94 2.98 2.94.95 0 1.83-.44 2.35-.92l-.74-1.2c-.4.35-.94.64-1.57.64-.81 0-1.35-.52-1.35-1.45s.54-1.46 1.29-1.46c.62 0 .87.38.88.98l1.48-.3c-.03-1.34-.87-2.16-2.34-2.16-1.69 0-2.98 1.09-2.98 2.95" class="cls-1"/></clipPath><clipPath id="clippath-21"><path d="M37 14.95v5.72h1.62v-5.72z" class="cls-1"/></clipPath><clipPath id="clippath-22"><path d="M39.51 14.95v1.62h1.64v4.1h1.61v-4.1h1.63v-1.62z" class="cls-1"/></clipPath><clipPath id="clippath-23"><path d="m47.34 16.54.72 1.98h-1.44zm-.95-1.59-2.15 5.72h1.63l.34-.97h2.23l.35.97h1.63l-2.12-5.72z" class="cls-1"/></clipPath><clipPath id="clippath-24"><path d="M55.07 14.95v3.16l-2.61-3.16h-1.4v5.72h1.62v-3.15l2.6 3.15h1.4v-5.72z" class="cls-1"/></clipPath><clipPath id="clippath-25"><path d="M58.01 14.95v5.72h1.61v-5.72z" class="cls-1"/></clipPath><clipPath id="clippath-26"><path d="M60.95 14.95v5.72h4.66v-1.4H62.5v-.84H65v-1.32h-2.5v-.75h3.11v-1.41z" class="cls-1"/></clipPath><clipPath id="clippath-27"><path d="m70.88 15.83 1.16 2.92h-2.4zm-.5-.88-2.37 5.72h.89l.52-1.26h2.85l.5 1.26h.88l-2.27-5.72h-1.01Z" class="cls-1"/></clipPath><clipPath id="clippath-28"><path d="M74.1 17.82c0 1.84 1.35 2.94 3.04 2.94.88 0 1.88-.34 2.41-.76v-2.53h-2.66v.76h1.78v1.3c-.37.24-.92.4-1.48.4-1.25 0-2.2-.78-2.2-2.12s.95-2.14 2.16-2.14c.72 0 1.28.24 1.75.65l.42-.67c-.57-.48-1.27-.79-2.2-.79-1.69 0-3.04 1.09-3.04 2.95" class="cls-1"/></clipPath><clipPath id="clippath-29"><path d="M80.9 14.95v5.72h.88v-5.71l-.01-.01z" class="cls-1"/></clipPath><clipPath id="clippath-30"><path d="M82.71 14.95v.88h2.05v4.84h.87v-4.84h1.95v-.88z" class="cls-1"/></clipPath><clipPath id="clippath-31"><path d="M89.11 26.49H31.7l56.28 5.35a4.21 4.21 0 0 0 4.58-3.78l.4-4.21c-.6 1.54-2.1 2.64-3.85 2.64" class="cls-1"/></clipPath><radialGradient id="Dégradé_sans_nom_31" cx="393.56" cy="611.18" r="1" data-name="Dégradé sans nom 31" fx="393.56" fy="611.18" gradientTransform="matrix(-113.08 0 0 113.08 44610.18 -69095.35)" gradientUnits="userSpaceOnUse"><stop offset="0" stop-color="#c90c0f"/><stop offset=".25" stop-color="#c90c0f"/><stop offset=".59" stop-color="#27348b"/><stop offset="1" stop-color="#27348b"/></radialGradient><radialGradient xlink:href="#Dégradé_sans_nom_31" id="Dégradé_sans_nom_31-2" cx="393.56" r="1" data-name="Dégradé sans nom 31" fx="393.56" gradientTransform="matrix(-113.08 0 0 113.08 44610.49 -69095.31)"/><radialGradient xlink:href="#Dégradé_sans_nom_31" id="Dégradé_sans_nom_31-3" r="1" data-name="Dégradé sans nom 31" gradientTransform="matrix(-113.08 0 0 113.08 44610.41 -69095.78)"/><radialGradient xlink:href="#Dégradé_sans_nom_31" id="Dégradé_sans_nom_31-4" cx="393.56" r="1" data-name="Dégradé sans nom 31" fx="393.56" gradientTransform="matrix(-113.08 0 0 113.08 44610.68 -69096.12)"/><radialGradient xlink:href="#Dégradé_sans_nom_31" id="Dégradé_sans_nom_31-5" cx="393.56" r="1" data-name="Dégradé sans nom 31" fx="393.56" gradientTransform="matrix(-113.08 0 0 113.08 44610.67 -69096.71)"/><radialGradient xlink:href="#Dégradé_sans_nom_31" id="Dégradé_sans_nom_31-6" cx="393.56" r="1" data-name="Dégradé sans nom 31" fx="393.56" gradientTransform="matrix(-113.08 0 0 113.08 44610.17 -69097.54)"/><radialGradient xlink:href="#Dégradé_sans_nom_31" id="Dégradé_sans_nom_31-7" cx="393.56" r="1" data-name="Dégradé sans nom 31" fx="393.56" gradientTransform="matrix(-113.08 0 0 113.08 44610.89 -69097.63)"/><radialGradient xlink:href="#Dégradé_sans_nom_31" id="Dégradé_sans_nom_31-8" cx="393.56" r="1" data-name="Dégradé sans nom 31" fx="393.56" gradientTransform="matrix(-113.08 0 0 113.08 44610.22 -69098.54)"/><radialGradient xlink:href="#Dégradé_sans_nom_31" id="Dégradé_sans_nom_31-9" cx="393.56" r="1" data-name="Dégradé sans nom 31" fx="393.56" gradientTransform="matrix(-113.08 0 0 113.08 44611.19 -69098.53)"/><radialGradient xlink:href="#Dégradé_sans_nom_31" id="Dégradé_sans_nom_31-10" cx="393.56" r="1" data-name="Dégradé sans nom 31" fx="393.56" gradientTransform="matrix(-113.08 0 0 113.08 44610.56 -69099.16)"/><radialGradient xlink:href="#Dégradé_sans_nom_31" id="Dégradé_sans_nom_31-11" data-name="Dégradé sans nom 31" gradientTransform="matrix(-113.08 0 0 113.08 44610.97 -69099.32)"/><radialGradient xlink:href="#Dégradé_sans_nom_31" id="Dégradé_sans_nom_31-12" cx="393.56" r="1" data-name="Dégradé sans nom 31" fx="393.56" gradientTransform="matrix(-113.08 0 0 113.08 44610.79 -69099.95)"/><radialGradient xlink:href="#Dégradé_sans_nom_31" id="Dégradé_sans_nom_31-13" cx="393.56" r="1" data-name="Dégradé sans nom 31" fx="393.56" gradientTransform="matrix(-113.08 0 0 113.08 44611.04 -69100.35)"/><radialGradient xlink:href="#Dégradé_sans_nom_31" id="Dégradé_sans_nom_31-14" cx="393.56" cy="611.18" r="1" data-name="Dégradé sans nom 31" fx="393.56" fy="611.18" gradientTransform="matrix(-113.08 0 0 113.08 44610.42 -69101.27)"/><radialGradient xlink:href="#Dégradé_sans_nom_31" id="Dégradé_sans_nom_31-15" cx="393.56" r="1" data-name="Dégradé sans nom 31" fx="393.56" gradientTransform="matrix(-113.08 0 0 113.08 44611.02 -69101.39)"/><radialGradient xlink:href="#Dégradé_sans_nom_31" id="Dégradé_sans_nom_31-16" r="1" data-name="Dégradé sans nom 31" gradientTransform="matrix(-113.08 0 0 113.08 44611.04 -69101.91)"/><radialGradient xlink:href="#Dégradé_sans_nom_31" id="Dégradé_sans_nom_31-17" cx="393.56" r="1" data-name="Dégradé sans nom 31" fx="393.56" gradientTransform="matrix(-113.08 0 0 113.08 44611.56 -69094.22)"/><radialGradient xlink:href="#Dégradé_sans_nom_31" id="Dégradé_sans_nom_31-18" r="1" data-name="Dégradé sans nom 31" gradientTransform="matrix(-113.08 0 0 113.08 44611.35 -69094.51)"/><radialGradient xlink:href="#Dégradé_sans_nom_31" id="Dégradé_sans_nom_31-19" cx="393.56" cy="611.18" r="1" data-name="Dégradé sans nom 31" fx="393.56" fy="611.18" gradientTransform="matrix(-113.08 0 0 113.08 44611 -69095.18)"/><radialGradient xlink:href="#Dégradé_sans_nom_31" id="Dégradé_sans_nom_31-20" cx="393.56" r="1" data-name="Dégradé sans nom 31" fx="393.56" gradientTransform="matrix(-113.08 0 0 113.08 44610.75 -69095.87)"/><radialGradient xlink:href="#Dégradé_sans_nom_31" id="Dégradé_sans_nom_31-21" cx="393.56" r="1" data-name="Dégradé sans nom 31" fx="393.56" gradientTransform="matrix(-113.08 0 0 113.08 44611.49 -69095.9)"/><radialGradient xlink:href="#Dégradé_sans_nom_31" id="Dégradé_sans_nom_31-22" cx="393.56" r="1" data-name="Dégradé sans nom 31" fx="393.56" gradientTransform="matrix(-113.08 0 0 113.08 44611.12 -69096.51)"/><radialGradient xlink:href="#Dégradé_sans_nom_31" id="Dégradé_sans_nom_31-23" cx="393.56" cy="611.18" r="1" data-name="Dégradé sans nom 31" fx="393.56" fy="611.18" gradientTransform="matrix(-113.08 0 0 113.08 44611.8 -69096.42)"/><radialGradient xlink:href="#Dégradé_sans_nom_31" id="Dégradé_sans_nom_31-24" r="1" data-name="Dégradé sans nom 31" gradientTransform="matrix(-113.08 0 0 113.08 44611.2 -69097.26)"/><radialGradient xlink:href="#Dégradé_sans_nom_31" id="Dégradé_sans_nom_31-25" cx="393.56" r="1" data-name="Dégradé sans nom 31" fx="393.56" gradientTransform="matrix(-113.08 0 0 113.08 44611.32 -69097.74)"/><radialGradient xlink:href="#Dégradé_sans_nom_31" id="Dégradé_sans_nom_31-26" cx="393.56" r="1" data-name="Dégradé sans nom 31" fx="393.56" gradientTransform="matrix(-113.08 0 0 113.08 44610.54 -69098.66)"/><radialGradient xlink:href="#Dégradé_sans_nom_31" id="Dégradé_sans_nom_31-27" cx="393.56" r="1" data-name="Dégradé sans nom 31" fx="393.56" gradientTransform="matrix(-113.08 0 0 113.08 44611.62 -69098.34)"/><radialGradient xlink:href="#Dégradé_sans_nom_31" id="Dégradé_sans_nom_31-28" cx="393.56" r="1" data-name="Dégradé sans nom 31" fx="393.56" gradientTransform="matrix(-113.08 0 0 113.08 44611.19 -69099.26)"/><radialGradient xlink:href="#Dégradé_sans_nom_31" id="Dégradé_sans_nom_31-29" r="1" data-name="Dégradé sans nom 31" gradientTransform="matrix(-113.08 0 0 113.08 44610.98 -69099.9)"/><radialGradient xlink:href="#Dégradé_sans_nom_31" id="Dégradé_sans_nom_31-30" r="1" data-name="Dégradé sans nom 31" gradientTransform="matrix(-113.08 0 0 113.08 44613.27 -69098.8)"/><radialGradient xlink:href="#Dégradé_sans_nom_31" id="Dégradé_sans_nom_31-31" cx="393.56" r="1" data-name="Dégradé sans nom 31" fx="393.56" gradientTransform="matrix(-113.08 0 0 113.08 44611.98 -69099.96)"/><linearGradient id="Dégradé_sans_nom_32" x1="378.27" x2="379.27" y1="612.16" y2="612.16" data-name="Dégradé sans nom 32" gradientTransform="matrix(61.26 0 0 -61.26 -23141.87 37530.06)" gradientUnits="userSpaceOnUse"><stop offset="0" stop-color="#27348b"/><stop offset=".26" stop-color="#27348b"/><stop offset=".29" stop-color="#2e3489"/><stop offset=".75" stop-color="#c90c0f"/><stop offset="1" stop-color="#c90c0f"/></linearGradient><style>.cls-1{fill:none}</style></defs><g id="Calque_1-2" data-name="Calque 1"><g style="clip-path:url(#clippath)"><path d="M18.95 7.13h4.82v6.06h-4.82z" style="fill:url(#Dégradé_sans_nom_31)" transform="rotate(-4.72 21.336 10.115)"/></g><g style="clip-path:url(#clippath-1)"><path d="M22.98 7.15h2.07v3.27h-2.07z" style="fill:url(#Dégradé_sans_nom_31-2)" transform="rotate(-4.72 23.944 8.765)"/></g><g style="clip-path:url(#clippath-2)"><path d="M25.66 7.12h5.11v6.08h-5.11z" style="fill:url(#Dégradé_sans_nom_31-3)" transform="rotate(-4.72 28.14 10.153)"/></g><g style="clip-path:url(#clippath-3)"><path d="M31.33 7.09h5.89v6.23h-5.89z" style="fill:url(#Dégradé_sans_nom_31-4)" transform="rotate(-4.72 34.216 10.16)"/></g><g style="clip-path:url(#clippath-4)"><path d="M38.03 7.08h6.23v6.26h-6.23z" style="fill:url(#Dégradé_sans_nom_31-5)" transform="rotate(-4.72 41.142 10.202)"/></g><g style="clip-path:url(#clippath-5)"><path d="M44.04 6.99h6.35v6.35h-6.35z" style="fill:url(#Dégradé_sans_nom_31-6)" transform="rotate(-4.72 47.218 10.21)"/></g><g style="clip-path:url(#clippath-6)"><path d="M50.95 7.1h5.53v6.12h-5.53z" style="fill:url(#Dégradé_sans_nom_31-7)" transform="rotate(-4.72 53.663 10.11)"/></g><g style="clip-path:url(#clippath-7)"><path d="M56.9 7.12h5.11v6.08H56.9z" style="fill:url(#Dégradé_sans_nom_31-8)" transform="rotate(-4.72 59.375 10.103)"/></g><g style="clip-path:url(#clippath-8)"><path d="M64.33 7.06h4.83v6.22h-4.83z" style="fill:url(#Dégradé_sans_nom_31-9)" transform="rotate(-4.72 66.664 10.16)"/></g><g style="clip-path:url(#clippath-9)"><path d="M69.72 7.19h1.4v2.6h-1.4z" style="fill:url(#Dégradé_sans_nom_31-10)" transform="rotate(-4.72 70.379 8.49)"/></g><g style="clip-path:url(#clippath-10)"><path d="M71.97 7.13h4.89v6.06h-4.89z" style="fill:url(#Dégradé_sans_nom_31-11)" transform="rotate(-4.72 74.322 10.112)"/></g><g style="clip-path:url(#clippath-11)"><path d="M77.67 7.1h5.73v6.13h-5.73z" style="fill:url(#Dégradé_sans_nom_31-12)" transform="rotate(-4.72 80.52 10.124)"/></g><g style="clip-path:url(#clippath-12)"><path d="M84.18 7.01h5.92v6.32h-5.92z" style="fill:url(#Dégradé_sans_nom_31-13)" transform="rotate(-4.72 87.08 10.151)"/></g><g style="clip-path:url(#clippath-13)"><path d="M90.23 7.08h6.1v6.16h-6.1z" style="fill:url(#Dégradé_sans_nom_31-14)" transform="rotate(-4.72 93.157 10.159)"/></g><g style="clip-path:url(#clippath-14)"><path d="M96.32 7.01h5.92v6.32h-5.92z" style="fill:url(#Dégradé_sans_nom_31-15)" transform="rotate(-4.72 99.233 10.166)"/></g><g style="clip-path:url(#clippath-15)"><path d="M103.12 7.13h4.89v6.06h-4.89z" style="fill:url(#Dégradé_sans_nom_31-16)" transform="rotate(-4.72 105.43 10.178)"/></g><g style="clip-path:url(#clippath-16)"><path d="M11.55 14.78h4.82v6.06h-4.82z" style="fill:url(#Dégradé_sans_nom_31-17)" transform="rotate(-4.72 13.97 17.833)"/></g><g style="clip-path:url(#clippath-17)"><path d="M15.58 14.8h2.07v3.27h-2.07z" style="fill:url(#Dégradé_sans_nom_31-18)" transform="rotate(-4.72 16.583 16.36)"/></g><g style="clip-path:url(#clippath-18)"><path d="M17.93 14.63h6.35v6.35h-6.35z" style="fill:url(#Dégradé_sans_nom_31-19)" transform="rotate(-4.72 21.143 17.764)"/></g><g style="clip-path:url(#clippath-19)"><path d="M24.52 14.66h5.79v6.3h-5.79z" style="fill:url(#Dégradé_sans_nom_31-20)" transform="rotate(-4.72 27.34 17.776)"/></g><g style="clip-path:url(#clippath-20)"><path d="M30.49 14.66h5.79v6.3h-5.79z" style="fill:url(#Dégradé_sans_nom_31-21)" transform="rotate(-4.72 33.416 17.783)"/></g><g style="clip-path:url(#clippath-21)"><path d="M36.77 14.9h2.08v5.83h-2.08z" style="fill:url(#Dégradé_sans_nom_31-22)" transform="rotate(-4.72 37.789 17.842)"/></g><g style="clip-path:url(#clippath-22)"><path d="M39.28 14.76h5.33v6.1h-5.33z" style="fill:url(#Dégradé_sans_nom_31-23)" transform="rotate(-4.72 41.924 17.77)"/></g><g style="clip-path:url(#clippath-23)"><path d="M44.02 14.71h6.62v6.21h-6.62z" style="fill:url(#Dégradé_sans_nom_31-24)" transform="rotate(-4.72 47.272 17.747)"/></g><g style="clip-path:url(#clippath-24)"><path d="M50.84 14.73h6.07v6.16h-6.07z" style="fill:url(#Dégradé_sans_nom_31-25)" transform="rotate(-4.72 53.833 17.774)"/></g><g style="clip-path:url(#clippath-25)"><path d="M57.78 14.89h2.08v5.83h-2.08z" style="fill:url(#Dégradé_sans_nom_31-26)" transform="rotate(-4.72 58.812 17.858)"/></g><g style="clip-path:url(#clippath-26)"><path d="M60.72 14.77h5.11v6.08h-5.11z" style="fill:url(#Dégradé_sans_nom_31-27)" transform="rotate(-4.72 63.19 17.795)"/></g><g style="clip-path:url(#clippath-27)"><path d="M67.78 14.73h6.1v6.17h-6.1z" style="fill:url(#Dégradé_sans_nom_31-28)" transform="rotate(-4.72 70.727 17.741)"/></g><g style="clip-path:url(#clippath-28)"><path d="M73.87 14.65h5.92v6.32h-5.92z" style="fill:url(#Dégradé_sans_nom_31-29)" transform="rotate(-4.72 76.803 17.748)"/></g><g style="clip-path:url(#clippath-29)"><path d="M80.67 14.93h1.34v5.77h-1.34z" style="fill:url(#Dégradé_sans_nom_31-30)" transform="rotate(-4.72 81.296 17.812)"/></g><g style="clip-path:url(#clippath-30)"><path d="M82.48 14.76h5.33v6.1h-5.33z" style="fill:url(#Dégradé_sans_nom_31-31)" transform="rotate(-4.72 85.062 17.846)"/></g><path d="M3.21 22.35V6.7c0-2.27 1.86-4.13 4.13-4.13h25.49L6.07.02A4.21 4.21 0 0 0 1.49 3.8L.02 19.25c-.21 2.19 1.32 4.15 3.45 4.53-.17-.45-.26-.93-.26-1.43" style="fill:#27348b"/><g style="clip-path:url(#clippath-31)"><path d="M31.7 23.85h61.26v8.21H31.7z" style="fill:url(#Dégradé_sans_nom_32)"/></g></g></svg>