<svg xmlns="http://www.w3.org/2000/svg" id="Calque_2" data-name="Calque 2" viewBox="0 0 85.04 40.02"><defs><style>.cls-1{fill:#2f59a2}.cls-4{fill:#d0661c}.cls-5{fill:#bf086e}.cls-6{fill:#37a1df}</style></defs><g id="Calque_1-2" data-name="Calque 1"><path d="M0 0v39.83c36.82 1.61 85.04-7.4 85.04-7.4V0zm83.59 31.06S35.3 37.57 1.97 35.24V1.77h81.62z" class="cls-5"/><path d="m37.99 13.2.01-.07v-.09l-.05-.33-.17-.2-.05-.08-.14-.41-.02-.08-.21-.14-.23.1-.17-.01-.05-.08-.16-.23-.09-.03-.07-.05-.1-.34-.15-.1-.34.08-.04-.07-.12-.14-.16-.05v-.11l.03-.2-.08-.06-.37-.32-.05-.08-.56-.31-.12.09-.34.2-.08.05-.23-.09-.07-.04.04-.29.24-.3-.01-.29.11-.15-.43-.03-.01-.19.02-.07h-.42l-.09-.03-.22-.12-.11-.26.01-.3.02-.09-.12-.15-.29.25-.76.06-.28.23-.27.01-.08.06-.05-.07-.12-.14-.33-.12-.13-.35.42-.6.07-.17.08-.16-.11-.45-.06-.07-.5.01-.17-.32v-.36l-1.14-.1-.28.27-.36.07-.29.2.1.33-.07.01-.06-.04-.13.24.04.17-.11.36-.12.09-.1-.03-.35-.03.01.28-.14.1-.02-.45-.28-.05-.05.08-.39.53-.02.18-.36.32-.08.18-.05.19.48.32v.09l-.36.1-.07.07-.08-.03-.26-.29-.26.1-.45-.2-.11-.17.04-.59-.07-.07-.27-.21-.22.15-.09-.01-.2.02-.42.53-.29.08-.23.17-.09-.05-.18-.21.18-.04.13-.37-.04-.38-.24-.3-.44-.1-.15.11-.28-.04-.22-.12-.21.15-.03-.09-.06.05-.27.25.01.27-.48.09-.47-.11-.19.05-.17-.09-.07-.05-.23.21-.01.09-.13.26-.26.1-.16.35.04.27.27.27-.02.38-.09.02-.17.04-.09.04-.19.23-.35.14-.47.01-.56-.12-.06.06-.02.03-.49-.11-.28-.26-.55-.25-.3.03-.09-.01-.15.21v.27l.1.15-.28.22-.03.09.19.43-.02.1.04.09.29.34-.16.33-.18.03-.03.08-.04.2.08.17-.08.18.09.18-.05.28.29.25-.14.12-.01.19-.03.08-.24-.11-.35.13-.18-.07-.08-.03-.1-.17-.36-.13-.29-.04-.16.09-.09.02-.24.13-.05.08-.26.13-.15-.08-.31.23-.03.69-.21.2h-.1l-.38-.07-.31.34h-.5l-.33.21-.28-.06-.21.21-.06.08-.12.13-.28-.03-.47.29-.09.03-.16-.1-.11-.27-.37-.42-.72-.24-.05-.09-.36.13-.27-.03-.09-.26-.09-.04-.36 1.39-.24.3.08.14.05.09.1-.02.08.28-.28.41-.02.08.3.49.85.9.05.08-.09-.02-.26-.08.03.38-.11.25.06.37.15.24.06.07-.1.16-.45-.07.07.16v.09l-.08.07-.48.47-.18-.05-.06.07.01.17-.08.01-.09-.03-.38.26-.28.01.08.05.28.23.2.03-.02.18-.12.15-.27.02-.09-.03-.06.08-.18.21-.1.38.06.27-.2.34-.12.26.23.26.09-.04.57.1.15.35.02.1.09.1.06.01.03.36.01.09.34.3-.02.08.15-.08.14-.24.17.01.09.03.09.01.22.04.01-.1.31-.2.05-.27.17-.09.05-.19.26.34-.03.09.13.44-.11.26.05.18.05.06.08.02.18-.05.41.24.06.07.19.2.05.08.33-.08.08-.01.01-.1.15-.11.06-.04.08-.2v-.11l.01-.27.3-.36.07-.05.09-.06.14-.13-.22-.28.25-.14.49.01.08-.06.46-.12.11-.26-.08-.48-.29-.48.03-.07.24-.21.04.07.03.22.32.19.02.17.02.09-.04.07.04.08.02.28-.12.24.12.15.09.05.32.17.15-.1.06-.07.42.35.09.05.24-.02.08-.01.6-.17.09-.01h.18l.04.54-.03.1.02.29.13.14-.02.1.51-.12.38.05.46.48.19-.02.15.11.08.05.08.05.27.05.09-.17.47.03.11.15-.01.19.26.11.28-.01.23-.18.18-.01.18.08.56.8.23.18.56-.53.07-.06.76-.53.06-.06.6-.38.06-.07.35-.15.09-.05.73-.28.48-.08h.1l.1.01.2.21 1.31.27.18-.1.48-.74.49-.6.06-.08L27 22.38l.67-.59.21-.11.05-.02.48.01.74-.28-.01-.29V21l1.42-.7.58-.66.05-.08.55-.6 1.03-.78.07-.06.1-.04 1.15-.62.09-.02.63-.29.67-.16.1-.01 1.19.05.15-.4-.05-.08-.47-.47-.18-.01.01-.01.08-.04.19-.01.24.15.47-.09.54.06.02-.08-.03-.2.41-.42.46-.89.01-.27z" style="fill:#ffed00"/><path d="m19.08 26.52.17.12.51-.47.08-.07.75-.53.07-.07.58-.36.05-.06.03-.02.34-.15.09-.05.75-.29.5-.08h.11l.1.01.05.03.18.19 1.26.25.13-.07.48-.72.55-.68 1.08-1.18.69-.59.26-.14h.51l.67-.25v-.33l.05-.08 1.4-.69.57-.64.06-.09.56-.61 1.03-.78.07-.06h.03l.09-.05 1.17-.62.08-.02.64-.29.68-.16h.11l1.13.03.11-.3-.02-.03-.44-.44h-.15l-.06-.16h.01l.03-.03.09-.04h.03l.19-.02h.05l.21.14.44-.08h.03l.46.05-.02-.18.02-.07.4-.41.44-.85v-.23l-.61-1.05v-.2l-.05-.3-.16-.19-.06-.1-.15-.47-.14-.09-.18.08H37l-.07-.04-.19-.28-.06-.02h-.03l-.07-.06-.04-.05-.09-.32-.09-.06-.3.08-.09-.04-.05-.07-.09-.11-.14-.04-.06-.08v-.12l.02-.15-.04-.03-.39-.34-.04-.06-.49-.27-.09.06-.42.25h-.07l-.23-.08-.07-.04-.05-.09.04-.3.02-.04.23-.27V9.1l.02-.02-.28-.02-.08-.08V8.8h-.35l-.11-.04-.22-.12-.04-.04-.11-.26v-.4l-.03-.05-.22.19-.05.02-.74.06-.25.21-.05.02h-.24l-.05.05-.13-.02-.05-.07-.11-.12-.31-.12-.05-.05-.12-.35v-.08l.43-.59.06-.17.07-.13-.1-.4-.02-.03h-.45l-.08-.03-.17-.32v-.04l-.01-.28-1.02-.09-.24.24-.04.02-.34.07-.23.15.08.26-.07.11h-.11l-.08.13.04.14v.05l-.11.36-.03.05-.12.09h-.07l-.09-.01-.24-.03v.18l-.03.08-.15.1-.13-.07v-.38l-.17-.03-.02.03-.37.52-.02.15-.03.05-.34.31-.07.16-.03.12.42.29.04.07v.09l-.06.08-.33.09-.04.05-.1.02-.09-.04-.03-.02-.22-.24-.21.08h-.07l-.45-.2-.04-.03-.11-.17v-.05l.02-.55-.03-.04-.22-.17-.17.11h-.14l-.15.02-.4.51-.05.03-.27.07-.22.16h-.09l-.09-.04-.02-.02-.19-.21.05-.14.14-.03.1-.31-.03-.34-.2-.25-.38-.08-.12.09-.06.02-.27-.04h-.03l-.18-.11-.17.12-.09-.03-.23.21v.23l-.06.09-.48.09h-.04l-.45-.11-.16.04h-.06l-.19-.11-.16.14v.06l-.02.03-.12.26-.05.04-.23.09-.14.29.03.22.25.25.03.07-.02.37-.06.08-.09.02-.17.04-.06.03-.17.22-.04.03-.35.14h-.03l-.47.02h-.02l-.51-.12-.02.02-.02.03-.09.04-.48-.11-.04-.02-.28-.25-.51-.23-.28.02h-.07l-.1.15v.22l.09.13-.02.11-.26.21v.03l.17.4v.06l-.01.07.02.05.29.33v.09l-.15.33-.07.05-.13.02v.03l-.04.17.06.15v.07l-.06.14.07.15v.05l-.03.22.25.22v.13l-.11.1v.17l-.04.09-.12.05-.22-.1-.31.11h-.06l-.17-.06-.09-.04-.04-.03-.08-.14-.32-.12-.25-.03-.15.08-.08.02-.22.11-.04.06-.04.04-.26.12h-.08l-.1-.05-.23.17-.02.65-.03.06-.21.2-.06.02h-.12l-.34-.07-.28.31-.06.03h-.47l-.31.2h-.07l-.23-.04-.17.17-.06.07-.13.14-.08.03-.24-.03-.45.28h-.02l-.09.04h-.07l-.16-.11-.03-.04-.11-.26-.35-.39-.7-.23-.05-.04v-.03l-.31.1h-.04l-.27-.02-.07-.06-.05-.15-.32 1.23-.02.03-.21.25.08.12h.04l.09.06.07.27v.07l-.28.4v.04l.26.44.86.91.05.07-.08.13-.1-.02-.14-.05.02.26v.04l-.11.22.05.33.14.22.06.07v.1l-.09.16-.09.04-.3-.05v.02l.01.03v.09l-.03.06-.07.07-.48.47-.08.02-.12-.04v.13l-.06.09H6.2l-.04-.02-.35.23h-.04l-.04.02.15.13.17.02.07.1-.03.19-.02.04-.11.15-.07.03h-.33l-.03.02-.17.2-.09.34.06.25v.06l-.21.33-.1.2.16.17h.03l.05-.02.57.1.06.05.15.36.02.08.05.06h.03l.07.09.02.36v.05l.32.28h.01l.13-.22.08-.04.19.02.08.02.22.03.04-.07.28-.18.04-.24.05-.06.14-.07.04-.15.15-.03.26.34v.09l-.01.06.13.42v.06l-.1.23.04.13.02.03h.03l.16-.03h.07l.41.24.02.02.06.08.19.21.02.03.29-.06v-.04l.04-.06.16-.12.04-.02.06-.16v-.37l.03-.05.3-.36.02-.02.15-.11.08-.07-.17-.22.03-.13.25-.14h.49l.06-.04h.03l.42-.13.08-.2-.08-.43-.28-.47v-.07l.02-.07.03-.04.25-.21.13.03.04.07v.03l.03.18.28.16.04.06.04.26v.05l-.03.04.02.04v.03l.03.28v.05l-.11.19.08.09.07.04.28.15.09-.06.05-.07h.12l.42.33.06.03h.21l.08-.02.6-.18h.1l.19-.01.09.08.04.55v.03l-.02.09v.24l.13.13v.04l.4-.09h.03l.38.05.05.03.43.45.14-.02.06.02.15.11.09.05.06.04.19.03.06-.12.08-.05.47.04.06.03.11.15.02.06v.13l.18.08h.24l.2-.17.05-.02h.23l.17.07.04.03.55.79Zm.12.31-.24-.17-.02-.02-.54-.79-.13-.06h-.14l-.2.17-.05.02h-.33l-.26-.11-.05-.09v-.15l-.06-.09-.37-.03-.06.12-.09.05-.27-.05h-.03l-.07-.06-.09-.05-.12-.09-.15.02-.07-.03-.44-.46-.34-.04-.49.12-.1-.11v-.05l-.09-.11-.02-.05v-.29l-.01-.02.02-.09-.03-.45h-.17l-.6.18h-.09l-.24.03h-.05l-.1-.07-.36-.29-.02.02-.15.1h-.09l-.41-.22-.02-.02-.12-.15v-.1l.1-.21-.02-.24-.03-.06v-.08l.03-.05-.03-.19-.29-.17-.04-.07-.02-.16-.13.11.27.46v.03l.1.47v.05l-.12.26-.06.05-.44.12-.07.05-.05.02h-.46l-.14.07.15.21v.12l-.16.13-.15.11-.27.33v.24l-.01.11v.03l-.08.2-.04.04-.06.03-.12.09v.06l-.08.07h-.08l-.33.09-.09-.04-.05-.07-.18-.19-.06-.07-.37-.21-.15.04h-.05l-.07-.03-.04-.03-.05-.06-.02-.03-.05-.17v-.06l.1-.23-.13-.42v-.06l.02-.04-.12-.16v.02l-.05.06-.13.07-.04.23-.04.06-.28.18v.06l-.11.07-.32-.05-.08-.02h-.11l-.11.18-.03.03-.15.09-.13-.09v-.04l-.29-.27-.03-.05v-.09l-.03-.29-.05-.03-.09-.1-.02-.04-.02-.09-.13-.3-.5-.09-.06.03-.1-.02-.24-.26v-.1l.11-.27.18-.31-.05-.24v-.04l.1-.39.02-.04.25-.28.09-.03.07.02h.22l.07-.11v-.08l-.1-.01-.04-.02-.28-.23-.07-.05.04-.16h.25l.36-.26h.08l.05.01v-.08l.02-.07.06-.06.08-.02.13.04.5-.48v-.04l-.06-.15.1-.12.39.07.04-.06-.03-.04-.15-.24v-.03l-.07-.37v-.05l.11-.23-.02-.36.11-.09.07.02-.73-.78-.3-.48v-.07l.02-.09v-.02l.26-.38-.04-.16h-.02l-.09-.04-.05-.09-.08-.13v-.1l.24-.28.35-1.37.12-.06.09.04.05.05.07.21.2.02.34-.12.1.04.03.06.69.23.04.02.37.42.02.02.1.25.1.06h.04l.46-.3h.06l.23.02.09-.1.06-.08.21-.21.08-.02.24.05.3-.19h.05l.46-.01.28-.32.08-.03.38.07h.06l.16-.15.02-.66.04-.07.31-.22h.09l.11.05.2-.09.04-.06.04-.03.26-.13.08-.02.15-.08H14l.3.03.36.14.04.04.09.14.06.03.14.05.32-.11h.06l.15.07v-.16l.04-.06.06-.06-.21-.18-.03-.08.04-.25-.08-.16v-.07l.06-.14-.06-.14v-.05l.03-.21.03-.09.07-.06.14-.02.12-.24-.26-.29v-.02l-.05-.09v-.05l.01-.07-.19-.41v-.07l.04-.09.02-.03.21-.17-.06-.08v-.05l-.01-.27.02-.05.15-.21.08-.04h.09l.29-.01h.04l.55.26h.02l.27.26.41.09.06-.06.08-.02.55.12h.45l.31-.13.17-.22.03-.03.1-.04.2-.04.02-.27-.24-.25-.02-.05-.04-.27v-.05l.17-.35.05-.04.23-.09.1-.22v-.07l.04-.05.24-.21h.11l.05.04.14.07.15-.04h.04l.45.11.39-.07v-.2l.02-.07.27-.25.07-.05.1.03.14-.1h.09l.21.11.22.03.12-.09.07-.02.45.1.05.03.24.3.02.05.04.39v.04l-.13.37-.07.06h-.04l.08.1h.03l.19-.13h.03l.26-.08.4-.51.06-.03.2-.02h.07l.2-.13h.1l.29.23.06.07.02.06-.04.56.08.13.39.17.23-.09.09.02.25.27h.01l.02-.02.04-.03.27-.07-.41-.28-.03-.09.05-.2.07-.19.02-.03.34-.3.02-.14.02-.04.43-.61.09-.04.29.05.07.08v.04l.07-.07.36.04.06.02.07-.05.1-.31-.04-.15V6.5l.14-.24.08-.02-.06-.21.03-.1.3-.2h.03l.33-.08.25-.25.07-.02 1.14.1.08.09v.34l.14.26h.44l.07.02.06.07.02.03.11.45v.06l-.09.16-.07.19-.4.56.1.27.3.11.03.02.13.14.05-.02h.24l.25-.22.05-.02.74-.06.26-.23h.12l.12.16.02.08-.02.08v.27l.08.22.19.11.07.02h.41l.08.11-.02.06v.1l.37.03.06.14-.09.12v.31l-.23.28-.03.21h.02l.18.08.05-.03.33-.2.12-.09h.09l.56.31.03.03.04.06.44.38.03.08-.02.19v.04l.1.03.04.03.13.17.28-.07h.07l.15.11.04.05.09.32.04.02.07.02.05.03.19.28h.11l.2-.08h.08l.21.14.04.05.02.09.13.4.04.06.17.19.02.04.05.35v.14l.62 1.04v.36l-.47.88v.02l-.39.39.02.16v.02l-.01.09-.1.07-.53-.06-.46.08h-.06l-.05-.04.31.31.05.07v.08l-.14.4-.08.06-1.18-.05h-.09l-.66.17-.64.29-.08.02-1.16.62-.09.03-.06.05-1.03.78-.53.58-.06.09-.58.66-.03.02-1.37.67v.34l-.04.08-.74.27h-.52l-.2.12-.66.57-1.06 1.16-.06.07-.48.6-.48.73-.03.03-.17.1h-.06l-1.32-.25-.05-.03-.18-.19h-.15l-.47.07-.72.28-.09.05-.33.14-.05.06-.02.02-.59.37-.07.06-.75.53-.07.06-.55.52h-.11Z" class="cls-4"/><path d="M7.34 12.4s.02-.05.05-.15.07-.24.15-.42q.045-.135.12-.3c.05-.11.1-.22.16-.34s.13-.25.2-.38.15-.27.24-.41c.18-.28.37-.58.61-.88.23-.3.49-.61.78-.91a11.4 11.4 0 0 1 2.03-1.65 11 11 0 0 1 2.36-1.12c.2-.06.39-.13.59-.18.19-.06.38-.1.57-.14.09-.02.19-.04.28-.05.09-.02.18-.03.27-.05l.26-.03.25-.03c.33-.03.63-.05.9-.05h.38c.12 0 .22.01.32.02.05 0 .09 0 .14.01.04 0 .08 0 .12.01.07 0 .14.02.19.03.1.02.16.02.16.02s-.05.02-.15.05-.24.07-.42.13q-.135.045-.3.09c-.11.04-.22.07-.35.11-.25.08-.52.17-.82.28-.15.05-.3.11-.46.17s-.32.12-.48.19-.33.14-.5.21c-.08.04-.17.07-.26.11s-.17.08-.26.12c-.35.17-.7.34-1.05.54-.35.19-.71.4-1.05.62s-.68.44-1.01.68c-.32.24-.64.47-.94.72-.15.12-.29.24-.44.36-.14.12-.28.24-.41.36-.07.06-.13.12-.2.18-.06.06-.12.12-.19.18-.13.11-.24.23-.35.34l-.32.32c-.1.1-.19.2-.29.3-.09.09-.17.18-.25.26s-.15.16-.21.23c-.13.14-.23.25-.3.32l-.11.11" class="cls-5"/><path d="m27.16 13.48-.85 6.14h-2.44l.86-6.14h-4.84L17.67 29.3h4.84l.54-3.82h2.44l-.55 3.82h4.84L32 13.48z" class="cls-1"/><path d="M29.14 21v.1l.01.29-.74.28-.48-.01-.05.02-.21.11-.67.58-1.07 1.17-.06.08-.49.6-.48.74-.18.1-1.31-.27-.2-.21-.1-.01h-.1l-.48.08-.73.28-.09.05-.35.15-.06.07-.6.38-.06.06-.76.53-.07.06-.56.53-.23-.18-.56-.8-.18-.08-.1.01-.51 3.59h4.84l.54-3.82h2.44l-.55 3.82h4.84l1.35-9.65-.57.65z" class="cls-6"/><path d="M27.02 25.28c-.64.39-1.16.65-1.62.83l.09-.63h-2.43l-.18 1.28c-.73.18-1.56.47-2.75 1.2-.81.5-1.41.94-1.89 1.35h-.56l.48-3.42h.1l.09.03.55.79.37.27.65-.61.07-.06.75-.53.07-.07.6-.38.05-.06.31-.13.09-.05.7-.27.45-.07h.1l.19.21 1.43.28.26-.15.5-.76.48-.6 1.12-1.23.65-.56.19-.1h.48l.89-.33-.02-.41 1.35-.66.43-.48-.29 2.08c-.86 1.19-1.75 2.01-3.78 3.25m3.24.81c-.9.89-1.64 1.27-2.43 1.66-.72.36-1.47.74-2.35 1.54h-.51l.4-2.81c.52-.19 1.12-.48 1.85-.92 1.79-1.09 2.72-1.88 3.51-2.86l-.48 3.39Zm-.45 3.2h-3.81c.73-.6 1.37-.92 1.99-1.24.69-.35 1.39-.7 2.2-1.43l-.37 2.66Zm-7.27 0h-3.75c.41-.33.9-.67 1.53-1.06 1.09-.66 1.85-.95 2.53-1.12l-.31 2.19Zm-2.62-15.82h4.84l-.86 6.14h2.44l.86-6.14h4.84l-.82 5.84-.11.12-.06.1-.55.62-1.48.73v.39l-.59.22h-.49l-.3.14-.7.61-1.09 1.19-.55.69-.47.71-.08.05-1.2-.24-.2-.22-.16-.02h-.12l-.51.08-.77.29-.1.06-.38.16-.07.08-.57.36-.08.08-.74.53-.09.08-.46.43-.1-.07-.57-.82-.26-.11h-.11l1.69-12.05Zm6.91-.41-.86 6.14h-1.6l.86-6.14h-5.67l-2.34 16.65h5.67l.55-3.82h1.6l-.55 3.82h5.68l2.34-16.65h-5.67Z" style="fill:#fff"/><path d="M62.51 26.73c-.19.03-.4.05-.63.07s-.48.03-.77.03c-.81 0-1.22-.34-1.22-1.01 0-.1 0-.19.03-.29l.88-6.31h-2.58l-.88 6.31q-.06.45-.06.84c0 1.95 1.16 2.93 3.49 2.93q2.835 0 4.05-.63l1.33-9.45h-2.58l-1.05 7.51ZM66.51 29.3h2.58l1.85-13.14-2.67.6zM46.8 19.22c-1.86 0-3.21.19-4.04.57l-1.33 9.51h2.58l1.06-7.51c.18-.03.39-.05.62-.07s.48-.03.77-.03c.25 0 .58.06 1 .17l.36-2.56c-.38-.06-.71-.09-1.01-.09M52.81 26.73c-.19.03-.4.05-.63.07s-.49.03-.77.03c-.85 0-1.27-.23-1.27-.68 0-.04 0-.07.01-.12.09-.64 1.05-.96 2.89-.96zm-.33-7.51c-.81 0-1.71.15-2.69.45l-.35 2.5c1.04-.32 1.94-.48 2.69-.48.84 0 1.26.26 1.26.77v.14c-3.56 0-5.5 1.14-5.82 3.43-.03.23-.04.44-.04.65 0 1.74 1.18 2.62 3.54 2.62q2.835 0 4.05-.63l.8-5.68c.04-.3.06-.57.06-.83 0-1.96-1.17-2.95-3.5-2.95M38.21 23.11H35.1c.13-.94.74-1.42 1.84-1.42.87 0 1.3.37 1.3 1.1 0 .1 0 .2-.03.31m.07-3.8.51-.92H35.9l-.34 1.07c-1.77.54-2.83 1.99-3.16 4.38l-.12.85c-.06.43-.09.84-.09 1.21 0 2.27 1.13 3.41 3.4 3.41 1.27 0 2.33-.16 3.17-.47l.35-2.51q-1.47.51-3.18.51c-.81 0-1.22-.34-1.22-1.03 0-.09 0-.2.03-.3h4.85q.84 0 1.08-1.65c.06-.43.09-.83.09-1.19 0-1.93-.83-3.04-2.49-3.34M76.19 19.22l.43-3.06-2.66.61-.35 2.46h-1.33l-.35 2.47h1.34l-.54 3.84c-.05.33-.07.63-.07.92 0 1.9 1.02 2.86 3.06 2.86.53 0 1.05-.1 1.55-.31l.36-2.54c-.69.25-1.21.38-1.56.38-.52 0-.78-.31-.78-.92 0-.12 0-.25.03-.38l.54-3.84h2.44l.35-2.47h-2.44Z" class="cls-1"/><path d="M41.87 10.56v2.21h.53c.52 0 .78-.37.78-1.1s-.26-1.1-.78-1.1h-.53Zm-.75-.71h1.27c1.02 0 1.52.61 1.52 1.82s-.51 1.82-1.52 1.82h-1.27V9.86ZM50.36 11.79c0-.33-.13-.49-.4-.49h-.22c-.07 0-.12.01-.18.02v1.42c.05 0 .11.02.18.02h.22c.26 0 .4-.17.4-.5v-.49Zm-1.54-1.03q.33-.18 1.14-.18c.76 0 1.14.4 1.14 1.21v.49c0 .81-.38 1.21-1.14 1.21-.18 0-.31-.01-.4-.04v1l-.74.17zM55.98 10.74c.22-.11.6-.16 1.14-.16.12 0 .28.02.46.05l-.17.71c-.12-.03-.22-.05-.29-.05h-.22c-.07 0-.12.01-.18.02v2.16h-.74v-2.74ZM65.68 10.74c.22-.11.6-.16 1.14-.16q.42 0 .6.15c.16-.1.43-.15.8-.15.67 0 1.01.36 1.01 1.09v1.82h-.74v-1.82c0-.25-.09-.37-.27-.37-.16 0-.29.03-.4.08v2.11h-.74v-1.82c0-.25-.09-.37-.27-.37h-.22c-.06 0-.12.01-.18.02v2.16h-.74v-2.74ZM74.15 10.74c.22-.11.6-.16 1.14-.16.76 0 1.14.36 1.14 1.09v1.82h-.74v-1.82c0-.25-.13-.37-.4-.37h-.22c-.06 0-.12.01-.18.02v2.16h-.74zM45.96 11.7c0-.27.16-.41.47-.41.28 0 .42.14.42.41h-.9Zm1.64.21c0-.77-.29-1.2-.88-1.31l.11-.27H46l-.05.31c-.49.15-.73.57-.73 1.26v.24c0 .89.38 1.33 1.14 1.33.31 0 .57-.03.79-.1l.11-.76c-.27.1-.57.15-.89.15-.26 0-.4-.13-.4-.38h1.4q.24 0 .24-.48M53.94 12.74c-.05 0-.11.02-.18.02h-.22c-.26 0-.4-.08-.4-.23 0-.18.26-.28.79-.28v.48Zm-.4-2.16c-.2 0-.42.03-.65.1l-.1.75c.29-.09.54-.14.76-.14.26 0 .4.09.4.26-1.02 0-1.54.33-1.54.99s.38.94 1.14.94q.81 0 1.14-.18v-1.63c0-.72-.38-1.09-1.14-1.09M60.28 12.77c-.18 0-.27-.12-.27-.37v-1.1h.77v-.71h-.77v-.88l-.74.17v.71h-.38v.71h.38v1.1c0 .72.34 1.09 1.01 1.09.11 0 .22-.02.32-.05l.11-.78c-.19.08-.33.11-.43.11M62.82 11.7c0-.27.16-.41.47-.41.28 0 .42.14.42.41h-.9Zm1.64.21c0-.89-.39-1.33-1.17-1.33s-1.22.44-1.22 1.33v.24c0 .89.38 1.33 1.14 1.33.31 0 .57-.03.79-.1l.11-.76c-.27.1-.57.15-.89.15-.26 0-.4-.13-.4-.38h1.4q.24 0 .24-.48M71.29 11.7c0-.27.16-.41.47-.41.28 0 .42.14.42.41h-.9Zm1.64.21c0-.89-.39-1.33-1.17-1.33s-1.22.44-1.22 1.33v.24c0 .89.38 1.33 1.14 1.33.31 0 .57-.03.79-.1l.11-.76c-.27.1-.57.15-.89.15-.26 0-.4-.13-.4-.38h1.4q.24 0 .24-.48M79.13 12.77c-.18 0-.27-.12-.27-.37v-1.1h.77v-.71h-.77v-.88l-.74.17v.71h-.38v.71h.38v1.1c0 .72.34 1.09 1.01 1.09.11 0 .22-.02.32-.05l.11-.78c-.19.08-.33.11-.43.11" class="cls-6"/><path d="M17.05 22.69c-2.3 0-4.16-1.86-4.16-4.16s1.86-4.16 4.16-4.16 4.16 1.86 4.16 4.16-1.86 4.16-4.16 4.16" class="cls-4"/><path d="M0 36.75h85.04v3.27H0z" class="cls-5"/><path d="M55.27 35.01h29.77v3.38H55.27z" class="cls-5"/><path d="M81.31 31.51h3.73v4.2h-3.73z" class="cls-5"/><path d="M72.04 32.98H82.9v3.16H72.04z" class="cls-5"/><path d="M63.29 33.61h10.86v3.16H63.29z" class="cls-5"/></g></svg>