<?xml version="1.0" encoding="UTF-8"?>
<svg id="Calque_2" data-name="Calque 2" xmlns="http://www.w3.org/2000/svg" viewBox="0 0 85.04 40.02">
  <defs>
    <style>
      .cls-1 {
        fill: #2f59a2;
      }

      .cls-2 {
        fill: #fff;
      }

      .cls-3 {
        fill: #ffed00;
      }

      .cls-4 {
        fill: #d0661c;
      }

      .cls-5 {
        fill: #bf086e;
      }

      .cls-6 {
        fill: #37a1df;
      }
    </style>
  </defs>
  <g id="Calque_1-2" data-name="Calque 1">
    <g>
      <path class="cls-5" d="M0,0v39.83c36.82,1.61,85.04-7.4,85.04-7.4V0H0ZM83.59,31.06s-48.29,6.51-81.62,4.18V1.77h81.62v29.29Z"/>
      <polygon class="cls-3" points="37.99 13.2 38 13.13 38 13.04 37.95 12.71 37.78 12.51 37.73 12.43 37.59 12.02 37.57 11.94 37.36 11.8 37.13 11.9 36.96 11.89 36.91 11.81 36.75 11.58 36.66 11.55 36.59 11.5 36.49 11.16 36.34 11.06 36 11.14 35.96 11.07 35.84 10.93 35.68 10.88 35.68 10.77 35.71 10.57 35.63 10.51 35.26 10.19 35.21 10.11 34.65 9.8 34.53 9.89 34.19 10.09 34.11 10.14 33.88 10.05 33.81 10.01 33.85 9.72 34.09 9.42 34.08 9.13 34.19 8.98 33.76 8.95 33.75 8.76 33.77 8.69 33.44 8.69 33.35 8.69 33.26 8.66 33.04 8.54 32.93 8.28 32.94 7.98 32.96 7.89 32.84 7.74 32.55 7.99 31.79 8.05 31.51 8.28 31.24 8.29 31.16 8.35 31.11 8.28 30.99 8.14 30.66 8.02 30.53 7.67 30.95 7.07 31.02 6.9 31.1 6.74 30.99 6.29 30.93 6.22 30.43 6.23 30.26 5.91 30.26 5.63 30.26 5.55 29.12 5.45 28.84 5.72 28.48 5.79 28.19 5.99 28.29 6.32 28.22 6.33 28.16 6.29 28.03 6.53 28.07 6.7 27.96 7.06 27.84 7.15 27.74 7.12 27.39 7.09 27.4 7.37 27.26 7.47 27.24 7.02 26.96 6.97 26.91 7.05 26.52 7.58 26.5 7.76 26.14 8.08 26.06 8.26 26.01 8.45 26.49 8.77 26.49 8.86 26.13 8.96 26.06 9.03 25.98 9 25.72 8.71 25.46 8.81 25.01 8.61 24.9 8.44 24.94 7.85 24.87 7.78 24.6 7.57 24.38 7.72 24.29 7.71 24.09 7.73 23.67 8.26 23.38 8.34 23.15 8.51 23.06 8.46 22.88 8.25 23.06 8.21 23.19 7.84 23.15 7.46 22.91 7.16 22.47 7.06 22.32 7.17 22.04 7.13 21.82 7.01 21.61 7.16 21.58 7.07 21.52 7.12 21.25 7.37 21.26 7.64 20.78 7.73 20.31 7.62 20.12 7.67 19.95 7.58 19.88 7.53 19.65 7.74 19.64 7.83 19.51 8.09 19.25 8.19 19.09 8.54 19.13 8.81 19.4 9.08 19.38 9.46 19.29 9.48 19.12 9.52 19.03 9.56 18.84 9.79 18.49 9.93 18.02 9.94 17.46 9.82 17.4 9.88 17.38 9.91 16.89 9.8 16.61 9.54 16.06 9.29 15.76 9.32 15.67 9.31 15.52 9.52 15.52 9.79 15.62 9.94 15.34 10.16 15.31 10.25 15.5 10.68 15.48 10.78 15.52 10.87 15.81 11.21 15.65 11.54 15.47 11.57 15.44 11.65 15.4 11.85 15.48 12.02 15.4 12.2 15.49 12.38 15.44 12.66 15.73 12.91 15.59 13.03 15.58 13.22 15.55 13.3 15.31 13.19 14.96 13.32 14.78 13.25 14.7 13.22 14.6 13.05 14.24 12.92 13.95 12.88 13.79 12.97 13.7 12.99 13.46 13.12 13.41 13.2 13.15 13.33 13 13.25 12.69 13.48 12.66 14.17 12.45 14.37 12.35 14.37 11.97 14.3 11.66 14.64 11.16 14.64 10.83 14.85 10.55 14.79 10.34 15 10.28 15.08 10.16 15.21 9.88 15.18 9.41 15.47 9.32 15.5 9.16 15.4 9.05 15.13 8.68 14.71 7.96 14.47 7.91 14.38 7.55 14.51 7.28 14.48 7.19 14.22 7.1 14.18 6.74 15.57 6.5 15.87 6.58 16.01 6.63 16.1 6.73 16.08 6.81 16.36 6.53 16.77 6.51 16.85 6.81 17.34 7.66 18.24 7.71 18.32 7.62 18.3 7.36 18.22 7.39 18.6 7.28 18.85 7.34 19.22 7.49 19.46 7.55 19.53 7.45 19.69 7 19.62 7.07 19.78 7.07 19.87 6.99 19.94 6.51 20.41 6.33 20.36 6.27 20.43 6.28 20.6 6.2 20.61 6.11 20.58 5.73 20.84 5.45 20.85 5.53 20.9 5.81 21.13 6.01 21.16 5.99 21.34 5.87 21.49 5.6 21.51 5.51 21.48 5.45 21.56 5.27 21.77 5.17 22.15 5.23 22.42 5.03 22.76 4.91 23.02 5.14 23.28 5.23 23.24 5.8 23.34 5.95 23.69 5.97 23.79 6.06 23.89 6.12 23.9 6.15 24.26 6.16 24.35 6.5 24.65 6.48 24.73 6.63 24.65 6.77 24.41 6.94 24.42 7.03 24.45 7.12 24.46 7.34 24.5 7.35 24.4 7.66 24.2 7.71 23.93 7.88 23.84 7.93 23.65 8.19 23.99 8.16 24.08 8.29 24.52 8.18 24.78 8.23 24.96 8.28 25.02 8.36 25.04 8.54 24.99 8.95 25.23 9.01 25.3 9.2 25.5 9.25 25.58 9.58 25.5 9.66 25.49 9.67 25.39 9.82 25.28 9.88 25.24 9.96 25.04 9.96 25.03 9.96 24.93 9.97 24.66 10.27 24.3 10.34 24.25 10.43 24.19 10.57 24.06 10.35 23.78 10.6 23.64 11.09 23.65 11.17 23.59 11.63 23.47 11.74 23.21 11.66 22.73 11.37 22.25 11.4 22.18 11.64 21.97 11.68 22.04 11.71 22.26 12.03 22.45 12.05 22.62 12.07 22.71 12.03 22.78 12.07 22.86 12.09 23.14 11.97 23.38 12.09 23.53 12.18 23.58 12.5 23.75 12.65 23.65 12.71 23.58 13.13 23.93 13.22 23.98 13.46 23.96 13.54 23.95 14.14 23.78 14.23 23.77 14.41 23.77 14.45 24.31 14.42 24.41 14.44 24.7 14.57 24.84 14.55 24.94 15.06 24.82 15.44 24.87 15.9 25.35 16.09 25.33 16.24 25.44 16.32 25.49 16.4 25.54 16.67 25.59 16.76 25.42 17.23 25.45 17.34 25.6 17.33 25.79 17.59 25.9 17.87 25.89 18.1 25.71 18.28 25.7 18.46 25.78 19.02 26.58 19.25 26.76 19.81 26.23 19.88 26.17 20.64 25.64 20.7 25.58 21.3 25.2 21.36 25.13 21.71 24.98 21.8 24.93 22.53 24.65 23.01 24.57 23.11 24.57 23.21 24.58 23.41 24.79 24.72 25.06 24.9 24.96 25.38 24.22 25.87 23.62 25.93 23.54 27 22.38 27.67 21.79 27.88 21.68 27.93 21.66 28.41 21.67 29.15 21.39 29.14 21.1 29.14 21 30.56 20.3 31.14 19.64 31.19 19.56 31.74 18.96 32.77 18.18 32.84 18.12 32.94 18.08 34.09 17.46 34.18 17.44 34.81 17.15 35.48 16.99 35.58 16.98 36.77 17.03 36.92 16.63 36.87 16.55 36.4 16.08 36.22 16.07 36.23 16.06 36.31 16.02 36.5 16.01 36.74 16.16 37.21 16.07 37.75 16.13 37.77 16.05 37.74 15.85 38.15 15.43 38.61 14.54 38.62 14.27 37.99 13.2"/>
      <path class="cls-4" d="M19.08,26.52l.17.12.51-.47.08-.07.75-.53.07-.07.58-.36.05-.06.03-.02.34-.15.09-.05.75-.29.5-.08h.11s.1.01.1.01l.05.03.18.19,1.26.25.13-.07.48-.72.55-.68,1.08-1.18.69-.59.26-.14h.04s.47,0,.47,0l.67-.25v-.23s0-.1,0-.1l.05-.08,1.4-.69.57-.64.06-.09.56-.61,1.03-.78.07-.06h.03s.09-.05.09-.05l1.17-.62.08-.02.64-.29.68-.16h.11s1.13.03,1.13.03l.11-.3-.02-.03-.44-.44h-.15s-.06-.16-.06-.16h.01s.03-.03.03-.03l.09-.04h.03s.19-.02.19-.02h.05s.21.14.21.14l.44-.08h.03s.46.05.46.05l-.02-.18.02-.07.4-.41.44-.85v-.23s-.61-1.05-.61-1.05v-.06s0-.07,0-.07v-.07l-.05-.3-.16-.19-.06-.1-.15-.47-.14-.09-.18.08h-.04s-.17,0-.17,0l-.07-.04-.19-.28-.06-.02h-.03s-.07-.06-.07-.06l-.04-.05-.09-.32-.09-.06-.3.08-.09-.04-.05-.07-.09-.11-.14-.04-.06-.08v-.12s.02-.15.02-.15l-.04-.03-.39-.34-.04-.06-.49-.27-.09.06-.42.25h-.07s-.23-.08-.23-.08l-.07-.04-.05-.09.04-.3.02-.04.23-.27v-.25s0-.06,0-.06l.02-.02-.28-.02-.08-.08v-.18h-.35s-.11-.04-.11-.04l-.22-.12-.04-.04-.11-.26v-.04s0-.32,0-.32v-.04s-.03-.05-.03-.05l-.22.19-.05.02-.74.06-.25.21-.05.02h-.24s-.05.05-.05.05l-.13-.02-.05-.07-.11-.12-.31-.12-.05-.05-.12-.35v-.08s.43-.59.43-.59l.06-.17.07-.13-.1-.4-.02-.03h-.45s-.08-.03-.08-.03l-.17-.32v-.04s-.01-.28-.01-.28l-1.02-.09-.24.24-.04.02-.34.07-.23.15.08.26-.07.11h-.06s-.05,0-.05,0l-.08.13.04.14v.05s-.11.36-.11.36l-.03.05-.12.09h-.07s-.09-.01-.09-.01l-.24-.03v.18s-.03.08-.03.08l-.15.1-.13-.07v-.38s-.17-.03-.17-.03l-.02.03-.37.52-.02.15-.03.05-.34.31-.07.16-.03.12.42.29.04.07v.09l-.06.08-.33.09-.04.05-.1.02-.09-.04-.03-.02-.22-.24-.21.08h-.07s-.45-.2-.45-.2l-.04-.03-.11-.17v-.05s.02-.55.02-.55l-.03-.04-.22-.17-.17.11h-.06s-.08,0-.08,0l-.15.02-.4.51-.05.03-.27.07-.22.16h-.09s-.09-.04-.09-.04l-.02-.02-.19-.21.05-.14.14-.03.1-.31-.03-.34-.2-.25-.38-.08-.12.09-.06.02-.27-.04h-.03s-.18-.11-.18-.11l-.17.12-.09-.03-.23.21v.23s-.06.09-.06.09l-.48.09h-.04s-.45-.11-.45-.11l-.16.04h-.06s-.19-.11-.19-.11l-.16.14v.06s-.02.03-.02.03l-.12.26-.05.04-.23.09-.14.29.03.22.25.25.03.07-.02.37-.06.08-.09.02-.17.04-.06.03-.17.22-.04.03-.35.14h-.03s-.47.02-.47.02h-.02s-.51-.12-.51-.12l-.02.02-.02.03-.09.04-.48-.11-.04-.02-.28-.25-.51-.23-.28.02h-.02s-.05,0-.05,0l-.1.15v.22l.09.13-.02.11-.26.21v.03s.17.4.17.4v.06s-.01.07-.01.07l.02.05.29.33v.09s-.15.33-.15.33l-.07.05-.13.02v.03s-.04.17-.04.17l.06.15v.07l-.06.14.07.15v.05s-.03.22-.03.22l.25.22v.13s-.11.1-.11.1v.17s-.04.09-.04.09l-.12.05-.22-.1-.31.11h-.06l-.17-.06-.09-.04-.04-.03-.08-.14-.32-.12-.25-.03-.15.08-.08.02-.22.11-.04.06-.04.04-.26.12h-.08s-.1-.05-.1-.05l-.23.17-.02.65-.03.06-.21.2-.06.02h-.12s-.34-.07-.34-.07l-.28.31-.06.03h-.47l-.31.2h-.07s-.23-.04-.23-.04l-.17.17-.06.07-.13.14-.08.03-.24-.03-.45.28h-.02s-.09.04-.09.04h-.07s-.16-.11-.16-.11l-.03-.04-.11-.26-.35-.39-.7-.23-.05-.04v-.03s-.31.1-.31.1h-.04s-.27-.02-.27-.02l-.07-.06-.05-.15-.32,1.23-.02.03-.21.25.08.12h.04s.09.06.09.06l.07.27v.07s-.28.4-.28.4v.04s.26.44.26.44l.86.91.05.07-.08.13-.1-.02-.14-.05.02.26v.04s-.11.22-.11.22l.05.33.14.22.06.07v.1s-.09.16-.09.16l-.09.04-.3-.05v.02s.01.03.01.03v.09l-.03.06-.07.07-.48.47-.08.02-.12-.04v.13s-.06.09-.06.09h-.09s-.05,0-.05,0l-.04-.02-.35.23h-.04s-.04.02-.04.02l.15.13.17.02.07.1-.03.19-.02.04-.11.15-.07.03h-.27s-.03,0-.03,0h-.03s-.03.02-.03.02l-.17.2-.09.34.06.25v.06s-.21.33-.21.33l-.1.2.16.17h.03s.05-.02.05-.02l.57.1.06.05.15.36.02.08.05.06h.03s.07.09.07.09l.02.36v.05s.32.28.32.28h0s.01,0,.01,0l.13-.22.08-.04.19.02.08.02.22.03h0s.04-.07.04-.07l.28-.18.04-.24.05-.06.14-.07.04-.15.15-.03.26.34v.09s-.01.06-.01.06l.13.42v.06s-.1.23-.1.23l.04.13.02.03h.03s.16-.03.16-.03h.07s.41.24.41.24l.02.02.06.08.19.21.02.03.29-.06v-.04s.04-.06.04-.06l.16-.12.04-.02.06-.16v-.37s.03-.05.03-.05l.3-.36.02-.02.15-.11.08-.07-.17-.22.03-.13.25-.14h.04s.45,0,.45,0l.06-.04h.03s.42-.13.42-.13l.08-.2-.08-.43-.28-.47v-.07s.02-.07.02-.07l.03-.04.25-.21.13.03.04.07v.03s.03.18.03.18l.28.16.04.06.04.26v.05s-.03.04-.03.04l.02.04v.03s.03.28.03.28v.05s-.11.19-.11.19l.08.09.07.04.28.15.09-.06.05-.07h.12s.42.33.42.33l.06.03h.21s.08-.02.08-.02l.6-.18h.1s.19-.01.19-.01l.09.08.04.55v.03s-.02.09-.02.09v.24s.13.13.13.13v.04s.4-.09.4-.09h.03s.38.05.38.05l.05.03.43.45.14-.02.06.02.15.11.09.05.06.04.19.03.06-.12.08-.05.47.04.06.03.11.15.02.06v.13s.18.08.18.08h.24s.2-.17.2-.17l.05-.02h.19s.04,0,.04,0l.17.07.04.03s.55.79.55.79ZM19.2,26.83l-.24-.17-.02-.02-.54-.79-.13-.06h-.14s-.2.17-.2.17l-.05.02h-.29s-.04,0-.04,0l-.26-.11-.05-.09v-.15s-.06-.09-.06-.09l-.37-.03-.06.12-.09.05-.27-.05h-.03s-.07-.06-.07-.06l-.09-.05-.12-.09-.15.02-.07-.03-.44-.46-.34-.04-.49.12-.1-.11v-.05s-.09-.11-.09-.11l-.02-.05v-.29s-.01-.02-.01-.02l.02-.09-.03-.45h-.17s-.6.18-.6.18h-.09s-.24.03-.24.03h-.05s-.1-.07-.1-.07l-.36-.29h0s-.02.02-.02.02l-.15.1h-.09s-.41-.22-.41-.22l-.02-.02-.12-.15v-.1s.1-.21.1-.21l-.02-.24-.03-.06v-.08l.03-.05-.03-.19-.29-.17-.04-.07-.02-.16-.13.11h0s.27.46.27.46v.03s.1.47.1.47v.05s-.12.26-.12.26l-.06.05-.44.12-.07.05-.05.02h-.46s-.14.07-.14.07l.15.21v.12s-.16.13-.16.13l-.15.11-.27.33v.24s-.01.11-.01.11v.03s-.08.2-.08.2l-.04.04-.06.03-.12.09v.06s-.08.07-.08.07h-.08s-.33.09-.33.09l-.09-.04-.05-.07-.18-.19-.06-.07-.37-.21-.15.04h-.05s-.07-.03-.07-.03l-.04-.03-.05-.06-.02-.03-.05-.17v-.06s.1-.23.1-.23l-.13-.42v-.06s.02-.04.02-.04l-.12-.16v.02s-.05.06-.05.06l-.13.07-.04.23-.04.06-.28.18v.06s-.11.07-.11.07l-.32-.05-.08-.02h-.11s-.11.18-.11.18l-.03.03-.15.09-.13-.09v-.04s-.29-.27-.29-.27l-.03-.05v-.09s-.03-.29-.03-.29l-.05-.03-.09-.1-.02-.04-.02-.09-.13-.3-.5-.09-.06.03-.1-.02-.24-.26v-.1s.11-.27.11-.27l.18-.31-.05-.24v-.04s.1-.39.1-.39l.02-.04.25-.28.09-.03.07.02h.22s.07-.11.07-.11v-.08s-.1-.01-.1-.01l-.04-.02-.28-.23-.07-.05.04-.16h.25s.36-.26.36-.26h.08s.05.01.05.01v-.08s.02-.07.02-.07l.06-.06.08-.02.13.04.5-.48v-.04l-.06-.15.1-.12.39.07.04-.06-.03-.04-.15-.24v-.03s-.07-.37-.07-.37v-.05s.11-.23.11-.23l-.02-.36.11-.09.07.02-.73-.78-.3-.48v-.07s.02-.09.02-.09v-.02s.26-.38.26-.38l-.04-.16h-.02s-.09-.04-.09-.04l-.05-.09-.08-.13v-.1s.24-.28.24-.28l.35-1.37.12-.06.09.04.05.05.07.21.2.02.34-.12.1.04.03.06.69.23.04.02.37.42.02.02.1.25.1.06h.04s.46-.3.46-.3h.06s.23.02.23.02l.09-.1.06-.08.21-.21.08-.02.24.05.3-.19h.05s.46-.01.46-.01l.28-.32.08-.03.38.07h.06l.16-.15.02-.66.04-.07.31-.22h.09s.11.05.11.05l.2-.09.04-.06.04-.03.26-.13.08-.02.15-.08h.05s.3.03.3.03l.36.14.04.04.09.14.06.03.14.05.32-.11h.06s.15.07.15.07v-.16s.04-.06.04-.06l.06-.06-.21-.18-.03-.08.04-.25-.08-.16v-.07s.06-.14.06-.14l-.06-.14v-.05s.03-.21.03-.21l.03-.09.07-.06.14-.02.12-.24-.26-.29v-.02s-.05-.09-.05-.09v-.05s.01-.07.01-.07l-.19-.41v-.07s.04-.09.04-.09l.02-.03.21-.17-.06-.08v-.05s-.01-.27-.01-.27l.02-.05.15-.21.08-.04h.09s.29-.01.29-.01h.04s.55.26.55.26h.02s.27.26.27.26l.41.09h0s.06-.06.06-.06l.08-.02.55.12h.45s.31-.13.31-.13l.17-.22.03-.03.1-.04.2-.04.02-.27-.24-.25-.02-.05-.04-.27v-.05s.17-.35.17-.35l.05-.04.23-.09.1-.22v-.07s.04-.05.04-.05l.24-.21h.11s.05.04.05.04l.14.07.15-.04h.04s.45.11.45.11l.39-.07v-.2s.02-.07.02-.07l.27-.25.07-.05.1.03.14-.1h.09s.21.11.21.11l.22.03.12-.09.07-.02.45.1.05.03.24.3.02.05.04.39v.04s-.13.37-.13.37l-.07.06h-.04s.08.1.08.1h.03s.19-.13.19-.13h.03s.26-.08.26-.08l.4-.51.06-.03.2-.02h.02s.05,0,.05,0l.2-.13h.1s.29.23.29.23l.06.07.02.06-.04.56.08.13.39.17.23-.09.09.02.25.27h.01s.02-.02.02-.02l.04-.03.27-.07-.41-.28-.03-.09.05-.2.07-.19.02-.03.34-.3.02-.14.02-.04.43-.61.09-.04.29.05.07.08v.04s.07-.07.07-.07l.36.04.06.02.07-.05.1-.31-.04-.15v-.07s.14-.24.14-.24l.08-.02-.06-.21.03-.1.3-.2h.03s.33-.08.33-.08l.25-.25.07-.02,1.14.1.08.09v.34l.14.26h.44s.07.02.07.02l.06.07.02.03.11.45v.06s-.09.16-.09.16l-.07.19-.4.56.1.27.3.11.03.02.13.14h0s.05-.02.05-.02h.24s.25-.22.25-.22l.05-.02.74-.06.26-.23h.12s.12.16.12.16l.02.08-.02.08v.27s.08.22.08.22l.19.11.07.02h.41l.08.11-.02.06v.1s.37.03.37.03l.06.14-.09.12v.25s0,.06,0,.06l-.23.28-.03.21h.02s.18.08.18.08l.05-.03.33-.2.12-.09h.09s.56.31.56.31l.03.03.04.06.44.38.03.08-.02.19v.04l.1.03.04.03.13.17.28-.07h.07s.15.11.15.11l.04.05.09.32.04.02.07.02.05.03.19.28h.11s.2-.08.2-.08h.08s.21.14.21.14l.04.05.02.09.13.4.04.06.17.19.02.04.05.35v.1s0,.04,0,.04l.62,1.04v.05s0,.27,0,.27v.04s-.47.88-.47.88v.02s-.39.39-.39.39l.02.16v.02s-.01.09-.01.09l-.1.07-.53-.06-.46.08h-.06s-.05-.04-.05-.04l.31.31.05.07v.08s-.14.4-.14.4l-.08.06-1.18-.05h-.09s-.66.17-.66.17l-.64.29-.08.02-1.16.62-.09.03-.06.05-1.03.78-.53.58-.06.09-.58.66-.03.02-1.37.67v.34s-.04.08-.04.08l-.74.27h-.03s-.46,0-.46,0h-.03s-.2.12-.2.12l-.66.57-1.06,1.16-.06.07-.48.6-.48.73-.03.03-.17.1h-.06s-1.32-.25-1.32-.25l-.05-.03-.18-.19h-.06s-.09,0-.09,0l-.47.07-.72.28-.09.05-.33.14-.05.06-.02.02-.59.37-.07.06-.75.53-.07.06-.55.52s-.11,0-.11,0Z"/>
      <path class="cls-5" d="M7.34,12.4s.02-.05.05-.15c.03-.1.07-.24.15-.42.03-.09.07-.19.12-.3.05-.11.1-.22.16-.34.06-.12.13-.25.2-.38.07-.13.15-.27.24-.41.18-.28.37-.58.61-.88.23-.3.49-.61.78-.91.29-.3.61-.59.95-.87.34-.28.71-.54,1.08-.78.38-.24.77-.45,1.17-.64.4-.19.8-.35,1.19-.48.2-.06.39-.13.59-.18.19-.06.38-.1.57-.14.09-.02.19-.04.28-.05.09-.02.18-.03.27-.05.09-.01.18-.02.26-.03.09-.01.17-.02.25-.03.33-.03.63-.05.9-.05.13,0,.26,0,.38,0,.12,0,.22.01.32.02.05,0,.09,0,.14.01.04,0,.08,0,.12.01.07,0,.14.02.19.03.1.02.16.02.16.02,0,0-.05.02-.15.05-.1.03-.24.07-.42.13-.09.03-.19.06-.3.09-.11.04-.22.07-.35.11-.25.08-.52.17-.82.28-.15.05-.3.11-.46.17-.16.06-.32.12-.48.19-.16.07-.33.14-.5.21-.08.04-.17.07-.26.11-.09.04-.17.08-.26.12-.35.17-.7.34-1.05.54-.35.19-.71.4-1.05.62-.34.22-.68.44-1.01.68-.32.24-.64.47-.94.72-.15.12-.29.24-.44.36-.14.12-.28.24-.41.36-.07.06-.13.12-.2.18-.06.06-.12.12-.19.18-.13.11-.24.23-.35.34-.11.11-.22.22-.32.32-.1.1-.19.2-.29.3-.09.09-.17.18-.25.26-.08.08-.15.16-.21.23-.13.14-.23.25-.3.32-.07.07-.11.11-.11.11"/>
      <polygon class="cls-1" points="27.16 13.48 26.31 19.62 23.87 19.62 24.73 13.48 19.89 13.48 17.67 29.3 22.51 29.3 23.05 25.48 25.49 25.48 24.94 29.3 29.78 29.3 32 13.48 27.16 13.48"/>
      <polygon class="cls-6" points="29.14 21 29.14 21.1 29.15 21.39 28.41 21.67 27.93 21.66 27.88 21.68 27.67 21.79 27 22.37 25.93 23.54 25.87 23.62 25.38 24.22 24.9 24.96 24.72 25.06 23.41 24.79 23.21 24.58 23.11 24.57 23.01 24.57 22.53 24.65 21.8 24.93 21.71 24.98 21.36 25.13 21.3 25.2 20.7 25.58 20.64 25.64 19.88 26.17 19.81 26.23 19.25 26.76 19.02 26.58 18.46 25.78 18.28 25.7 18.18 25.71 17.67 29.3 22.51 29.3 23.05 25.48 25.49 25.48 24.94 29.3 29.78 29.3 31.13 19.65 30.56 20.3 29.14 21"/>
      <path class="cls-2" d="M27.02,25.28c-.64.39-1.16.65-1.62.83l.09-.63h-2.43l-.18,1.28c-.73.18-1.56.47-2.75,1.2-.81.5-1.41.94-1.89,1.35h-.56l.48-3.42h.1s.09.03.09.03l.55.79.37.27.65-.61.07-.06.75-.53.07-.07.6-.38.05-.06.31-.13.09-.05.7-.27.45-.07h.1s.19.21.19.21l1.43.28.26-.15.5-.76.48-.6,1.12-1.23.65-.56.19-.1h.01s.47,0,.47,0l.89-.33-.02-.41,1.35-.66.43-.48-.29,2.08c-.86,1.19-1.75,2.01-3.78,3.25M30.23,26.1c-.9.89-1.64,1.27-2.43,1.66-.72.36-1.47.74-2.35,1.54h-.51l.4-2.81c.52-.19,1.12-.48,1.85-.92,1.79-1.09,2.72-1.88,3.51-2.86,0,0-.48,3.39-.48,3.39ZM29.78,29.3h-3.81c.73-.6,1.37-.92,1.99-1.24.69-.35,1.39-.7,2.2-1.43,0,0-.37,2.66-.37,2.66ZM22.51,29.3h-3.75c.41-.33.9-.67,1.53-1.06,1.09-.66,1.85-.95,2.53-1.12l-.31,2.19ZM19.89,13.48h4.84l-.86,6.14h2.44l.86-6.14h4.84l-.82,5.84-.11.12-.06.1-.55.62-1.48.73v.39s-.59.22-.59.22h-.49s-.3.14-.3.14l-.7.61-1.09,1.19-.55.69-.47.71-.08.05-1.2-.24-.2-.22-.16-.02h-.12s-.51.08-.51.08l-.77.29-.1.06-.38.16-.07.08-.57.36-.08.08-.74.53-.09.08-.46.43-.1-.07-.57-.82-.26-.11h-.11s1.69-12.05,1.69-12.05ZM26.8,13.07l-.86,6.14h-1.6l.86-6.14h-5.67l-2.34,16.65h5.67l.55-3.82h1.6l-.55,3.82h5.68l2.34-16.65h-5.67Z"/>
      <path class="cls-1" d="M62.51,26.73c-.19.03-.4.05-.63.07-.23.02-.48.03-.77.03-.81,0-1.22-.34-1.22-1.01,0-.1,0-.19.03-.29l.88-6.31h-2.58l-.88,6.31c-.04.3-.06.58-.06.84,0,1.95,1.16,2.93,3.49,2.93,1.89,0,3.24-.21,4.05-.63l1.33-9.45h-2.58s-1.05,7.51-1.05,7.51Z"/>
      <polygon class="cls-1" points="66.51 29.3 69.09 29.3 70.94 16.16 68.27 16.76 66.51 29.3"/>
      <path class="cls-1" d="M46.8,19.22c-1.86,0-3.21.19-4.04.57l-1.33,9.51h2.58l1.06-7.51c.18-.03.39-.05.62-.07.23-.02.48-.03.77-.03.25,0,.58.06,1,.17l.36-2.56c-.38-.06-.71-.09-1.01-.09"/>
      <path class="cls-1" d="M52.81,26.73c-.19.03-.4.05-.63.07-.23.02-.49.03-.77.03-.85,0-1.27-.23-1.27-.68,0-.04,0-.07.01-.12.09-.64,1.05-.96,2.89-.96,0,0-.23,1.66-.23,1.66ZM52.48,19.22c-.81,0-1.71.15-2.69.45l-.35,2.5c1.04-.32,1.94-.48,2.69-.48.84,0,1.26.26,1.26.77,0,.05,0,.09,0,.14-3.56,0-5.5,1.14-5.82,3.43-.03.23-.04.44-.04.65,0,1.74,1.18,2.62,3.54,2.62,1.89,0,3.24-.21,4.05-.63l.8-5.68c.04-.3.06-.57.06-.83,0-1.96-1.17-2.95-3.5-2.95"/>
      <path class="cls-1" d="M38.21,23.11h-3.11c.13-.94.74-1.42,1.84-1.42.87,0,1.3.37,1.3,1.1,0,.1,0,.2-.03.31M38.28,19.3l.51-.92h-2.89l-.34,1.07c-1.77.54-2.83,1.99-3.16,4.38l-.12.85c-.06.43-.09.84-.09,1.21,0,2.27,1.13,3.41,3.4,3.41,1.27,0,2.33-.16,3.17-.47l.35-2.51c-.98.34-2.04.51-3.18.51-.81,0-1.22-.34-1.22-1.03,0-.09,0-.2.03-.3h4.85c.56,0,.92-.55,1.08-1.65.06-.43.09-.83.09-1.19,0-1.93-.83-3.04-2.49-3.34"/>
      <path class="cls-1" d="M76.19,19.22l.43-3.06-2.66.61-.35,2.46h-1.33l-.35,2.47h1.34l-.54,3.84c-.05.33-.07.63-.07.92,0,1.9,1.02,2.86,3.06,2.86.53,0,1.05-.1,1.55-.31l.36-2.54h0c-.69.25-1.21.38-1.56.38-.52,0-.78-.31-.78-.92,0-.12,0-.25.03-.38l.54-3.84h2.44l.35-2.47h-2.44Z"/>
      <path class="cls-6" d="M41.87,10.56v2.21h.53c.52,0,.78-.37.78-1.1s-.26-1.1-.78-1.1h-.53ZM41.12,9.85h1.27c1.02,0,1.52.61,1.52,1.82s-.51,1.82-1.52,1.82h-1.27v-3.63Z"/>
      <path class="cls-6" d="M50.36,11.79c0-.33-.13-.49-.4-.49-.08,0-.16,0-.22,0-.07,0-.12.01-.18.02v1.42c.05,0,.11.02.18.02.06,0,.14,0,.22,0,.26,0,.4-.17.4-.5,0,0,0-.49,0-.49ZM48.82,10.76c.22-.12.6-.18,1.14-.18.76,0,1.14.4,1.14,1.21v.49c0,.81-.38,1.21-1.14,1.21-.18,0-.31-.01-.4-.04v1l-.74.17v-3.86Z"/>
      <path class="cls-6" d="M55.98,10.74c.22-.11.6-.16,1.14-.16.12,0,.28.02.46.05l-.17.71c-.12-.03-.22-.05-.29-.05-.08,0-.16,0-.22,0-.07,0-.12.01-.18.02v2.16h-.74v-2.74Z"/>
      <path class="cls-6" d="M65.68,10.74c.22-.11.6-.16,1.14-.16.28,0,.48.05.6.15.16-.1.43-.15.8-.15.67,0,1.01.36,1.01,1.09v1.82h-.74v-1.82c0-.25-.09-.37-.27-.37-.16,0-.29.03-.4.08v2.11h-.74v-1.82c0-.25-.09-.37-.27-.37-.08,0-.16,0-.22,0-.06,0-.12.01-.18.02v2.16h-.74v-2.74h0Z"/>
      <path class="cls-6" d="M74.15,10.74c.22-.11.6-.16,1.14-.16.76,0,1.14.36,1.14,1.09v1.82h-.74v-1.82c0-.25-.13-.37-.4-.37-.08,0-.16,0-.22,0-.06,0-.12.01-.18.02v2.16h-.74s0-2.74,0-2.74Z"/>
      <path class="cls-6" d="M45.96,11.7c0-.27.16-.41.47-.41.28,0,.42.14.42.41,0,0-.9,0-.9,0ZM47.6,11.91c0-.77-.29-1.2-.88-1.31l.11-.27h-.83l-.05.31c-.49.15-.73.57-.73,1.26v.24c0,.89.38,1.33,1.14,1.33.31,0,.57-.03.79-.1l.11-.76c-.27.1-.57.15-.89.15-.26,0-.4-.13-.4-.38h1.4c.16,0,.24-.16.24-.48"/>
      <path class="cls-6" d="M53.94,12.74c-.05,0-.11.02-.18.02-.07,0-.14,0-.22,0-.26,0-.4-.08-.4-.23,0-.18.26-.28.79-.28v.48ZM53.54,10.58c-.2,0-.42.03-.65.1l-.1.75c.29-.09.54-.14.76-.14.26,0,.4.09.4.26-1.02,0-1.54.33-1.54.99s.38.94,1.14.94c.54,0,.92-.06,1.14-.18v-1.63c0-.72-.38-1.09-1.14-1.09"/>
      <path class="cls-6" d="M60.28,12.77c-.18,0-.27-.12-.27-.37v-1.1h.77v-.71h-.77v-.88l-.74.17v.71h-.38v.71h.38v1.1c0,.72.34,1.09,1.01,1.09.11,0,.22-.02.32-.05l.11-.78c-.19.08-.33.11-.43.11"/>
      <path class="cls-6" d="M62.82,11.7c0-.27.16-.41.47-.41.28,0,.42.14.42.41h-.9ZM64.46,11.91c0-.89-.39-1.33-1.17-1.33s-1.22.44-1.22,1.33v.24c0,.89.38,1.33,1.14,1.33.31,0,.57-.03.79-.1l.11-.76c-.27.1-.57.15-.89.15-.26,0-.4-.13-.4-.38h1.4c.16,0,.24-.16.24-.48"/>
      <path class="cls-6" d="M71.29,11.7c0-.27.16-.41.47-.41.28,0,.42.14.42.41h-.9ZM72.93,11.91c0-.89-.39-1.33-1.17-1.33s-1.22.44-1.22,1.33v.24c0,.89.38,1.33,1.14,1.33.31,0,.57-.03.79-.1l.11-.76c-.27.1-.57.15-.89.15-.26,0-.4-.13-.4-.38h1.4c.16,0,.24-.16.24-.48"/>
      <path class="cls-6" d="M79.13,12.77c-.18,0-.27-.12-.27-.37v-1.1h.77v-.71h-.77v-.88l-.74.17v.71h-.38v.71h.38v1.1c0,.72.34,1.09,1.01,1.09.11,0,.22-.02.32-.05l.11-.78c-.19.08-.33.11-.43.11"/>
      <path class="cls-4" d="M17.05,22.69c-2.3,0-4.16-1.86-4.16-4.16s1.86-4.16,4.16-4.16,4.16,1.86,4.16,4.16-1.86,4.16-4.16,4.16"/>
    </g>
    <rect class="cls-5" y="36.75" width="85.04" height="3.27"/>
    <rect class="cls-5" x="55.27" y="35.01" width="29.77" height="3.38"/>
    <rect class="cls-5" x="81.31" y="31.51" width="3.73" height="4.2"/>
    <rect class="cls-5" x="72.04" y="32.98" width="10.86" height="3.16"/>
    <rect class="cls-5" x="63.29" y="33.61" width="10.86" height="3.16"/>
  </g>
</svg>